<?xml version="1.0" encoding="utf-8"?>
<!-- Generator: Adobe Illustrator 25.2.0, SVG Export Plug-In . SVG Version: 6.00 Build 0)  -->
<svg version="1.1"
	 id="svg2" sodipodi:docname="4005523.ai" xmlns:cc="http://creativecommons.org/ns#" xmlns:dc="http://purl.org/dc/elements/1.1/" xmlns:inkscape="http://www.inkscape.org/namespaces/inkscape" xmlns:rdf="http://www.w3.org/1999/02/22-rdf-syntax-ns#" xmlns:sodipodi="http://sodipodi.sourceforge.net/DTD/sodipodi-0.dtd" xmlns:svg="http://www.w3.org/2000/svg"
	 xmlns="http://www.w3.org/2000/svg" xmlns:xlink="http://www.w3.org/1999/xlink" x="0px" y="0px" viewBox="0 0 1000 666.7"
	 style="enable-background:new 0 0 1000 666.7;" xml:space="preserve">
<style type="text/css">
	.st0{clip-path:url(#SVGID_2_);}
	.st1{fill:#FAFAFA;}
	.st2{fill:#E1E1E1;}
	.st3{fill:#ECECEC;}
	.st4{fill:#F5F5F5;}
	.st5{fill:#190E0B;}
	.st6{clip-path:url(#SVGID_4_);}
	.st7{clip-path:url(#SVGID_6_);}
	.st8{fill:#375A64;}
	.st9{fill:#1A2E35;}
	.st10{clip-path:url(#SVGID_8_);}
	.st11{fill:#FF9A6C;}
	.st12{fill:#FF4F5B;}
	.st13{clip-path:url(#SVGID_10_);}
	.st14{clip-path:url(#SVGID_12_);}
	.st15{clip-path:url(#SVGID_14_);}
	.st16{clip-path:url(#SVGID_16_);}
	.st17{clip-path:url(#SVGID_18_);}
	.st18{opacity:0.3;clip-path:url(#SVGID_20_);}
	.st19{opacity:0.3;clip-path:url(#SVGID_22_);}
	.st20{fill:#FFBF9D;}
	.st21{fill:#FFFFFF;}
	.st22{opacity:0.3;clip-path:url(#SVGID_24_);}
	.st23{opacity:0.3;clip-path:url(#SVGID_26_);}
	.st24{opacity:0.3;clip-path:url(#SVGID_28_);}
	.st25{opacity:0.3;clip-path:url(#SVGID_30_);}
	.st26{opacity:0.3;clip-path:url(#SVGID_32_);}
</style>
<sodipodi:namedview  bordercolor="#666666" borderopacity="1" gridtolerance="10" guidetolerance="10" id="namedview4" inkscape:pageopacity="0" inkscape:pageshadow="2" inkscape:window-height="480" inkscape:window-width="640" objecttolerance="10" pagecolor="#ffffff">
	</sodipodi:namedview>
<g id="g10" transform="matrix(1.3333333,0,0,-1.3333333,0,666.66667)" inkscape:groupmode="layer" inkscape:label="4005523">
	<g id="g12">
		<g>
			<defs>
				<rect id="SVGID_1_" x="-125" y="-83.3" width="1000" height="666.7"/>
			</defs>
			<clipPath id="SVGID_2_">
				<use xlink:href="#SVGID_1_"  style="overflow:visible;"/>
			</clipPath>
			<g id="g14" class="st0">
				<g id="g20" transform="translate(502.1471,426.5778)">
					<path id="path22" class="st1" d="M0,0c0.5,3.4-4.3,6.2-7.9,6.5c-1.7,0.1-3.5-0.1-5.1,0.4c-3.5,1.2-4.9,5.8-8.4,7.3
						c-2.6,1.1-5.5,0.1-8-1.1c-2.5-1.3-5-2.8-7.8-3c-2.4-0.2-5.1,0.7-7.2-0.4c-1.6-0.9-2.4-2.7-3.9-3.8c-1.4-1.1-3.3-1.3-5.1-1.4
						c-1.8-0.1-3.6-0.1-5.2-0.9c-1.6-0.7-2.9-2.4-2.6-4.2L0,0z"/>
				</g>
				<g id="g24" transform="translate(686.2379,421.3698)">
					<path id="path26" class="st2" d="M0,0c0.5,3.4-4.3,6.2-7.9,6.5c-1.7,0.1-3.5-0.1-5.1,0.4c-3.5,1.2-4.9,5.8-8.4,7.3
						c-2.6,1.1-5.5,0.1-8-1.1c-2.5-1.3-5-2.8-7.8-3c-2.4-0.2-5.1,0.7-7.2-0.4c-1.6-0.9-2.4-2.7-3.9-3.8c-1.4-1.1-3.3-1.3-5.1-1.4
						c-1.8-0.1-3.6-0.1-5.2-0.9c-1.6-0.7-2.9-2.4-2.6-4.2L0,0z"/>
				</g>
				<g id="g28" transform="translate(126.3849,402.7673)">
					<path id="path30" class="st2" d="M0,0c0.5,3.4-4.3,6.2-7.9,6.5c-1.7,0.1-3.5-0.1-5.1,0.4c-3.5,1.2-4.9,5.8-8.4,7.3
						c-2.6,1.1-5.5,0.1-8-1.1c-2.5-1.3-5-2.8-7.8-3c-2.4-0.2-5.1,0.7-7.2-0.4c-1.6-0.9-2.4-2.7-3.9-3.8c-1.4-1.1-3.3-1.3-5.1-1.4
						c-1.8-0.1-3.6-0.1-5.2-0.9c-1.6-0.7-2.9-2.4-2.6-4.2L0,0z"/>
				</g>
				<g id="g32" transform="translate(576.1139,386.279)">
					<path id="path34" class="st3" d="M0,0c0.7,5-6.3,9.1-11.6,9.5c-2.5,0.2-5.1-0.2-7.5,0.6c-5.2,1.8-7.2,8.5-12.3,10.6
						c-3.8,1.6-8.1,0.2-11.8-1.7c-3.7-1.8-7.3-4.2-11.3-4.4c-3.6-0.2-7.4,1.1-10.5-0.6c-2.3-1.3-3.5-4-5.7-5.5
						c-2.1-1.5-4.8-1.9-7.4-2s-5.3-0.2-7.6-1.2c-2.4-1.1-4.3-3.6-3.8-6.1L0,0z"/>
				</g>
				<g id="g36" transform="translate(222.0788,376.4518)">
					<path id="path38" class="st4" d="M0,0c0.6,4.3-5.5,7.9-10.1,8.3c-2.2,0.2-4.5-0.2-6.5,0.6c-4.5,1.6-6.3,7.4-10.7,9.2
						c-3.3,1.4-7.1,0.2-10.2-1.4c-3.2-1.6-6.3-3.6-9.9-3.8c-3.1-0.2-6.4,0.9-9.1-0.6c-2-1.1-3.1-3.4-4.9-4.8
						C-63.3,6-65.7,5.8-68,5.6c-2.3-0.1-4.6-0.1-6.6-1.1c-2.1-0.9-3.8-3.1-3.3-5.3L0,0z"/>
				</g>
				<g id="g40" transform="translate(248.1525,279.8713)">
					<path id="path42" class="st2" d="M0,0c-4.1,9.3-18.1,12.3-25.7,5.4c-3.7,8.5-16.7,11.1-23.4,4.6c-0.1,4.8-3.4,9.3-7.9,10.9
						c-4.5,1.6-9.9,0-12.9-3.6c-1.2,8.8-8.3,16.6-17,18.6c-8.7,2-18.4-1.9-23.3-9.4c-13.4,6.4-31.1,1.4-39.2-11.1
						c-5.1,8.2-18.8,8.8-24.5,1c-5.1,6.1-14,8.9-21.6,6.7c-7.7-2.2-13.7-9.2-14.8-17.1c-9.4,6.3-23.3-1-28-11.3H23.2
						C22,2.6,6.3,5.2,0,0"/>
				</g>
				<g id="g44" transform="translate(569.4264,28.1335)">
					<path id="path46" d="M0,0c-0.5,1.2-1.7,1.9-2.8,2.6C-11.7,8.4-20.6,14.2-29.5,20c6,1.9,9.5,9.3,7.2,15.2
						c-2.7,7-11.1,9.7-18.4,11.3c-7.3,1.7-15.7,4.1-18.7,11c-1.5,3.4-1.3,7.4-2.9,10.8c-3.4,7.4-13.1,8.7-20.4,12.4
						c-10.6,5.3-17.1,16.5-27.2,22.6c-6.1,3.6-13.6,5.6-17.5,11.6c-1.1,1.6-1.8,3.5-3.4,4.6c-1.5,1.1-4.3,1-4.9-0.8
						c-0.2-0.7-0.1-1.5,0.1-2.2c5.7-26.7,26.1-47.3,38.8-71.5C-88.2,28.7-83,10.5-72.3-4.6l32.8-10.7c5.1-1,10.2-1.5,15.4-1.5
						c9.9,0,21.6,3.6,24.2,13.1C0.4-2.5,0.5-1.2,0,0"/>
				</g>
				<g id="g48" transform="translate(658.9489,68.9313)">
					<path id="path50" d="M0,0c5.6-1.8,9.3-7,13.6-11.1c4.3-4.1,11.1-7.1,15.9-3.7L8.3,7.4l-40.1-1.3c10.6-6.3,13.1-21.4,23.5-28.2
						c-4.5,6.9-9,13.8-12.9,21.1c-0.6,1.2-1.2,2.9-0.2,3.8c0.5,0.4,1.1,0.5,1.7,0.5c3.5,0,6.5-2.6,8.5-5.6c1.9-2.9,3.2-6.3,5.3-9.2
						c2.2-2.9,5.2-5.1,8.1-7.2c5-3.6,10-7.2,15-10.8c0.3,2.7-1.1,5.4-2.7,7.7c-3.1,4.6-6.8,8.7-11,12.3c-2.5,2.1-5.1,4-6.8,6.7
						c-0.3,0.4-0.5,0.9-0.5,1.5C-3.6,0.2-1.4,0.5,0,0"/>
				</g>
				<g id="g52" transform="translate(133.8263,147.8727)">
					<path id="path54" d="M0,0c-0.7,1.4-1.8,2.5-2.1,4C-2.4,5.8-1.5,8.1-3,9.2c-1.2,0.9-3.4,0.2-4.2,1.6l-27.2,1.4
						c-2.3-1.4-4.7-3-5.7-5.5c-1.1-2.5-0.1-6,2.5-6.6c2.2-0.5,5,1,6.6-0.6c0.4-0.5,0.6-1.1,0.8-1.7c1.2-4.6,1.5-10.4,5.7-12.7
						c1.9-1.1,4.2-1.1,6.1-2c4.8-2.3,6.8-9.3,12.1-10.1c1.4-0.2,3.1,0.2,3.7,1.5c1,1.8-0.7,3.9-1.6,5.7C-6.5-15.7-5.1-10-7.6-5.7
						c-0.6,1.1-1.5,2.1-1.9,3.3c-0.4,1.2-0.1,2.8,1.1,3.3c3,1.2,4.6-6,7.6-4.8C0.6-3.4,0.7-1.4,0,0"/>
				</g>
				<g id="g56" transform="translate(412.528,271.5768)">
					<path id="path58" class="st4" d="M0,0l4.1,0C2.8,0.1,1.4,0.1,0,0"/>
				</g>
				<g id="g60" transform="translate(416.6608,271.6057)">
					<path id="path62" d="M0,0c8.4-0.4,16.7-4,22.7-9.9c3.3-3.2,6.3-7.2,10.8-8c3.8-0.6,7.5,1.3,11.4,1.3c5.3,0,9.7-3.7,14.5-5.9
						c4.8-2.3,11.7-2.5,14.1,2.2c0.2-3.9,4.3-6.4,8.1-7.4c3.8-1.1,8-1.6,10.8-4.3c2.2-2.2,3.6-5.8,6.7-6.4c1.7-0.3,3.4,0.5,5.1,0.8
						c3.4,0.5,6.7-1.3,10.1-2.3c3.3-1,7.7-0.8,9.3,2.3c14.5-1.9,29-3.8,43.5-5.8c5.1-0.7,10.2-1.4,15.4-1.5
						c6.4-0.1,12.9,0.7,19.1,2.3c3.2,0.9,6.4,2,9.6,3c2.1,0.7,4.3,1.4,6.5,1.7c2.3,0.3,4.7,0.2,7,0.2c13.5,0,26.6,4.4,39.5,8.8
						c19.9,6.8,40.9,14.4,53.6,31.1L0,0z"/>
				</g>
				<g id="g64" transform="translate(11.2863,274.5705)">
					<path id="path66" class="st5" d="M0,0c4.4-3.9,13.8-4,19.3-6c2.3-0.9,3.9-2.8,5.9-4.2c4.8-3.6,11.6-4.3,17-1.7
						c4.8-2.2,9.6-4.2,14.7-5.7c7.9-2.5,16.2-3.7,24.5-3.7c22.2-0.1,43.5,8.7,65.5,11.6c27.9,3.7,56.5-2,84.4,2.2
						c4.7,0.7,9.3,1.7,13.6,3.6c2.6,1.2,5,2.7,7.2,4.5L0,0z"/>
				</g>
				<g id="g68" transform="translate(306.9513,226.0231)">
					<path id="path70" class="st2" d="M0,0c0-0.1-32.4-0.3-72.4-0.3c-40,0-72.4,0.1-72.4,0.3c0,0.1,32.4,0.3,72.4,0.3
						C-32.4,0.3,0,0.1,0,0"/>
				</g>
				<g id="g72" transform="translate(322.4615,219.3913)">
					<path id="path74" class="st2" d="M0,0c0-0.1-12.6-0.3-28.2-0.3c-15.6,0-28.2,0.1-28.2,0.3c0,0.1,12.6,0.3,28.2,0.3
						C-12.6,0.3,0,0.1,0,0"/>
				</g>
				<g id="g76" transform="translate(160.6471,64.2321)">
					<path id="path78" class="st2" d="M0,0c0-0.1-25.4-0.3-56.7-0.3c-31.3,0-56.7,0.1-56.7,0.3c0,0.1,25.4,0.3,56.7,0.3
						C-25.4,0.3,0,0.1,0,0"/>
				</g>
				<g id="g80" transform="translate(170.4542,58.278)">
					<path id="path82" class="st2" d="M0,0c0-0.1-12.2-0.3-27.3-0.3c-15.1,0-27.3,0.1-27.3,0.3c0,0.1,12.2,0.3,27.3,0.3
						C-12.2,0.3,0,0.1,0,0"/>
				</g>
				<g id="g84" transform="translate(318.7408,452.8444)">
					<path id="path86" class="st2" d="M0,0c0,0-0.4,0.1-1.2,0.3C-2,0.4-3.1,0.6-4.5,0.4c-1.4-0.2-3-0.8-4.4-1.9
						c-1.4-1.2-2.6-2.9-3.1-5l0-0.1l-0.2-0.7l-0.3,0.7c-0.8,2-2.2,3.5-3.8,4.6c-1.5,1-3.2,1.5-4.6,1.6c-2.8,0.2-4.5-0.7-4.5-0.6
						c0,0,0.4,0.2,1.1,0.5c0.8,0.2,1.9,0.5,3.4,0.4c1.4-0.1,3.2-0.5,4.8-1.5c1.6-1,3.1-2.7,4-4.8l-0.5,0l0,0.1
						c0.5,2.2,1.8,4,3.3,5.2C-7.8,0-6,0.5-4.6,0.7c1.5,0.2,2.6,0,3.4-0.2C-0.4,0.2,0,0,0,0"/>
				</g>
				<g id="g88" transform="translate(192.0968,458.4108)">
					<path id="path90" class="st2" d="M0,0c0,0-0.4-0.4-1-1.2C-1.7-1.9-2.5-3-3.5-4.5c-1.9-2.9-3.7-7.6-3.7-13c0-0.1,0-0.1,0-0.2
						l-0.5,0c-0.8,5.3-3.6,9.5-6,12C-16.1-3.3-18-2.3-18-2.2c0,0,0.1,0,0.4-0.2c0.2-0.1,0.6-0.3,1-0.6c0.8-0.5,2-1.4,3.3-2.6
						c1.3-1.2,2.6-2.9,3.8-4.9c1.1-2,2.1-4.5,2.5-7.2l-0.5,0c0,0.1,0,0.1,0,0.2C-7.7-12.1-5.7-7.3-3.7-4.3c1,1.5,1.9,2.6,2.6,3.3
						c0.3,0.4,0.6,0.6,0.8,0.8C-0.1-0.1,0,0,0,0"/>
				</g>
			</g>
		</g>
	</g>
	<g id="g92">
		<g>
			<defs>
				<rect id="SVGID_3_" x="-125" y="-83.3" width="1000" height="666.7"/>
			</defs>
			<clipPath id="SVGID_4_">
				<use xlink:href="#SVGID_3_"  style="overflow:visible;"/>
			</clipPath>
			<g id="g94" class="st6">
				<g id="g100" transform="translate(204.6246,412.2062)">
					<path id="path102" class="st3" d="M0,0l1.9,3.1c15.9,26.2,44.6,42,74.9,40c3.9-0.2,7.8-0.8,11.6-1.6
						c27.5-5.9,51.5-26.7,61.4-53.4c5.8-15.7,7.5-33.7,18.6-46.2c14.4-16.2,38.9-16.7,60.4-16c21.5,0.7,50.6-1.1,64.9-17.3
						c9-10.2,21.2-22.9,21.2-46.3L7.5-137.9C-20.6-96-22.4-45.3,0,0"/>
				</g>
				<g id="g104" transform="translate(492.7848,411.0768)">
					<path id="path106" class="st3" d="M0,0c0-20.7-16.8-37.5-37.5-37.5C-58.2-37.5-75-20.7-75,0c0,20.7,16.8,37.5,37.5,37.5
						C-16.8,37.5,0,20.7,0,0"/>
				</g>
			</g>
		</g>
	</g>
	<g id="g108">
		<g>
			<defs>
				<rect id="SVGID_5_" x="-125" y="-83.3" width="1000" height="666.7"/>
			</defs>
			<clipPath id="SVGID_6_">
				<use xlink:href="#SVGID_5_"  style="overflow:visible;"/>
			</clipPath>
			<g id="g110" class="st7">
				<g id="g116" transform="translate(495.3834,67.2858)">
					<path id="path118" class="st8" d="M0,0l-12.4-1.3l9.6,5.5l-16.1,23.9l-12.6,1.2l10.2,2.4L-57,84.8h-147.3l-1.6-2.4l4.5-2.1
						l-6.1-1.1c0,0,2.4-1.5,2.8-1.5c0.4,0-5.7-2.2-5.7-2.2l-17.3-26.6l4.2-1.6l-7.3-3.2l-63.9-98.5H36.6L0,0z"/>
				</g>
				<g id="g120" transform="translate(447.4967,138.36)">
					<path id="path122" class="st9" d="M0,0c0-0.1-37-0.3-82.6-0.3c-45.6,0-82.6,0.1-82.6,0.3c0,0.1,37,0.3,82.6,0.3
						C-37,0.3,0,0.1,0,0"/>
				</g>
				<g id="g124" transform="translate(458.6207,122.3688)">
					<path id="path126" class="st9" d="M0,0c0-0.1-41.8-0.3-93.3-0.3c-51.6,0-93.3,0.1-93.3,0.3s41.8,0.3,93.3,0.3
						C-41.8,0.3,0,0.1,0,0"/>
				</g>
				<g id="g128" transform="translate(469.8024,105.3337)">
					<path id="path130" class="st9" d="M0,0c0-0.1-46.6-0.3-104.1-0.3c-57.5,0-104.2,0.1-104.2,0.3c0,0.1,46.6,0.3,104.2,0.3
						C-46.6,0.3,0,0.1,0,0"/>
				</g>
				<g id="g132" transform="translate(482.9567,85.1706)">
					<path id="path134" class="st9" d="M0,0c0-0.1-52.8-0.3-117.8-0.3c-65.1,0-117.9,0.1-117.9,0.3s52.8,0.3,117.9,0.3
						C-52.8,0.3,0,0.1,0,0"/>
				</g>
				<g id="g136" transform="translate(499.4186,61.2829)">
					<path id="path138" class="st9" d="M0,0c0-0.1-59.5-0.1-132.9,0c-73.4,0.2-132.9,0.4-132.9,0.6c0,0.1,59.5,0.1,132.9,0
						C-59.5,0.4,0,0.1,0,0"/>
				</g>
				<g id="g140" transform="translate(514.5924,37.5427)">
					<path id="path142" class="st9" d="M0,0c0-0.1-66.5-0.3-148.6-0.3c-82.1,0-148.6,0.1-148.6,0.3s66.5,0.3,148.6,0.3
						C-66.5,0.3,0,0.1,0,0"/>
				</g>
				<g id="g144" transform="translate(531.9742,12.86)">
					<path id="path146" class="st9" d="M0,0c0-0.1-74.2-0.3-165.6-0.3c-91.5,0-165.7,0.1-165.7,0.3s74.2,0.3,165.7,0.3
						C-74.2,0.3,0,0.1,0,0"/>
				</g>
				<g id="g148" transform="translate(286.5807,118.4352)">
					<path id="path150" class="st9" d="M0,0c0-0.1-0.2-0.1-0.6-0.1s-0.6,0-0.6,0.1s0.2,0.1,0.6,0.1S0,0.1,0,0"/>
				</g>
				<g id="g152" transform="translate(331.4122,119.5378)">
					<path id="path154" class="st9" d="M0,0c0-0.1-8.4-0.1-18.7-0.1c-10.4,0-18.7,0-18.7,0.1s8.4,0.1,18.7,0.1C-8.4,0.1,0,0.1,0,0"
						/>
				</g>
				<g id="g156" transform="translate(335.4542,116.2311)">
					<path id="path158" class="st9" d="M0,0c0-0.1-8.3-0.1-18.6-0.1c-10.3,0-18.6,0-18.6,0.1s8.3,0.1,18.6,0.1C-8.3,0.1,0,0.1,0,0"
						/>
				</g>
				<g id="g160" transform="translate(445.3278,113.2907)">
					<path id="path162" class="st9" d="M0,0c0-0.1-5.3-0.1-11.8-0.1c-6.5,0-11.8,0-11.8,0.1c0,0.1,5.3,0.1,11.8,0.1
						C-5.3,0.1,0,0.1,0,0"/>
				</g>
				<g id="g164" transform="translate(459.4821,92.4997)">
					<path id="path166" class="st9" d="M0,0c0,0-0.4,0-1.3-0.1C-2.2-0.1-3.4-0.2-5-0.3c-3.2,0-7.9-0.1-13.7,0.5
						c-5.8,0.5-12.6,1.5-20.2,2.7c-7.6,1.2-15.9,2.6-24.7,3.2C-72.5,6.7-81,6.3-88.5,4.8c-7.5-1.4-14.1-3.6-19.6-5.4
						c-5.5-1.9-9.8-3.6-12.9-4.8c-1.5-0.6-2.7-1-3.5-1.4c-0.8-0.3-1.2-0.5-1.2-0.5s0.4,0.2,1.2,0.5c0.8,0.3,2,0.8,3.5,1.4
						c3,1.2,7.4,2.9,12.8,4.9c5.5,1.9,12.1,4,19.6,5.5c7.5,1.5,16,2,24.9,1.4c8.8-0.6,17.2-2,24.7-3.2c7.6-1.2,14.4-2.2,20.2-2.8
						C-13-0.3-8.3-0.2-5-0.2C-3.4-0.2-2.2-0.1-1.3,0C-0.4,0,0,0,0,0"/>
				</g>
				<g id="g168" transform="translate(453.6412,47.9186)">
					<path id="path170" class="st9" d="M0,0c0-0.1-49.6-0.1-110.8-0.1c-61.2,0-110.8,0-110.8,0.1s49.6,0.1,110.8,0.1
						C-49.6,0.1,0,0.1,0,0"/>
				</g>
				<g id="g172" transform="translate(504.5319,49.8141)">
					<path id="path174" class="st9" d="M0,0c0-0.1-21.5-0.1-48.1-0.1c-26.6,0-48.1,0-48.1,0.1s21.5,0.1,48.1,0.1
						C-21.5,0.1,0,0.1,0,0"/>
				</g>
				<g id="g176" transform="translate(409.899,24.613)">
					<path id="path178" class="st9" d="M0,0c0-0.1-42.7-0.1-95.4-0.1c-52.7,0-95.4,0-95.4,0.1s42.7,0.1,95.4,0.1
						C-42.7,0.1,0,0.1,0,0"/>
				</g>
				<g id="g180" transform="translate(523.0358,26.1559)">
					<path id="path182" class="st9" d="M0,0c0-0.1-36.6-0.1-81.8-0.1c-45.2,0-81.8,0-81.8,0.1s36.6,0.1,81.8,0.1
						C-36.6,0.1,0,0.1,0,0"/>
				</g>
				<g id="g184" transform="translate(479.8444,74.5007)">
					<path id="path186" class="st9" d="M0,0c0-0.1-30.3-0.1-67.6-0.1c-37.4,0-67.6,0-67.6,0.1s30.3,0.1,67.6,0.1
						C-30.3,0.1,0,0.1,0,0"/>
				</g>
				<g id="g188" transform="translate(348.6969,96.6159)">
					<path id="path190" class="st9" d="M0,0c0-0.1-19.1-0.1-42.7-0.1c-23.6,0-42.7,0-42.7,0.1s19.1,0.1,42.7,0.1
						C-19.1,0.1,0,0.1,0,0"/>
				</g>
				<g id="g192" transform="translate(408.3561,113.5876)">
					<path id="path194" class="st9" d="M0,0c0-0.1-12.3-0.1-27.5-0.1C-42.7-0.1-55-0.1-55,0s12.3,0.1,27.5,0.1C-12.3,0.1,0,0.1,0,0"
						/>
				</g>
				<g id="g196" transform="translate(443.3287,128.5026)">
					<path id="path198" class="st9" d="M0,0c0-0.1-17.7-0.1-39.6-0.1c-21.9,0-39.6,0-39.6,0.1s17.7,0.1,39.6,0.1
						C-17.7,0.1,0,0.1,0,0"/>
				</g>
				<g id="g200" transform="translate(339.4396,147.0173)">
					<path id="path202" class="st9" d="M0,0c0-0.1-9-0.1-20.1-0.1c-11.1,0-20.1,0-20.1,0.1s9,0.1,20.1,0.1C-9,0.1,0,0.1,0,0"/>
				</g>
				<g id="g204" transform="translate(262.6578,63.8015)">
					<path id="path206" class="st9" d="M0,0c0,0,0,0.2,0,0.5c0,0.3,0.1,0.8,0.3,1.4C0.7,3,1.8,4.5,3.5,6c3.5,3,9.2,6.9,17,9.6
						c7.8,2.8,17.8,4.4,28.8,3.6c1.4-0.1,2.8-0.3,4.1-0.4c1.4-0.2,2.8-0.4,4.2-0.7c1.4-0.3,2.8-0.7,4.2-1.4c1.3-0.7,2.5-1.8,3.1-3.1
						c0.7-1.4,0.7-3.1,0-4.4c-0.7-1.4-2-2.4-3.3-3.2c-1.3-0.8-2.8-1.4-4.2-2c-0.7-0.3-1.5-0.6-2.2-0.8C54.5,3,53.7,2.7,53,2.5
						c-6.1-1.9-12.3-2.7-18.3-2.7c-3,0-5.9,0.3-8.8,0.7c-1.4,0.2-2.8,0.5-4.2,0.8c-0.7,0.2-1.4,0.4-1.9,1c-0.5,0.5-0.6,1.4-0.3,2
						c0.6,1.3,1.9,2.1,3,2.7c1.2,0.7,2.4,1.2,3.6,1.7c2.4,1,4.9,1.7,7.3,2.1c4.8,0.9,9.4,0.7,13.5-0.1c0.5-0.1,1-0.2,1.5-0.4
						c0.5-0.2,0.9-0.6,1-1.1c0.2-0.5,0-1-0.3-1.4c-0.3-0.4-0.7-0.7-1.1-0.9c-0.8-0.5-1.7-0.7-2.6-0.9c-0.9-0.2-1.7-0.4-2.5-0.5
						c-3.2-0.6-6.1-1-8.4-1.2c-2.3-0.2-4.1-0.2-5.3-0.2c-1.2,0-1.9,0-1.9,0c0.3,0,0.8,0,1.9,0c1.2,0,3,0.1,5.3,0.3
						C36.9,4.6,39.7,5,43,5.6c0.8,0.2,1.6,0.3,2.5,0.5C46.3,6.4,47.2,6.5,48,7c0.4,0.2,0.8,0.5,1.1,0.9c0.3,0.4,0.4,0.9,0.3,1.3
						c-0.1,0.5-0.5,0.8-1,1c-0.4,0.2-0.9,0.3-1.5,0.4c-4.1,0.8-8.7,0.9-13.5,0.1c-2.4-0.4-4.8-1.1-7.2-2.1c-1.2-0.5-2.4-1-3.6-1.7
						c-1.2-0.6-2.4-1.4-2.9-2.6C19.5,3.7,19.6,3,20,2.5c0.4-0.5,1.1-0.8,1.8-0.9c1.4-0.3,2.8-0.6,4.2-0.8C28.8,0.3,31.7,0,34.7,0
						c6,0,12.1,0.8,18.2,2.7c0.8,0.2,1.5,0.5,2.2,0.7c0.7,0.3,1.5,0.6,2.2,0.8c1.4,0.6,2.9,1.2,4.2,2C62.8,7,64.1,8,64.8,9.3
						c0.7,1.3,0.7,2.9,0,4.3c-0.6,1.3-1.8,2.4-3,3c-1.3,0.7-2.7,1.1-4.1,1.3c-1.4,0.3-2.8,0.4-4.2,0.7c-1.4,0.2-2.8,0.3-4.1,0.4
						c-10.9,0.8-20.9-0.7-28.7-3.5C12.8,12.8,7.1,8.9,3.6,6C1.8,4.5,0.8,3,0.4,1.8C0.1,1.2,0.1,0.8,0,0.5C0,0.2,0,0,0,0"/>
				</g>
				<g id="g208" transform="translate(280.7242,106.7809)">
					<path id="path210" class="st9" d="M0,0c-4-1.2-7.9-1.3-11.5,0v36.3c4.2,2.1,8,1.9,11.5,0V0z"/>
				</g>
				<g id="g212" transform="translate(280.7408,143.027)">
					<path id="path214" class="st8" d="M0,0c0,0-0.1-0.1-0.4-0.2c-0.3-0.1-0.7-0.3-1.2-0.5C-2.6-1-4-1.3-5.6-1.3
						c-1.6,0-3.1,0.2-4.1,0.6c-0.5,0.2-0.9,0.3-1.2,0.4c-0.3,0.1-0.4,0.2-0.4,0.2c0,0,0.6-0.2,1.6-0.5c1-0.3,2.4-0.5,4-0.5
						c1.6,0,3,0.3,4,0.6C-0.6-0.2,0,0,0,0"/>
				</g>
				<g id="g216" transform="translate(278.7726,143.3229)">
					<path id="path218" class="st8" d="M0,0c0,0-0.1-0.2-0.5-0.4c-0.4-0.2-0.9-0.3-1.6-0.4c-0.7-0.1-1.5-0.2-2.4-0.1
						c-0.5,0-0.9,0.1-1.4,0.1c-0.2,0.1-0.5,0.1-0.7,0.4c-0.2,0.3,0,0.7,0.3,0.8c0.5,0.2,1,0.2,1.6,0.2c0.5,0,1,0,1.4-0.1
						c0.2,0,0.5-0.1,0.7-0.1c0.2-0.1,0.5-0.1,0.6-0.4C-2-0.1-2.2-0.4-2.4-0.4c-0.2,0-0.4,0-0.6,0c-0.6,0-1.1,0.1-1.6,0.1
						c-0.4,0-0.6,0-0.6,0.1c0,0,0.2,0,0.6,0c0.5,0,1.1,0,1.6,0c0.2,0,0.4,0,0.5,0c0.2,0,0.3,0.2,0.2,0.3C-2.5,0.3-3,0.4-3.4,0.4
						c-0.9,0.1-1.9,0.1-2.9-0.2c-0.2-0.1-0.3-0.3-0.2-0.5c0.1-0.2,0.3-0.3,0.6-0.3c0.5-0.1,1-0.1,1.4-0.2c0.9-0.1,1.7,0,2.4,0.1
						c0.7,0.1,1.2,0.2,1.6,0.3C-0.2-0.1,0,0,0,0"/>
				</g>
				<g id="g220" transform="translate(268.882,121.0339)">
					<path id="path222" class="st8" d="M0,0c0,0,0,0.1,0,0.2c0,0.2,0.1,0.4,0.1,0.6c0.1,0.7,0.2,1.4,0.4,2.2C0.8,5,1.3,7.6,1.7,10.5
						c0.5,2.9,0.8,5.5,1.1,7.4c0.1,0.9,0.2,1.6,0.3,2.2c0,0.2,0.1,0.4,0.1,0.6c0,0.1,0,0.2,0,0.2c0,0,0-0.1,0-0.2
						c0-0.2,0-0.4-0.1-0.6c-0.1-0.7-0.2-1.4-0.2-2.3c-0.2-1.9-0.6-4.5-1-7.4C1.5,7.5,1,4.9,0.7,3C0.5,2.2,0.3,1.5,0.2,0.8
						c0-0.2-0.1-0.4-0.1-0.6C0,0.1,0,0,0,0"/>
				</g>
				<g id="g224" transform="translate(280.545,137.1657)">
					<path id="path226" class="st8" d="M0,0c0,0-0.3,0.2-0.8,0.3C-1.3,0.4-2.2,0.4-3-0.1c-0.9-0.5-1.6-1.4-2.3-2.5
						C-6-3.7-6.7-5-7.3-6.4c-1.2-2.8-2-5.4-2.5-7.3c-0.2-0.9-0.5-1.6-0.6-2.3c-0.1-0.2-0.1-0.4-0.2-0.6c0-0.1-0.1-0.2-0.1-0.2
						c0,0,0,0.1,0,0.2c0,0.2,0.1,0.4,0.1,0.6c0.2,0.7,0.4,1.4,0.6,2.3c0.5,1.9,1.3,4.6,2.5,7.4c0.6,1.4,1.3,2.7,2,3.8
						C-4.8-1.4-4-0.4-3.1,0.1c0.9,0.5,1.8,0.5,2.3,0.3C-0.2,0.2,0,0,0,0"/>
				</g>
				<g id="g228" transform="translate(276.7345,117.7819)">
					<path id="path230" class="st8" d="M0,0c0,0,0.2-0.1,0.3-0.5c0.1-0.4,0.1-1.1-0.5-1.6C-0.8-2.5-2-2.4-2.7-1.5
						c-0.7,0.9-0.7,2.2-0.4,3.5c0.2,0.7,0.3,1.3,0.6,2c0.3,0.7,0.8,1.4,1.6,1.6C-0.1,6,0.8,5.5,1.3,4.9c0.6-0.7,0.9-1.5,1.3-2.3
						C3.2,0.9,3.3-1.1,2.9-3C2.4-4.9,1.4-6.8-0.3-8c-0.8-0.6-1.9-1-3-0.7c-1,0.3-1.7,1.2-2.1,2.1c-0.4,0.9-0.4,1.9-0.3,2.9
						C-5.7-2.8-5.5-1.9-5.4-1c0.5,3.5,1.5,6.6,2.8,9c1.3,2.4,2.9,3.9,4.1,4.9c1.2,0.9,2,1.2,2,1.2S3.4,14,3,13.8
						c-0.3-0.2-0.8-0.5-1.4-1c-1.2-0.9-2.7-2.5-4-4.9c-1.3-2.3-2.3-5.4-2.8-9c-0.1-0.9-0.3-1.8-0.3-2.7c-0.1-0.9,0-1.9,0.3-2.8
						c0.3-0.9,1-1.7,2-1.9c0.9-0.3,2,0.1,2.8,0.6c1.7,1.2,2.7,3,3.1,4.9C3.1-1.1,3,0.9,2.4,2.5C2.1,3.3,1.7,4.1,1.2,4.8
						C0.7,5.4-0.1,5.8-0.9,5.6C-1.6,5.3-2.1,4.7-2.4,4C-2.6,3.4-2.8,2.7-3,2c-0.3-1.3-0.3-2.6,0.4-3.4C-2-2.3-0.8-2.4-0.2-2
						c0.6,0.4,0.6,1.1,0.5,1.5C0.2-0.1,0,0,0,0"/>
				</g>
				<g id="g232" transform="translate(464.2457,108.7175)">
					<path id="path234" class="st9" d="M0,0c-4-1.2-7.9-1.3-11.5,0v36.3c4.2,2.1,8,1.9,11.5,0V0z"/>
				</g>
				<g id="g236" transform="translate(464.2633,144.9636)">
					<path id="path238" class="st8" d="M0,0c0,0-0.1-0.1-0.4-0.2c-0.3-0.1-0.7-0.3-1.2-0.5C-2.6-1-4-1.3-5.6-1.3
						c-1.6,0-3.1,0.2-4.1,0.6c-0.5,0.2-0.9,0.3-1.2,0.4c-0.3,0.1-0.4,0.2-0.4,0.2c0,0,0.6-0.2,1.6-0.5c1-0.3,2.4-0.5,4-0.5
						c1.6,0,3,0.3,4,0.6C-0.6-0.2,0,0,0,0"/>
				</g>
				<g id="g240" transform="translate(462.2946,145.2595)">
					<path id="path242" class="st8" d="M0,0c0,0-0.1-0.2-0.5-0.4c-0.4-0.2-0.9-0.3-1.6-0.4c-0.7-0.1-1.5-0.2-2.4-0.1
						c-0.5,0-0.9,0.1-1.4,0.1c-0.2,0.1-0.5,0.1-0.7,0.4c-0.2,0.3,0,0.7,0.3,0.8c0.5,0.2,1.1,0.2,1.6,0.2c0.5,0,1,0,1.4-0.1
						c0.2,0,0.5-0.1,0.7-0.1c0.2-0.1,0.5-0.1,0.6-0.4C-2-0.1-2.2-0.4-2.4-0.4c-0.2,0-0.4,0-0.6,0c-0.6,0-1.1,0.1-1.6,0.1
						c-0.4,0-0.6,0-0.6,0.1c0,0,0.2,0,0.6,0c0.5,0,1.1,0,1.6,0c0.2,0,0.4,0,0.5,0c0.2,0,0.3,0.2,0.2,0.3C-2.5,0.3-3,0.4-3.4,0.4
						c-0.9,0.1-1.9,0.1-2.9-0.2c-0.2-0.1-0.3-0.3-0.2-0.5c0.1-0.2,0.4-0.3,0.6-0.3c0.5-0.1,1-0.1,1.4-0.2c0.9,0,1.7,0,2.4,0.1
						c0.7,0.1,1.2,0.2,1.6,0.3C-0.2-0.1,0,0,0,0"/>
				</g>
				<g id="g244" transform="translate(452.4039,122.9704)">
					<path id="path246" class="st8" d="M0,0c0,0,0,0.1,0,0.2c0,0.2,0.1,0.4,0.1,0.6c0.1,0.7,0.2,1.4,0.4,2.2C0.8,5,1.3,7.6,1.7,10.5
						c0.5,2.9,0.8,5.5,1.1,7.4c0.1,0.9,0.2,1.6,0.3,2.2c0,0.2,0.1,0.4,0.1,0.6c0,0.1,0,0.2,0,0.2c0,0,0-0.1,0-0.2
						c0-0.2,0-0.4-0.1-0.6c-0.1-0.7-0.2-1.4-0.2-2.3c-0.2-1.9-0.6-4.5-1-7.4C1.5,7.5,1,4.9,0.7,3C0.5,2.2,0.3,1.5,0.2,0.8
						c0-0.2-0.1-0.4-0.1-0.6C0,0.1,0,0,0,0"/>
				</g>
				<g id="g248" transform="translate(464.067,139.1013)">
					<path id="path250" class="st8" d="M0,0c0,0-0.3,0.2-0.8,0.3C-1.3,0.4-2.2,0.4-3-0.1c-0.9-0.5-1.6-1.4-2.3-2.5
						C-6-3.7-6.7-5-7.3-6.4c-1.2-2.8-2-5.4-2.5-7.3c-0.2-0.9-0.5-1.6-0.6-2.3c-0.1-0.2-0.1-0.4-0.2-0.6c0-0.1-0.1-0.2-0.1-0.2
						c0,0,0,0.1,0,0.2c0,0.2,0.1,0.4,0.1,0.6c0.2,0.7,0.4,1.4,0.6,2.3c0.5,1.9,1.3,4.6,2.5,7.4c0.6,1.4,1.3,2.7,2,3.8
						C-4.8-1.4-4-0.4-3.1,0.1c0.9,0.5,1.8,0.5,2.3,0.3C-0.2,0.2,0,0,0,0"/>
				</g>
				<g id="g252" transform="translate(460.2565,119.7184)">
					<path id="path254" class="st8" d="M0,0c0,0,0.2-0.1,0.3-0.5c0.1-0.4,0.1-1.1-0.5-1.6C-0.8-2.5-2-2.4-2.7-1.5
						c-0.7,0.9-0.7,2.2-0.4,3.5c0.2,0.7,0.3,1.3,0.6,2c0.3,0.7,0.8,1.4,1.6,1.6C-0.1,6,0.8,5.5,1.3,4.9c0.6-0.7,0.9-1.5,1.3-2.3
						C3.2,0.9,3.3-1.1,2.9-3C2.4-4.9,1.4-6.8-0.3-8c-0.8-0.6-1.9-1-3-0.7c-1,0.3-1.7,1.2-2.1,2.1c-0.4,0.9-0.4,1.9-0.3,2.9
						C-5.7-2.8-5.5-1.9-5.4-1c0.5,3.5,1.5,6.6,2.8,9c1.3,2.4,2.9,3.9,4.1,4.9c1.2,0.9,2,1.2,2,1.2S3.4,14,3,13.8
						c-0.3-0.2-0.8-0.5-1.4-1c-1.2-0.9-2.7-2.5-4-4.9c-1.3-2.3-2.3-5.4-2.8-9c-0.1-0.9-0.3-1.8-0.3-2.7c-0.1-0.9,0-1.9,0.3-2.8
						c0.3-0.9,1-1.7,2-1.9c0.9-0.3,2,0.1,2.8,0.6c1.7,1.2,2.7,3,3.1,4.9C3.1-1.1,3,0.9,2.4,2.5C2.1,3.3,1.7,4.1,1.2,4.8
						C0.7,5.4-0.1,5.8-0.9,5.6C-1.6,5.3-2.1,4.7-2.4,4C-2.6,3.4-2.8,2.7-3,2c-0.3-1.3-0.3-2.6,0.4-3.4C-2-2.3-0.8-2.4-0.2-2
						c0.6,0.4,0.6,1.1,0.5,1.5C0.2-0.1,0,0,0,0"/>
				</g>
				<g id="g256" transform="translate(233.4425,32.3425)">
					<path id="path258" class="st9" d="M0,0c-4.5-1.4-8.8-1.5-12.9,0v40.5c4.7,2.3,8.9,2.1,12.9,0V0z"/>
				</g>
				<g id="g260" transform="translate(233.4616,72.8122)">
					<path id="path262" class="st8" d="M0,0c0,0-0.2-0.1-0.5-0.2c-0.3-0.1-0.7-0.3-1.3-0.5c-1.1-0.4-2.7-0.7-4.5-0.7
						c-1.8,0-3.4,0.3-4.5,0.6c-0.6,0.2-1,0.3-1.3,0.5c-0.3,0.1-0.5,0.2-0.5,0.2c0,0,0.7-0.2,1.8-0.5C-9.7-1-8.1-1.3-6.3-1.3
						c1.8,0,3.4,0.3,4.5,0.7C-0.7-0.3,0,0,0,0"/>
				</g>
				<g id="g264" transform="translate(231.2638,73.1423)">
					<path id="path266" class="st8" d="M0,0c0,0-0.1-0.2-0.5-0.4c-0.4-0.2-1-0.3-1.8-0.5C-3.1-1-4-1-5-1c-0.5,0-1,0.1-1.6,0.2
						c-0.3,0.1-0.6,0.1-0.8,0.4c-0.2,0.3,0,0.7,0.3,0.9c0.3,0.2,0.6,0.2,0.9,0.2c0.3,0,0.6,0.1,0.9,0.1c0.6,0,1.1,0,1.6-0.1
						c0.3,0,0.5-0.1,0.7-0.1c0.2-0.1,0.5-0.1,0.6-0.4c0.2-0.3-0.1-0.6-0.3-0.6c-0.2-0.1-0.4,0-0.6,0c-0.7,0-1.3,0.1-1.8,0.1
						c-0.4,0-0.7,0.1-0.7,0.1c0,0,0.2,0,0.7,0c0.6,0,1.2,0,1.8,0c0.2,0,0.4,0,0.6,0c0.2,0,0.3,0.2,0.2,0.4c-0.2,0.3-0.8,0.3-1.3,0.4
						c-0.5,0.1-1,0.1-1.6,0.1c-0.5,0-1.2,0-1.6-0.3c-0.2-0.1-0.4-0.4-0.2-0.6c0.1-0.2,0.4-0.3,0.7-0.3C-6.1-0.7-5.5-0.8-5-0.8
						c1-0.1,1.9,0,2.7,0.1C-1.6-0.6-1-0.5-0.6-0.3C-0.2-0.2,0,0,0,0"/>
				</g>
				<g id="g268" transform="translate(220.2204,48.2565)">
					<path id="path270" class="st8" d="M0,0c0,0,0,0.1,0,0.2c0,0.2,0.1,0.4,0.1,0.7c0.1,0.7,0.3,1.5,0.4,2.5C1,5.5,1.5,8.4,2,11.7
						c0.5,3.2,0.9,6.2,1.2,8.3c0.1,1,0.2,1.8,0.3,2.5c0,0.2,0.1,0.5,0.1,0.7c0,0.2,0,0.2,0,0.2c0,0,0-0.1,0-0.2c0-0.2,0-0.4-0.1-0.7
						c-0.1-0.7-0.2-1.6-0.3-2.5c-0.2-2.1-0.6-5.1-1.1-8.3c-0.5-3.2-1-6.1-1.4-8.2c-0.2-1-0.4-1.8-0.5-2.5C0.2,0.7,0.1,0.4,0.1,0.2
						C0,0.1,0,0,0,0"/>
				</g>
				<g id="g272" transform="translate(233.2428,66.2673)">
					<path id="path274" class="st8" d="M0,0c0,0-0.3,0.2-0.9,0.4c-0.6,0.1-1.5,0.1-2.5-0.4c-1-0.5-1.8-1.6-2.6-2.8
						c-0.8-1.2-1.5-2.7-2.2-4.2c-1.4-3.1-2.2-6-2.8-8.2c-0.3-1-0.5-1.8-0.7-2.5c-0.1-0.2-0.1-0.5-0.2-0.7c0-0.2-0.1-0.2-0.1-0.2
						c0,0,0,0.1,0,0.2c0.1,0.2,0.1,0.4,0.2,0.7c0.2,0.7,0.4,1.6,0.6,2.5c0.6,2.1,1.4,5.1,2.8,8.2c0.7,1.6,1.4,3,2.2,4.2
						C-5.3-1.6-4.4-0.5-3.4,0c1,0.6,2,0.5,2.6,0.4C-0.3,0.3,0,0,0,0"/>
				</g>
				<g id="g276" transform="translate(228.9879,44.6257)">
					<path id="path278" class="st8" d="M0,0c0,0,0.2-0.1,0.4-0.6C0.5-1,0.5-1.8-0.2-2.3c-0.7-0.5-2-0.4-2.8,0.6
						c-0.8,1-0.8,2.5-0.4,4C-3.3,3-3.1,3.8-2.8,4.6C-2.5,5.3-1.9,6.1-1,6.4c0.4,0.1,0.9,0.1,1.4-0.1c0.4-0.2,0.8-0.5,1.1-0.9
						c0.6-0.7,1-1.6,1.4-2.6C3.5,1,3.7-1.2,3.2-3.3C2.7-5.4,1.5-7.6-0.4-8.9C-1.3-9.6-2.5-10-3.7-9.6C-4.8-9.3-5.6-8.4-6-7.3
						c-0.4,1-0.4,2.1-0.4,3.2c0.1,1,0.2,2.1,0.4,3c0.6,3.9,1.7,7.4,3.2,10c1.5,2.6,3.2,4.4,4.6,5.4c1.3,1,2.2,1.4,2.2,1.4
						s-0.2-0.1-0.6-0.3c-0.4-0.2-0.9-0.6-1.6-1.1c-1.3-1-3.1-2.8-4.5-5.4c-1.5-2.6-2.5-6.1-3.1-10c-0.1-1-0.3-2-0.4-3
						c-0.1-1,0-2.1,0.4-3.1c0.4-1,1.2-1.9,2.2-2.2c1.1-0.3,2.2,0.1,3.1,0.7c1.9,1.3,3,3.4,3.5,5.5C3.5-1.2,3.3,1,2.7,2.8
						C2.3,3.7,1.9,4.6,1.3,5.3C0.8,6-0.1,6.5-1,6.2c-0.8-0.3-1.4-1-1.7-1.7C-3,3.8-3.1,3-3.3,2.3c-0.4-1.4-0.3-2.9,0.4-3.8
						c0.7-1,2-1.1,2.7-0.6C0.4-1.7,0.5-1,0.3-0.6C0.2-0.1,0,0,0,0"/>
				</g>
				<g id="g280" transform="translate(508.5875,32.3249)">
					<path id="path282" class="st9" d="M0,0c-4.4-1.3-8.7-1.5-12.7,0v39.8c4.6,2.3,8.8,2.1,12.7,0V0z"/>
				</g>
				<g id="g284" transform="translate(508.6061,72.1266)">
					<path id="path286" class="st8" d="M0,0c0,0-0.2-0.1-0.4-0.2c-0.3-0.1-0.7-0.3-1.3-0.5c-1.1-0.4-2.7-0.7-4.5-0.7
						c-1.8,0-3.4,0.3-4.5,0.6c-0.6,0.2-1,0.3-1.3,0.5c-0.3,0.1-0.5,0.2-0.5,0.2c0,0,0.7-0.2,1.8-0.5C-9.5-1-7.9-1.3-6.2-1.2
						c1.8,0,3.3,0.3,4.4,0.7C-0.7-0.3,0,0,0,0"/>
				</g>
				<g id="g288" transform="translate(506.4449,72.4509)">
					<path id="path290" class="st8" d="M0,0c0,0-0.1-0.2-0.5-0.4c-0.4-0.2-1-0.3-1.7-0.5C-3-1-3.9-1-4.9-1c-0.5,0-1,0.1-1.6,0.2
						c-0.3,0.1-0.6,0.1-0.8,0.4c-0.2,0.3,0,0.7,0.3,0.9c0.3,0.2,0.6,0.2,0.9,0.2c0.3,0,0.6,0.1,0.8,0.1c0.6,0,1.1,0,1.6-0.1
						c0.3,0,0.5-0.1,0.7-0.1c0.2-0.1,0.5-0.1,0.6-0.4c0.2-0.3-0.1-0.6-0.3-0.6c-0.2-0.1-0.4,0-0.6,0c-0.7,0-1.2,0.1-1.8,0.1
						c-0.4,0-0.7,0.1-0.7,0.1c0,0,0.2,0,0.7,0c0.5,0,1.1,0,1.8,0c0.2,0,0.4,0,0.6,0c0.2,0,0.3,0.2,0.2,0.3c-0.2,0.3-0.8,0.3-1.2,0.4
						c-0.5,0.1-1,0.1-1.6,0.1c-0.5,0-1.1,0-1.6-0.2c-0.2-0.1-0.4-0.4-0.2-0.6C-7-0.5-6.7-0.6-6.5-0.6C-6-0.7-5.4-0.8-4.9-0.8
						c1-0.1,1.9,0,2.6,0.1c0.7,0.1,1.3,0.2,1.7,0.4C-0.2-0.2,0,0,0,0"/>
				</g>
				<g id="g292" transform="translate(495.5836,47.9753)">
					<path id="path294" class="st8" d="M0,0c0,0,0,0.1,0,0.2c0,0.2,0.1,0.4,0.1,0.7c0.1,0.7,0.3,1.5,0.4,2.5
						c0.4,2.1,0.9,4.9,1.4,8.1s0.9,6.1,1.2,8.1c0.1,0.9,0.2,1.8,0.3,2.5c0,0.2,0.1,0.5,0.1,0.7c0,0.2,0,0.2,0,0.2c0,0,0-0.1,0-0.2
						c0-0.2,0-0.4-0.1-0.7c-0.1-0.7-0.2-1.5-0.3-2.5c-0.2-2.1-0.6-5-1.1-8.2c-0.5-3.2-1-6-1.4-8.1C0.5,2.4,0.4,1.6,0.2,0.9
						C0.2,0.7,0.1,0.4,0.1,0.2C0,0.1,0,0,0,0"/>
				</g>
				<g id="g296" transform="translate(508.3903,65.6891)">
					<path id="path298" class="st8" d="M0,0c0,0-0.3,0.2-0.9,0.3c-0.6,0.1-1.5,0.1-2.4-0.4c-0.9-0.5-1.8-1.6-2.5-2.8
						C-6.6-4.1-7.3-5.5-8-7c-1.3-3-2.2-5.9-2.8-8c-0.3-1-0.5-1.8-0.7-2.5c-0.1-0.2-0.1-0.5-0.2-0.7c0-0.2-0.1-0.2-0.1-0.2
						c0,0,0,0.1,0,0.2c0,0.2,0.1,0.4,0.2,0.7c0.2,0.7,0.4,1.5,0.6,2.5c0.6,2.1,1.4,5,2.7,8.1C-7.5-5.4-6.8-4-6-2.8
						C-5.2-1.5-4.4-0.5-3.4,0c1,0.5,1.9,0.5,2.5,0.4C-0.2,0.3,0,0,0,0"/>
				</g>
				<g id="g300" transform="translate(504.2067,44.405)">
					<path id="path302" class="st8" d="M0,0c0,0,0.2-0.1,0.4-0.5c0.1-0.4,0.1-1.2-0.6-1.7c-0.7-0.5-2-0.4-2.7,0.6
						c-0.8,1-0.8,2.5-0.4,3.9C-3.2,3-3.1,3.7-2.8,4.5C-2.5,5.2-1.9,6-1,6.3c0.4,0.1,0.9,0.1,1.4-0.1C0.8,6,1.1,5.7,1.4,5.3
						c0.6-0.7,1-1.6,1.4-2.5c0.7-1.9,0.8-4,0.3-6.1C2.6-5.3,1.5-7.4-0.4-8.8c-0.9-0.6-2.1-1-3.2-0.7c-1.1,0.3-1.9,1.3-2.3,2.3
						c-0.4,1-0.4,2.1-0.4,3.1c0.1,1,0.2,2,0.4,3c0.6,3.9,1.7,7.3,3.1,9.9c1.4,2.6,3.2,4.3,4.5,5.3c1.3,1,2.2,1.4,2.2,1.4
						s-0.2-0.1-0.6-0.3c-0.4-0.2-0.9-0.6-1.6-1.1c-1.3-1-3-2.7-4.4-5.3c-1.4-2.6-2.5-6-3.1-9.8c-0.1-1-0.3-2-0.4-3
						c-0.1-1,0-2.1,0.4-3c0.4-1,1.1-1.8,2.2-2.1c1-0.3,2.2,0.1,3.1,0.7c1.8,1.3,2.9,3.3,3.4,5.4c0.5,2.1,0.4,4.2-0.3,6
						C2.3,3.7,1.9,4.5,1.3,5.2C0.7,5.9-0.1,6.4-1,6.1c-0.8-0.3-1.4-1-1.6-1.7c-0.3-0.7-0.5-1.5-0.6-2.2c-0.4-1.4-0.3-2.8,0.4-3.8
						c0.7-0.9,1.9-1.1,2.6-0.6c0.7,0.5,0.7,1.3,0.6,1.6C0.2-0.1,0,0,0,0"/>
				</g>
				<g id="g304" transform="translate(474.0524,99.0134)">
					<path id="path306" class="st9" d="M0,0v-3.4l-9.8,1.1L0,0z"/>
				</g>
				<g id="g308" transform="translate(492.5612,71.4831)">
					<path id="path310" class="st9" d="M0,0v-4.5l-9.4-0.8L0,0z"/>
				</g>
				<g id="g312" transform="translate(289.4625,149.7087)">
					<path id="path314" class="st9" d="M0,0v-2.9l4.5,0.8L0,0z"/>
				</g>
				<g id="g316" transform="translate(287.8585,146.4763)">
					<path id="path318" class="st9" d="M0,0v-2.6l2.8,1.1L0,0z"/>
				</g>
			</g>
		</g>
	</g>
	<g id="g320">
		<g>
			<defs>
				<rect id="SVGID_7_" x="-125" y="-83.3" width="1000" height="666.7"/>
			</defs>
			<clipPath id="SVGID_8_">
				<use xlink:href="#SVGID_7_"  style="overflow:visible;"/>
			</clipPath>
			<g id="g322" class="st10">
				<g id="g328" transform="translate(526.2574,96.9069)">
					<path id="path330" class="st9" d="M0,0c6.5,0,13,1.8,18.5,5.3c-1.2-0.4-2.5-0.6-3.7-0.4c1.7,0.5,3.2,1.6,4.1,3.1
						C13.1,7,7.2,6.5,1.4,6.7"/>
				</g>
				<g id="g332" transform="translate(499.9625,88.5671)">
					<path id="path334" class="st11" d="M0,0l0.1-14.2l-7.5-2.6c0,0,2.5-0.7,2.2-2c0,0,2.3,0.6,2.8-1.4l3.8,4.5L1.3,0L0,0z"/>
				</g>
				<g id="g336" transform="translate(502.3785,82.0212)">
					<path id="path338" class="st11" d="M0,0c0-0.7-0.7-1.4-1.6-1.4c-0.9-0.1-1.7,0.5-1.8,1.2c0,0.7,0.7,1.4,1.6,1.4
						C-0.8,1.3,0,0.7,0,0"/>
				</g>
				<g id="g340" transform="translate(507.0182,88.614)">
					<path id="path342" class="st11" d="M0,0l0.1-14.2l-7.5-2.6c0,0,2.5-0.7,2.2-2c0,0,2.3,0.6,2.8-1.4l3.8,4.5L1.3,0L0,0z"/>
				</g>
				<g id="g344" transform="translate(509.4342,82.0671)">
					<path id="path346" class="st11" d="M0,0c0-0.7-0.7-1.4-1.6-1.4c-0.9-0.1-1.7,0.5-1.8,1.2c0,0.7,0.7,1.4,1.6,1.4
						C-0.8,1.3,0,0.7,0,0"/>
				</g>
				<g id="g348" transform="translate(481.2379,124.2302)">
					<path id="path350" class="st1" d="M0,0c0,0,2.8,0.8,3.8,1.9c0.9,1.1,4,4.7,8.1,3.8c4.1-0.9,7-4,6.9-7.1c-0.1-3.1,0-6.9,0-6.9
						l33.3-12.3c0,0-10.4-14.2-23.2-14.7c0,0-1.2-1.8-2.6-1.7c-1.4,0.1-2.9,1.7-2.9,1.7s-9.2-1.3-15.3,2.6S-3.3-24.3-3-16.4
						C-2.7-8.5,4.2-3.2,4.2-3.2L0,0z"/>
				</g>
				<g id="g352" transform="translate(481.2379,124.2302)">
					<path id="path354" class="st9" d="M0,0c0.4-0.3,1.6-1.2,4.2-3.1l0.1-0.1L4.2-3.3C2.6-4.7,0.6-6.7-1-9.7
						c-0.8-1.5-1.4-3.2-1.7-5.2C-3-16.9-2.9-19-2.3-21.1c0.6-2.1,1.8-4.2,3.5-6c1.7-1.8,3.7-3.4,5.9-4.9c1.1-0.7,2.3-1.4,3.5-1.9
						c1.3-0.5,2.6-0.9,4-1.1c2.8-0.5,5.8-0.6,8.7-0.2l0.1,0l0.1-0.1c0.7-0.7,1.6-1.4,2.6-1.6c1-0.2,1.9,0.7,2.5,1.6l0.1,0.1l0.1,0
						c5,0.3,9.8,2.5,14,5.7c3.5,2.6,6.5,5.7,9,8.9l0.1-0.3c-12.5,4.6-23.9,8.9-33.3,12.4l-0.1,0l0,0.1c-0.1,2.4-0.1,4.7,0,6.8
						c0,1.1-0.2,2.1-0.7,2.9C17.4,2.3,16.7,3,16,3.6c-1.5,1.2-3.2,1.9-4.8,2.1C9.6,5.9,8.1,5.3,7,4.6c-1.2-0.7-2-1.6-2.7-2.3
						C3.6,1.5,2.7,1,2.1,0.7C1.4,0.4,0.9,0.3,0.5,0.2C0.2,0,0,0,0,0s0.2,0.1,0.5,0.2C0.9,0.3,1.4,0.5,2,0.8c0.6,0.3,1.4,0.7,2.1,1.6
						c0.7,0.8,1.6,1.7,2.7,2.4C8,5.5,9.5,6.1,11.2,5.9c1.7-0.2,3.4-0.9,4.9-2.1c0.8-0.6,1.5-1.4,2-2.3c0.5-0.9,0.8-2,0.8-3.1
						c-0.1-2.2,0-4.4,0.1-6.8l-0.1,0.2c9.5-3.5,20.9-7.7,33.3-12.3l0.3-0.1l-0.2-0.2c-2.6-3.3-5.6-6.4-9.1-9
						c-4.2-3.2-9.2-5.5-14.3-5.8l0.2,0.1c-0.3-0.5-0.7-0.9-1.2-1.3c-0.5-0.3-1.1-0.6-1.7-0.5c-1.2,0.3-2.1,1-2.9,1.7l0.2-0.1
						c-3-0.3-6-0.2-8.9,0.3c-1.4,0.3-2.8,0.6-4.1,1.1c-1.3,0.5-2.5,1.2-3.6,2c-2.2,1.5-4.3,3.1-6,4.9c-1.7,1.8-2.9,3.9-3.5,6.1
						C-3.2-19-3.3-16.9-3-14.9c0.3,2,1,3.8,1.8,5.3c1.7,3,3.7,5.1,5.4,6.5v-0.1C2.8-2.2,1.7-1.4,1-0.8C0.7-0.6,0.4-0.4,0.2-0.2
						C0.1-0.1,0,0,0,0"/>
				</g>
				<g id="g356" transform="translate(531.358,105.7165)">
					<path id="path358" class="st3" d="M0,0c-4.2,5.2-10.2,8.9-16.7,10.4c-5,1.1-10.3,0.9-15.3-0.5l0.3,0.1
						c-3.1-0.4-6.1-1.6-8.7-3.4c-1.1-0.8-2.2-1.8-2.2-3.2c0-1.2,1-2.1,2-2.9c5.7-4.4,12.8-7,20-7.3c7.2-0.3,14.5,1.7,20.5,5.7
						C0-1,0.2-0.9,0.3-0.6C0.3-0.4,0.2-0.2,0,0"/>
				</g>
				<g id="g360" transform="translate(491.3239,124.8249)">
					<path id="path362" class="st9" d="M0,0c0-0.6-0.5-1.1-1.1-1.1c-0.6,0-1.1,0.5-1.1,1.1c0,0.6,0.5,1.1,1.1,1.1
						C-0.5,1.1,0,0.6,0,0"/>
				</g>
				<g id="g364" transform="translate(517.8424,108.3268)">
					<path id="path366" class="st9" d="M0,0c0,0-0.1-0.1-0.4-0.3C-0.6-0.4-1-0.6-1.5-0.8c-1-0.4-2.6-0.6-4.4-0.1l0.1,0.4
						C-4.9-0.7-4.6-2-5.3-2.7C-5.9-3.3-7-3.4-7.8-3.1c-0.5,0.2-0.9,0.4-1.3,0.6l0.3,0.3c0.4-0.7,0.3-1.4,0.1-2
						C-9-4.8-9.5-5.3-10.1-5.5c-1.1-0.5-2.2-0.2-3,0.1c-0.8,0.3-1.4,0.7-1.7,1C-15.2-4.2-15.4-4-15.4-4c0,0,0.2-0.1,0.6-0.3
						c0.4-0.2,1-0.6,1.8-0.8c0.8-0.3,1.8-0.4,2.8,0C-9.8-4.9-9.4-4.5-9.1-4c0.2,0.5,0.3,1.1-0.1,1.6l-0.5,0.7l0.8-0.4
						c0.4-0.2,0.8-0.5,1.2-0.6c0.7-0.3,1.6-0.2,2,0.3C-5.1-1.9-5.3-1-5.9-0.9l0.1,0.4C-4.1-1-2.6-0.8-1.6-0.6C-0.6-0.3,0,0.1,0,0"/>
				</g>
				<g id="g368" transform="translate(530.1451,104.1843)">
					<path id="path370" class="st9" d="M0,0c0,0,0-0.1-0.1-0.2c-0.1-0.1-0.3-0.3-0.5-0.4c-0.4-0.4-1.1-0.8-2-1.3
						c-1.8-1-4.8-2-8.4-1.4L-11-3c0.8-0.3,1.5-0.8,2.1-1.5l0.2-0.2L-9-4.8c-2.3-0.6-5-0.6-7.7,0.1l-1.3,0.3l1.3,0.1
						c0.3,0,0.7-0.3,0.8-0.6c0.1-0.3,0.1-0.6,0-0.9c-0.3-0.6-1-0.7-1.5-0.7c-6.9,1.1-12.8,3.5-16.8,5.6c-2,1-3.6,2-4.7,2.7
						c-0.5,0.3-0.9,0.6-1.2,0.8c-0.3,0.2-0.4,0.3-0.4,0.3c0,0,0.2-0.1,0.5-0.2c0.3-0.2,0.7-0.4,1.3-0.7c1.1-0.6,2.7-1.5,4.7-2.5
						c2-1,4.5-2.1,7.3-3c2.8-0.9,6-1.9,9.4-2.4c0.5,0,1,0.1,1.1,0.5c0.2,0.3,0,0.9-0.3,0.8l0,0.4C-14-5-11.4-4.9-9.1-4.4l-0.1-0.3
						c-0.5,0.6-1.2,1.1-1.9,1.4L-11-3c3.5-0.6,6.5,0.3,8.3,1.2C-0.9-0.8,0,0.1,0,0"/>
				</g>
				<g id="g372" transform="translate(491.7057,126.612)">
					<path id="path374" class="st9" d="M0,0c-0.2-0.1-0.4-0.1-0.5-0.1c-0.2,0-0.3,0-0.5,0c-0.2,0-0.3,0.1-0.4,0.2
						c-0.1,0.1-0.3,0.2-0.4,0.3C-2,0.5-1.9,0.8-1.7,1c0.2,0.2,0.6,0.3,1,0.3C-0.3,1.1,0,0.8,0.1,0.6C0.2,0.3,0.2,0.1,0,0"/>
				</g>
				<g id="g376" transform="translate(481.2379,124.2302)">
					<path id="path378" class="st12" d="M0,0c0,0-8.4,0.5-9.6-7l1.2,0.7C-7.7-6-7-5.7-6.3-5.7l8.7,1l1.8,1.5C3.6-2.7,0,0,0,0"/>
				</g>
				<g id="g380" transform="translate(480.8951,123.4665)">
					<path id="path382" class="st9" d="M0,0c0-0.1-0.5-0.3-1.1-0.4c-0.6-0.1-1.1-0.1-1.1,0c0,0.1,0.4,0.3,1.1,0.4
						C-0.5,0.2,0,0.1,0,0"/>
				</g>
				<g id="g384" transform="translate(484.5084,120.1891)">
					<path id="path386" class="st9" d="M0,0c0-0.1-0.7-0.2-2-0.3c-1.2-0.2-2.9-0.3-4.8-0.5C-7.6-1-8.5-1-9.3-1.1
						c-0.8-0.1-1.5-0.3-2-0.6C-12.4-2.3-12.7-3-12.8-3c-0.1,0,0.2,0.8,1.3,1.5c0.5,0.3,1.3,0.6,2.1,0.7c0.8,0.1,1.7,0.2,2.6,0.3
						C-4.9-0.2-3.2-0.1-2,0C-0.8,0,0,0.1,0,0"/>
				</g>
				<g id="g388" transform="translate(531.6217,105.0807)">
					<path id="path390" class="st9" d="M0,0c0,0-0.5,0.5-1.4,1.3s-2.2,2-3.9,3.4C-7,6.1-9,7.8-11.5,9.1c-1.3,0.7-2.6,1.3-4.1,1.7
						c-1.5,0.4-3.1,0.6-4.7,0.7C-27,11.7-33.1,10.7-37,8.9C-39,8-40.5,7-41.5,6.3c-1-0.7-1.5-1.2-1.5-1.2c0,0,0.1,0.1,0.3,0.4
						c0.2,0.2,0.6,0.6,1,1c0.9,0.8,2.4,1.8,4.4,2.7c4,1.9,10.1,3,16.8,2.9c1.7-0.1,3.3-0.3,4.9-0.8c1.5-0.4,3-1.1,4.2-1.8
						C-8.7,8.1-6.7,6.4-5,5c1.7-1.4,2.9-2.7,3.8-3.6c0.4-0.4,0.7-0.8,1-1C-0.1,0.1,0,0,0,0"/>
				</g>
			</g>
		</g>
	</g>
	<g id="g392">
		<g>
			<defs>
				<rect id="SVGID_9_" x="-125" y="-83.3" width="1000" height="666.7"/>
			</defs>
			<clipPath id="SVGID_10_">
				<use xlink:href="#SVGID_9_"  style="overflow:visible;"/>
			</clipPath>
			<g id="g394" class="st13">
				<g id="g400" transform="translate(113.8092,158.7663)">
					<path id="path402" class="st8" d="M0,0l0.4,0c-0.9,13-7.4,26.9-12.1,39.1c-4.9,12.5-9.4,25.4-20.5,33C-20.2,48.8-9.5,24.4,0,0"
						/>
				</g>
				<g id="g404" transform="translate(121.5841,224.7448)">
					<path id="path406" class="st8" d="M0,0c0,0,0-0.1,0-0.2c0-0.1-0.1-0.3-0.2-0.5c-0.1-0.4-0.4-1.1-0.6-1.9
						c-0.1-0.4-0.3-0.8-0.5-1.3c-0.1-0.5-0.3-1-0.5-1.6c-0.3-1.2-0.8-2.5-1.1-3.9c-0.2-0.7-0.4-1.5-0.6-2.3
						c-0.2-0.8-0.4-1.6-0.6-2.5c-0.4-1.7-0.8-3.6-1.1-5.6c-0.7-3.9-1.3-8.3-1.6-12.9c-0.3-4.6-0.4-9-0.3-13c0.1-2,0.1-3.9,0.3-5.7
						c0.1-0.9,0.1-1.7,0.2-2.6c0.1-0.8,0.2-1.6,0.2-2.4c0.1-1.5,0.4-2.9,0.5-4.1c0.1-0.6,0.2-1.1,0.2-1.7c0.1-0.5,0.2-1,0.2-1.4
						c0.1-0.8,0.2-1.5,0.3-1.9c0-0.2,0.1-0.4,0.1-0.5c0-0.1,0-0.2,0-0.2c0,0-0.8,3.7-1.6,9.7c-0.1,0.8-0.2,1.5-0.3,2.4
						c-0.1,0.8-0.1,1.7-0.2,2.6c-0.2,1.8-0.2,3.7-0.3,5.7c-0.1,4-0.1,8.4,0.3,13c0.4,4.6,0.9,9,1.6,12.9c0.4,2,0.7,3.8,1.2,5.6
						c0.2,0.9,0.4,1.7,0.6,2.5c0.2,0.8,0.4,1.6,0.6,2.3c0.4,1.5,0.8,2.8,1.2,3.9c0.2,0.6,0.4,1.1,0.5,1.6c0.2,0.5,0.3,0.9,0.5,1.3
						c0.3,0.8,0.5,1.4,0.7,1.8c0.1,0.2,0.1,0.4,0.2,0.5C0-0.1,0,0,0,0"/>
				</g>
				<g id="g408" transform="translate(117.8942,212.3425)">
					<path id="path410" class="st4" d="M0,0l-0.7,0.2c-1.6,0.4-2.5,2.1-2.1,3.7l4.5,15.7c0.4,1.6,2.1,2.5,3.7,2l0.7-0.2
						c1.6-0.4,2.5-2.1,2-3.7L3.7,2.1C3.2,0.5,1.6-0.4,0,0"/>
				</g>
				<g id="g412" transform="translate(117.8942,212.3425)">
					<path id="path414" class="st9" d="M0,0c0,0,0.2,0,0.5-0.1c0.3,0,0.9,0,1.5,0.3C2.6,0.5,3.3,1,3.5,1.9c0.3,0.9,0.5,2,0.9,3.1
						c0.6,2.3,1.4,5,2.3,8.1c0.4,1.5,0.9,3.1,1.3,4.8c0.2,0.8,0.1,1.7-0.4,2.4c-0.2,0.3-0.6,0.6-0.9,0.8c-0.4,0.2-0.8,0.3-1.3,0.4
						c-0.8,0.2-1.8,0.1-2.4-0.4c-0.3-0.2-0.6-0.6-0.8-0.9c-0.2-0.4-0.3-0.8-0.4-1.2c-0.5-1.7-0.9-3.2-1.4-4.8
						c-0.9-3-1.7-5.8-2.3-8.1C-2.1,5.5-2.3,5-2.5,4.5c-0.2-0.5-0.3-1-0.3-1.5c0-0.9,0.5-1.7,0.9-2.1c0.5-0.5,1-0.6,1.3-0.7
						c0.2-0.1,0.3-0.1,0.4-0.1C0,0,0,0,0,0c0,0,0,0-0.1,0c-0.1,0-0.2,0.1-0.4,0.1c-0.3,0.1-0.9,0.2-1.4,0.7c-0.5,0.4-1,1.2-1,2.2
						c0,0.5,0.1,1,0.3,1.5C-2.5,5-2.3,5.6-2.2,6.2c0.6,2.3,1.4,5,2.3,8.1C0.5,15.8,1,17.3,1.4,19c0.1,0.4,0.2,0.8,0.4,1.3
						c0.2,0.4,0.5,0.8,0.9,1c0.7,0.6,1.8,0.7,2.7,0.5c0.4-0.1,0.9-0.2,1.3-0.5c0.4-0.2,0.8-0.5,1-0.9c0.5-0.8,0.7-1.7,0.5-2.6
						c-0.5-1.7-0.9-3.2-1.4-4.8C6,10,5.3,7.3,4.6,5C4.3,3.8,4,2.8,3.7,1.9C3.4,0.9,2.7,0.4,2,0.1C1.4-0.2,0.9-0.2,0.5-0.1
						C0.2-0.1,0,0,0,0"/>
				</g>
				<g id="g416" transform="translate(116.6071,158.8122)">
					<path id="path418" class="st8" d="M0,0c-0.4,10-0.4,21.1,5.3,29.4c3.2,4.7,8.1,8.1,13.3,10.4s10.8,3.7,16.3,5.1
						c-6.2-8.6-20.1-8.7-26-17.5c-1.8-2.6-2.6-5.7-3.4-8.8C3.8,12.2,2.4,6.2,0.7,0"/>
				</g>
				<g id="g420" transform="translate(72.6227,194.0583)">
					<path id="path422" class="st8" d="M0,0c0,0,0,0,0.1,0c0.1,0,0.2,0,0.4,0c0.3-0.1,0.9-0.1,1.5-0.2c1.3-0.2,3.2-0.6,5.5-1.4
						c2.3-0.7,4.9-1.9,7.7-3.5C16.6-6,18-6.9,19.3-8c1.4-1.1,2.7-2.3,4-3.6c1.3-1.3,2.4-2.7,3.4-4.1c0.5-0.7,1-1.4,1.4-2.1
						c0.4-0.7,0.9-1.4,1.2-2.1c1.5-2.8,2.6-5.4,3.3-7.7c0.7-2.3,1.1-4.2,1.3-5.5c0.1-0.7,0.1-1.2,0.2-1.5c0-0.2,0-0.3,0-0.4
						c0-0.1,0-0.1,0-0.1c0,0,0,0,0,0.1c0,0.1,0,0.2-0.1,0.4c-0.1,0.3-0.1,0.9-0.2,1.5c-0.2,1.3-0.7,3.2-1.4,5.5
						c-0.7,2.3-1.8,4.9-3.4,7.7c-0.4,0.7-0.8,1.4-1.2,2.1c-0.5,0.7-0.9,1.4-1.4,2.1c-1,1.4-2.1,2.8-3.4,4.1
						c-1.3,1.3-2.6,2.5-3.9,3.6c-1.4,1.1-2.7,2-4.1,2.8c-2.7,1.6-5.3,2.8-7.6,3.5C5.2-1.1,3.4-0.6,2-0.4C1.4-0.2,0.9-0.2,0.5-0.1
						C0.4-0.1,0.2-0.1,0.1,0C0,0,0,0,0,0"/>
				</g>
				<g id="g424" transform="translate(82.8175,190.8425)">
					<path id="path426" class="st4" d="M0,0l-0.3-0.6C-1-2.1-2.8-2.7-4.3-2L-19,5.1c-1.5,0.7-2.1,2.5-1.4,4l0.3,0.6
						c0.7,1.5,2.5,2.1,4,1.4L-1.4,4C0.1,3.3,0.7,1.5,0,0"/>
				</g>
				<g id="g428" transform="translate(82.8175,190.8425)">
					<path id="path430" class="st9" d="M0,0c0,0,0.1,0.2,0.2,0.5c0.1,0.3,0.2,0.9,0,1.5C0,2.6-0.5,3.4-1.3,3.8
						c-0.8,0.4-1.8,0.9-2.9,1.4c-2.2,1-4.7,2.3-7.6,3.6c-1.4,0.7-2.9,1.4-4.5,2.1c-0.7,0.3-1.7,0.4-2.4,0c-0.4-0.2-0.7-0.5-1-0.8
						c-0.3-0.3-0.4-0.8-0.6-1.2c-0.4-0.8-0.4-1.7,0-2.5c0.2-0.4,0.5-0.7,0.8-1c0.3-0.3,0.7-0.4,1.1-0.6c1.5-0.7,3-1.5,4.5-2.2
						c2.8-1.4,5.4-2.6,7.5-3.7c0.5-0.3,1-0.5,1.5-0.7c0.5-0.2,0.9-0.5,1.4-0.5C-2.5-2.4-1.7-2-1.2-1.6c0.5,0.4,0.8,0.9,0.9,1.2
						c0.1,0.1,0.1,0.3,0.2,0.4C0,0,0,0,0,0s0,0,0-0.1c0-0.1-0.1-0.2-0.2-0.4c-0.1-0.3-0.4-0.8-0.9-1.2c-0.5-0.4-1.4-0.8-2.3-0.6
						c-0.5,0.1-1,0.3-1.4,0.5c-0.5,0.2-1,0.5-1.5,0.7c-2.2,1-4.7,2.3-7.6,3.6c-1.4,0.7-2.9,1.4-4.5,2.1c-0.4,0.2-0.8,0.3-1.2,0.6
						C-20,5.6-20.3,6-20.5,6.4c-0.4,0.8-0.4,1.9,0,2.7c0.2,0.4,0.4,0.8,0.7,1.2c0.3,0.4,0.7,0.7,1.1,0.9c0.8,0.4,1.8,0.4,2.6,0
						c1.5-0.7,3-1.5,4.5-2.2c2.8-1.4,5.4-2.6,7.5-3.7c1.1-0.5,2-1,2.9-1.4C-0.3,3.5,0.1,2.7,0.3,2c0.2-0.7,0.1-1.2,0-1.5
						C0.1,0.2,0,0,0,0"/>
				</g>
				<g id="g432" transform="translate(622.0514,185.4011)">
					<path id="path434" class="st8" d="M0,0c5.1-36.5,10.3-73,15.4-109.5l4-0.1C16.8-72.4,14.1-34.5,0,0"/>
				</g>
				<g id="g436" transform="translate(664.7545,190.529)">
					<path id="path438" class="st8" d="M0,0c-10.7-11.8-15.1-28-17.8-43.6c-3.9-22.3-4.2-48.5-3.1-71.1l5.6-0.1
						C-17.5-75.9-12.2-37.1,0,0"/>
				</g>
				<g id="g440" transform="translate(624.8776,120.6237)">
					<path id="path442" class="st8" d="M0,0c-1.2,5.4-2.6,10.9-5.7,15.6c-4.2,6.2-11,10.2-17.9,13.3c-6.9,3.1-14.1,5.5-20.3,9.8
						c6.9-11.3,22.6-14.4,30.6-25c4-5.3,5.6-11.9,7.2-18.3c3.4-14,5.5-26.1,8.9-40.1h4.5C5.8-29.5,3.4-14.9,0,0"/>
				</g>
				<g id="g444" transform="translate(653.6315,75.777)">
					<path id="path446" class="st8" d="M0,0c0,0,3.9,43.5,6.7,51.5c2.9,8,29.8,30,29.6,29C36,79.4,16,55.3,13.2,50.4
						C10.3,45.4,5.4,0,5.4,0H0z"/>
				</g>
			</g>
		</g>
	</g>
	<g id="g448">
		<g>
			<defs>
				<rect id="SVGID_11_" x="-125" y="-83.3" width="1000" height="666.7"/>
			</defs>
			<clipPath id="SVGID_12_">
				<use xlink:href="#SVGID_11_"  style="overflow:visible;"/>
			</clipPath>
			<g id="g450" class="st14">
				<g id="g456" transform="translate(255.5783,358.2741)">
					<path id="path458" class="st9" d="M0,0c0-0.1-1.1,0.4-3.1,0.8c-2,0.4-5.1,0.8-8.8,0.3c-3.7-0.5-8-2-11.8-5.1
						c-3.8-3.1-7.1-7.7-8.4-13.3c0-0.1,0-0.1,0-0.1l-0.2-0.9l-0.4,0.9c-2.1,5.3-5.9,9.4-10,12.1c-4.1,2.7-8.5,3.8-12.2,4.1
						C-58.7-1-61.7-1.5-63.7-2c-2-0.5-3.1-1-3.1-0.9c0,0,0.3,0.1,0.8,0.4c0.5,0.2,1.3,0.5,2.3,0.8c2,0.6,5,1.2,8.8,1
						c3.8-0.2,8.3-1.3,12.5-4c4.2-2.7,8.1-6.9,10.3-12.3l-0.6,0c0,0,0,0.1,0,0.2c1.3,5.7,4.7,10.4,8.6,13.6
						c3.9,3.2,8.4,4.7,12.1,5.1c3.8,0.5,6.9,0,8.9-0.5c1-0.3,1.8-0.5,2.3-0.7C-0.3,0.1,0,0,0,0"/>
				</g>
				<g id="g460" transform="translate(352.9972,416.528)">
					<path id="path462" class="st9" d="M0,0c0-0.1-0.6,0.2-1.7,0.4c-1.1,0.2-2.8,0.4-4.8,0.1c-2-0.3-4.4-1.1-6.4-2.8
						c-2.1-1.7-3.8-4.2-4.5-7.2l0-0.1l-0.2-0.9l-0.4,0.9c-1.2,2.9-3.2,5.1-5.4,6.6c-2.2,1.5-4.6,2.1-6.7,2.3c-2,0.2-3.7-0.1-4.8-0.4
						c-1.1-0.3-1.7-0.5-1.7-0.5c0,0,0.1,0.1,0.4,0.2c0.3,0.1,0.7,0.3,1.2,0.5c1.1,0.3,2.8,0.7,4.9,0.6c2.1-0.1,4.6-0.7,6.9-2.2
						c2.3-1.5,4.5-3.8,5.7-6.8l-0.6,0l0,0.1c0.7,3.2,2.6,5.8,4.8,7.5C-11.2,0-8.7,0.8-6.6,1c2.1,0.2,3.8,0,4.9-0.3
						c0.6-0.2,1-0.3,1.3-0.4C-0.1,0.1,0,0,0,0"/>
				</g>
				<g id="g464" transform="translate(284.7887,430.1603)">
					<path id="path466" class="st9" d="M0,0c0,0-0.6-0.7-1.7-1.9C-2.8-3.1-4.3-5-5.8-7.5c-3.1-4.9-6.2-12.7-6.1-21.7
						c0-0.1,0-0.2,0-0.3l-0.6-0.1c-0.7,4.4-2.1,8.4-4,11.7c-1.8,3.4-4,6.1-6,8.1c-2,2.1-3.9,3.5-5.2,4.4c-1.3,0.9-2.1,1.4-2.1,1.4
						c0,0,0.2-0.1,0.6-0.3c0.4-0.2,0.9-0.5,1.6-0.9c1.4-0.9,3.3-2.3,5.4-4.3c2.1-2,4.3-4.8,6.2-8.2c1.9-3.4,3.4-7.5,4.1-11.9
						l-0.6-0.1c0,0.1,0,0.2,0,0.3c-0.1,9.1,3.1,17,6.4,21.9C-4.6-4.8-3-2.9-1.9-1.7c0.6,0.6,1.1,1,1.4,1.3C-0.2-0.1,0,0,0,0"/>
				</g>
			</g>
		</g>
	</g>
	<g id="g468">
		<g>
			<defs>
				<rect id="SVGID_13_" x="-125" y="-83.3" width="1000" height="666.7"/>
			</defs>
			<clipPath id="SVGID_14_">
				<use xlink:href="#SVGID_13_"  style="overflow:visible;"/>
			</clipPath>
			<g id="g470" class="st15">
				<g id="g476" transform="translate(692.151,274.5705)">
					<path id="path478" class="st9" d="M0,0c0-0.1-154-0.3-343.8-0.3c-189.9,0-343.8,0.1-343.8,0.3s153.9,0.3,343.8,0.3
						C-153.9,0.3,0,0.1,0,0"/>
				</g>
				<g id="g480" transform="translate(683.5963,75.8659)">
					<path id="path482" class="st9" d="M0,0c0-0.1-23.6-0.3-52.7-0.3c-29.1,0-52.7,0.1-52.7,0.3s23.6,0.3,52.7,0.3
						C-23.6,0.3,0,0.1,0,0"/>
				</g>
				<g id="g484" transform="translate(632.4244,73.3893)">
					<path id="path486" class="st8" d="M0,0c0-0.1-0.8-0.3-1.9-0.3c-1,0-1.9,0.1-1.9,0.3s0.8,0.3,1.9,0.3C-0.8,0.3,0,0.1,0,0"/>
				</g>
				<g id="g488" transform="translate(641.858,72.8386)">
					<path id="path490" class="st8" d="M0,0c0-0.1-0.9-0.3-2-0.3c-1.1,0-2,0.1-2,0.3S-3,0.3-2,0.3C-0.9,0.3,0,0.1,0,0"/>
				</g>
				<g id="g492" transform="translate(648.4694,72.7009)">
					<path id="path494" class="st8" d="M0,0c0-0.1-0.8-0.3-1.7-0.3c-0.9,0-1.7,0.1-1.7,0.3s0.8,0.3,1.7,0.3C-0.8,0.3,0,0.1,0,0"/>
				</g>
				<g id="g496" transform="translate(658.2477,72.8386)">
					<path id="path498" class="st8" d="M0,0c0-0.1-1-0.3-2.2-0.3c-1.2,0-2.2,0.1-2.2,0.3s1,0.3,2.2,0.3C-1,0.3,0,0.1,0,0"/>
				</g>
				<g id="g500" transform="translate(649.5709,70.7038)">
					<path id="path502" class="st8" d="M0,0c0-0.1-0.8-0.3-1.8-0.3c-1,0-1.8,0.1-1.8,0.3s0.8,0.3,1.8,0.3C-0.8,0.3,0,0.1,0,0"/>
				</g>
				<g id="g504" transform="translate(644.1998,69.946)">
					<path id="path506" class="st8" d="M0,0c0-0.1-1-0.3-2.2-0.3c-1.2,0-2.2,0.1-2.2,0.3c0,0.1,1,0.3,2.2,0.3C-1,0.3,0,0.1,0,0"/>
				</g>
				<g id="g508" transform="translate(606.7936,207.4274)">
					<path id="path510" class="st9" d="M0,0c0-0.1-29.9-0.3-66.9-0.3c-36.9,0-66.9,0.1-66.9,0.3c0,0.1,29.9,0.3,66.9,0.3
						C-29.9,0.3,0,0.1,0,0"/>
				</g>
				<g id="g512" transform="translate(646.0787,195.2477)">
					<path id="path514" class="st9" d="M0,0c0-0.1-29.9-0.3-66.9-0.3c-36.9,0-66.9,0.1-66.9,0.3c0,0.1,29.9,0.3,66.9,0.3
						C-29.9,0.3,0,0.1,0,0"/>
				</g>
				<g id="g516" transform="translate(734.6031,267.0036)">
					<path id="path518" class="st8" d="M0,0c0-0.1-63.2-0.3-141.1-0.3C-219-0.3-282.1-0.1-282.1,0s63.2,0.3,141.1,0.3
						C-63.2,0.3,0,0.1,0,0"/>
				</g>
				<g id="g520" transform="translate(525.7174,261.7453)">
					<path id="path522" class="st8" d="M0,0c0-0.1-18.7-0.3-41.9-0.3C-65-0.3-83.7-0.1-83.7,0S-65,0.3-41.9,0.3C-18.7,0.3,0,0.1,0,0
						"/>
				</g>
				<g id="g524" transform="translate(744.3268,262.2106)">
					<path id="path526" class="st8" d="M0,0c0-0.1-15.1-0.3-33.7-0.3c-18.6,0-33.7,0.1-33.7,0.3s15.1,0.3,33.7,0.3
						C-15.1,0.3,0,0.1,0,0"/>
				</g>
				<g id="g528" transform="translate(211.6329,158.5114)">
					<path id="path530" class="st9" d="M0,0c0-0.1-30.1-0.3-67.2-0.3c-37.1,0-67.2,0.1-67.2,0.3s30.1,0.3,67.2,0.3
						C-30.1,0.3,0,0.1,0,0"/>
				</g>
				<g id="g532" transform="translate(222.1676,173.7624)">
					<path id="path534" class="st9" d="M0,0c0-0.1-11.4-0.3-25.6-0.3c-14.1,0-25.6,0.1-25.6,0.3c0,0.1,11.4,0.3,25.6,0.3
						C-11.4,0.3,0,0.1,0,0"/>
				</g>
				<g id="g536" transform="translate(123.9528,154.0905)">
					<path id="path538" class="st8" d="M0,0c0-0.1-4.6-0.3-10.2-0.3c-5.7,0-10.2,0.1-10.2,0.3c0,0.1,4.6,0.3,10.2,0.3
						C-4.6,0.3,0,0.1,0,0"/>
				</g>
				<g id="g540" transform="translate(111.9904,149.4216)">
					<path id="path542" class="st8" d="M0,0c0-0.1-1.8-0.2-4.1-0.1c-2.2,0.1-4,0.3-4,0.5c0,0.1,1.8,0.2,4.1,0.1C-1.8,0.4,0,0.1,0,0"
						/>
				</g>
				<g id="g544" transform="translate(107.5299,144.1559)">
					<path id="path546" class="st8" d="M0,0c0-0.1-0.8-0.2-1.8-0.2c-1,0.1-1.8,0.2-1.8,0.4c0,0.1,0.8,0.2,1.8,0.2
						C-0.8,0.3,0,0.1,0,0"/>
				</g>
			</g>
		</g>
	</g>
	<g id="g548">
		<g>
			<defs>
				<rect id="SVGID_15_" x="-125" y="-83.3" width="1000" height="666.7"/>
			</defs>
			<clipPath id="SVGID_16_">
				<use xlink:href="#SVGID_15_"  style="overflow:visible;"/>
			</clipPath>
			<g id="g550" class="st16">
				<g id="g556" transform="translate(739.3893,335.9631)">
					<path id="path558" class="st8" d="M0,0c-8.4,5.6-28.1,6.1-35.5-0.8C-38.4,4.8-49,2.2-49-4.1c-5.2,4.3-14.6-1.9-12.8-8.4
						c-3.9,5-13.4,2.6-14.6-3.5l-28.8,10.2c-11.3,7.1-26.3,8.1-38.5,2.5c-1.7,2.8-5.7,4-8.7,2.5c-3-1.4-4.5-5.3-3.4-8.4
						c-3.8,2.5-9.7,0.6-11.3-3.7c-3.1,4.2-11.3,1.3-11.1-3.9c-4.4,2.6-11.1-1.1-11.1-6.3c-2.5,4.5-10.2,4.4-12.6-0.1
						c-1.3,4.8-6.7,8.1-11.6,7.1c-7.8,7.1-20.3,8.4-29.4,3.1c-1.7,2.6-5.4,3.8-8.2,2.6c-2.9-1.2-4.6-4.6-3.9-7.7
						c-4.6,3.9-12.7,1.9-14.9-3.6c-3.2,4-11.1,0.4-10.4-4.6c-2.8,4-10.6,0.6-9.6-4.2c-2.8,4.6-11.7,1.4-10.8-3.9
						c-5.6,3.6-14.2,0.6-16.4-5.7c-2.4,4.9-11.5,2.7-11.4-2.8c-3,5.5-11.8,6.5-16,1.9c-4.2,4.9-12.6,5.4-17.3,1
						c1.6,4.2-3.3,9.2-7.5,7.7c0.2,6-5.3,11.6-11.3,11.5c-6-0.1-11.3-5.9-10.9-11.9c-2.7,1.6-6.8,0.3-8-2.7c-1.2-3,0.8-6.8,3.9-7.5
						c-2,3.2-7,3.8-9.8,1.2c-2.7-2.6-2.4-7.6,0.6-9.8c-3,2.2-7.5,2.1-10.5-0.2c-2.9-2.3-4.1-6.6-2.8-10.1H0L0,0z"/>
				</g>
				<g id="g560" transform="translate(547.1129,312.9323)">
					<path id="path562" class="st9" d="M0,0c0,0-0.3,0.3-1.1,0.7c-0.7,0.4-1.9,1-3.4,1.1C-6,2-8,1.6-9.7,0.2
						c-1.6-1.4-2.9-3.8-2.6-6.4l0-0.3l-0.3,0c-2.5,0.1-5.2-1.1-7.1-3.3c-1.9-2.1-3.1-5.2-2.4-8.3l0.1-0.5l-0.4,0.2
						c-0.4,0.1-0.8,0.3-1.2,0.3c-3.2,0.6-6.6-0.6-8.5-2.8c-1.9-2.3-2.5-5.4-1.9-7.9l0.1-0.5l-0.5,0.2c-2.4,1.3-5.1,1.5-7.2,1
						c-2.2-0.4-3.9-1.5-5.2-2.5c-2.5-2.1-2.9-4.1-3-4c0,0,0,0.1,0.1,0.3c0.1,0.2,0.2,0.5,0.4,0.9c0.4,0.8,1.1,1.9,2.4,3
						c1.2,1.1,3,2.2,5.3,2.6c2.2,0.5,5,0.4,7.5-0.9l-0.3-0.2c-0.7,2.6-0.1,5.9,2,8.3c2,2.4,5.6,3.7,9,3c0.5-0.1,0.9-0.2,1.3-0.4
						l-0.3-0.3c-0.7,3.3,0.6,6.6,2.5,8.8c2,2.2,4.8,3.5,7.5,3.4l-0.2-0.2c-0.3,2.8,1.1,5.3,2.8,6.8C-8.1,2-6,2.3-4.4,2.1
						C-2.8,1.9-1.7,1.3-1,0.9c0.4-0.2,0.6-0.5,0.8-0.6C-0.1,0.1,0,0,0,0"/>
				</g>
				<g id="g564" transform="translate(675.3239,325.0925)">
					<path id="path566" class="st9" d="M0,0c0-0.1-2.4,0.5-6.3-0.7c-1.9-0.6-4.2-1.7-6.2-3.6c-2.1-1.8-3.9-4.5-4.7-7.8l0-0.2l-0.2,0
						c-2.4,0.2-5.1-0.4-7.4-1.8c-2.3-1.4-4.3-3.6-5.4-6.3c-0.4-0.9-0.6-2-0.7-2.9l-0.1-0.4l-0.4,0.2c-2.9,2-6.9,1.9-9.5,0
						c-2.6-1.9-3.7-5.1-3.3-7.8l0.1-0.5l-0.4,0.3c-2.1,1.5-4.6,1.6-6.5,1.1c-2-0.6-3.3-1.9-4.1-3.1c-0.8-1.2-1.1-2.4-1.2-3.1
						c-0.1-0.8-0.1-1.2-0.1-1.2c0,0,0,0.1,0,0.3c0,0.2,0,0.5,0,0.9c0.1,0.8,0.4,2,1.2,3.2c0.8,1.3,2.2,2.7,4.2,3.3
						c2,0.6,4.7,0.5,6.9-1.1l-0.3-0.2c-0.4,2.8,0.7,6.2,3.5,8.2c2.7,2,6.9,2.2,10,0l-0.4-0.2c0.1,1,0.3,2.1,0.7,3.1
						c2.2,5.7,8.2,9,13.3,8.4l-0.3-0.2c0.8,3.4,2.7,6.1,4.9,8c2.1,1.9,4.4,3,6.4,3.6c2,0.6,3.6,0.7,4.7,0.6c0.6,0,1-0.1,1.3-0.1
						C-0.1,0,0,0,0,0"/>
				</g>
				<g id="g568" transform="translate(591.8785,279.4641)">
					<path id="path570" class="st9" d="M0,0c0,0,0.1,0.4,0.5,1C1,1.6,1.7,2.4,2.8,3.1c1.1,0.7,2.6,1.4,4.4,1.4
						c1.8,0.1,3.7-0.4,5.4-1.5l-0.4-0.1l0,0.1c0.6,2,2.2,3.5,3.9,4.1c1.7,0.6,3.4,0.3,4.6-0.4C21.9,6,22.6,5.2,23,4.5
						c0.4-0.6,0.5-1,0.4-1.1c0,0-0.2,0.4-0.6,0.9c-0.4,0.6-1.1,1.3-2.3,1.9c-1.1,0.6-2.7,0.8-4.3,0.3c-1.5-0.6-3-1.9-3.6-3.7l0,0
						l-0.1-0.3l-0.3,0.2c-1.6,1.1-3.5,1.5-5.1,1.5C5.5,4.1,4.1,3.5,3,2.8C0.8,1.5,0.1-0.1,0,0"/>
				</g>
				<g id="g572" transform="translate(430.7301,295.9245)">
					<path id="path574" class="st9" d="M0,0c0-0.1-0.9-0.1-2.2-0.9c-0.6-0.4-1.4-1-2-1.9c-0.6-0.9-1-2.1-1-3.3l0-0.5l-0.4,0.3
						c-1,0.8-2.3,1.4-3.8,1.5c-1.5,0.1-3-0.4-4.2-1.4c-1.6-1.4-2.3-3.6-2.1-5.4l0.1-0.6l-0.5,0.4c-1.3,1-2.9,1.4-4.3,1.4
						c-1.4-0.1-2.5-0.6-3.4-1.2c-1.6-1.2-2-2.5-2.1-2.5c0,0,0.1,0.3,0.3,0.8c0.3,0.5,0.8,1.2,1.6,1.9c0.8,0.7,2,1.3,3.5,1.4
						c1.5,0.1,3.2-0.3,4.6-1.4l-0.4-0.2c-0.3,2,0.5,4.3,2.2,5.8c1.3,1.2,3,1.6,4.6,1.5c1.6-0.1,3-0.7,4-1.6l-0.4-0.2
						c0,1.4,0.5,2.7,1.2,3.6c0.6,0.9,1.4,1.5,2.1,1.9C-1.7-0.3-1.1-0.1-0.7,0C-0.2,0,0,0,0,0"/>
				</g>
				<g id="g576" transform="translate(722.441,321.5939)">
					<path id="path578" class="st9" d="M0,0c0-0.1-1.7,0.5-4.5,0c-1.4-0.3-3-0.9-4.6-2c-1.6-1.1-3-2.7-3.8-4.8L-13-7l-0.2,0.1
						c-1,0.5-2.2,0.9-3.4,1c-2.6,0.4-5.3-0.2-7.3-1.3c-2-1.1-3.4-2.8-4.3-4.3c-0.9-1.5-1.3-2.9-1.5-3.9c-0.2-1-0.2-1.5-0.3-1.5
						c0,0,0,0.1,0,0.4c0,0.3,0,0.7,0.1,1.2c0.1,1,0.5,2.4,1.4,4c0.9,1.6,2.3,3.3,4.4,4.5c2.1,1.2,4.8,1.8,7.6,1.4
						c1.3-0.2,2.5-0.6,3.6-1.1l-0.4-0.1c0.9,2.2,2.4,3.9,4.1,5C-7.7-0.5-6,0.1-4.6,0.3c1.4,0.2,2.6,0.2,3.4,0
						c0.4-0.1,0.7-0.2,0.9-0.2C-0.1,0.1,0,0,0,0"/>
				</g>
			</g>
		</g>
	</g>
	<g id="g580" transform="translate(388.4918,155.9157)">
		<path id="path582" class="st12" d="M0,0l1-23.4l12.6,0.3L12.7,0.3L0,0z"/>
	</g>
	<g id="g584">
		<g>
			<defs>
				<rect id="SVGID_17_" x="-125" y="-83.3" width="1000" height="666.7"/>
			</defs>
			<clipPath id="SVGID_18_">
				<use xlink:href="#SVGID_17_"  style="overflow:visible;"/>
			</clipPath>
			<g id="g586" class="st17">
				<g id="g592" transform="translate(395.6783,133.569)">
					<path id="path594" class="st9" d="M0,0c0.1,0-0.1,5.1-0.4,11.4c-0.3,6.3-0.7,11.4-0.8,11.4c-0.1,0,0.1-5.1,0.4-11.4
						C-0.5,5.1-0.1,0,0,0"/>
				</g>
				<g id="g596" transform="translate(389.4147,134.1599)">
					<path id="path598" class="st9" d="M0,0l12.6,0.3l0.1-1.7L0.1-1.6L0,0z"/>
				</g>
				<g id="g600" transform="translate(401.7985,140.3141)">
					<path id="path602" class="st9" d="M0,0c0,0-0.1,0.2-0.3,0.5C-0.6,0.8-1,1.2-1.5,1.6c-0.5,0.4-1.2,0.9-2.1,1.3
						c-0.9,0.4-1.9,0.6-3,0.5c-2.2-0.1-4-1.3-4.8-2.4c-0.4-0.5-0.7-1.1-0.9-1.4c-0.1-0.4-0.2-0.6-0.2-0.6c0.1,0,0.3,0.8,1.2,1.8
						c0.9,1,2.6,2.1,4.6,2.2c2.1,0.1,3.8-0.9,4.9-1.6C-0.6,0.6-0.1,0,0,0"/>
				</g>
				<g id="g604">
					<g id="g606">
					</g>
					<g id="g618">
						<g>
							<defs>
								<rect id="SVGID_19_" x="386.7" y="142.7" width="17.1" height="4.3"/>
							</defs>
							<clipPath id="SVGID_20_">
								<use xlink:href="#SVGID_19_"  style="overflow:visible;"/>
							</clipPath>
							<g id="g616" class="st18">
								<g id="g614" transform="translate(388.7975,146.4763)">
									<path id="path612" d="M0,0l0.3-3.2l12.6,1.1L12.8,0H0z"/>
								</g>
							</g>
						</g>
					</g>
				</g>
				<g id="g620" transform="translate(340.0695,153.1677)">
					<path id="path622" class="st12" d="M0,0l0.5-14c0,0-14-5-14.2-7.6l27.2-0.2l0.1,21.9L0,0z"/>
				</g>
				<g id="g624" transform="translate(348.8463,140.2897)">
					<path id="path626" class="st2" d="M0,0c0.5-0.1,0.9-0.7,0.8-1.3C0.7-1.8,0.1-2.2-0.5-2.1s-1,0.8-0.8,1.4
						C-1.1-0.2-0.4,0.2,0.1,0"/>
				</g>
				<g id="g628" transform="translate(353.6144,131.3474)">
					<path id="path630" class="st9" d="M0,0l0,1.7l-26.4-0.3c0,0-0.9-0.5-0.9-1.4L0,0z"/>
				</g>
				<g id="g632" transform="translate(340.361,139.0495)">
					<path id="path634" class="st9" d="M0,0c0-0.1,0.7-0.2,1.3-0.6c0.7-0.4,1-1,1.1-0.9c0.1,0-0.1,0.8-0.9,1.3C0.8,0.3,0,0.1,0,0"/>
				</g>
				<g id="g636" transform="translate(337.4865,137.8522)">
					<path id="path638" class="st9" d="M0,0c0-0.1,0.6-0.4,1-0.9c0.5-0.6,0.6-1.2,0.7-1.2c0.1,0,0.2,0.8-0.4,1.5C0.8,0.1,0,0.1,0,0"
						/>
				</g>
				<g id="g640" transform="translate(335.861,134.405)">
					<path id="path642" class="st9" d="M0,0c0.1,0,0.3,0.6,0,1.4c-0.3,0.7-1,1-1,0.9c-0.1-0.1,0.3-0.5,0.6-1.1C-0.2,0.6-0.1,0,0,0"
						/>
				</g>
				<g id="g644" transform="translate(340.5944,142.2829)">
					<path id="path646" class="st9" d="M0,0c0.1-0.1,0.7,0.1,1.4,0c0.8,0,1.3-0.3,1.4-0.2c0.1,0.1-0.5,0.6-1.4,0.6
						C0.6,0.5-0.1,0.1,0,0"/>
				</g>
				<g id="g648" transform="translate(340.0988,145.3044)">
					<path id="path650" class="st9" d="M0,0c0-0.1,0.5-0.1,1.4,0c0.4,0.1,0.9,0.2,1.4,0.4c0.3,0.1,0.5,0.3,0.8,0.4
						C3.7,1,3.9,1,4,1.2c0.1,0.1,0.2,0.5,0.1,0.7C3.9,2.1,3.7,2.2,3.5,2.2c-0.2,0-0.4,0-0.5-0.1C2.7,2.1,2.4,2,2.1,1.9
						C1.6,1.6,1.2,1.3,0.9,1C0.2,0.4,0-0.1,0-0.1c0.1,0,0.4,0.4,1,0.9C1.4,1,1.8,1.3,2.3,1.5c0.2,0.1,0.5,0.2,0.8,0.2
						c0.3,0.1,0.5,0.1,0.6,0c0,0,0-0.1,0-0.2C3.6,1.4,3.5,1.3,3.4,1.3C3.1,1.1,2.9,1,2.6,0.8C2.1,0.6,1.7,0.4,1.3,0.3
						C0.5,0.1,0,0.1,0,0"/>
				</g>
				<g id="g652">
					<g id="g654">
					</g>
					<g id="g666">
						<g>
							<defs>
								<rect id="SVGID_21_" x="338.3" y="141.2" width="17.6" height="4.1"/>
							</defs>
							<clipPath id="SVGID_22_">
								<use xlink:href="#SVGID_21_"  style="overflow:visible;"/>
							</clipPath>
							<g id="g664" class="st19">
								<g id="g662" transform="translate(353.6847,144.8278)">
									<path id="path660" d="M0,0l0-3.1L-13.2-3l0,2.8L0,0z"/>
								</g>
							</g>
						</g>
					</g>
				</g>
				<g id="g668" transform="translate(402.359,271.0373)">
					<path id="path670" class="st20" d="M0,0l-2.5-9.3l-7.3,8.5l3.9,8.5L0,3.5V0z"/>
				</g>
				<g id="g672" transform="translate(403.7799,348.7741)">
					<path id="path674" class="st12" d="M0,0c0,0,3.7-4,4.1-8.3c0.4-4.3,6.8-43,6.8-43S1-75.9-1.4-77.7l-7.5,3.1l6.2,26.4l-4.5,17.9
						L0,0z"/>
				</g>
				<g id="g676" transform="translate(413.0631,295.4186)">
					<path id="path678" class="st9" d="M0,0c0.1-0.1-1.7-0.7-3.9-0.2c-2.2,0.6-3.4,2-3.3,2.1c0.1,0.1,1.4-1,3.4-1.5
						C-1.7-0.2,0,0.2,0,0"/>
				</g>
				<g id="g680" transform="translate(412.0826,316.1071)">
					<path id="path682" class="st21" d="M0,0c0,0-0.7-0.5-1.9-1.2S-4.7-2.8-6.5-4s-3.3-2.2-4.4-3c-1.1-0.8-1.8-1.3-1.8-1.3
						c0,0,0.1,0.2,0.4,0.4c0.3,0.3,0.7,0.6,1.3,1c1.1,0.8,2.6,2,4.4,3.1C-4.9-2.6-3.2-1.6-2-1c0.6,0.3,1.1,0.6,1.5,0.7
						C-0.2-0.1,0,0,0,0"/>
				</g>
				<g id="g684" transform="translate(408.9977,329.3957)">
					<path id="path686" class="st21" d="M0,0c0,0-0.7-0.3-1.8-0.8c-1.1-0.5-2.6-1.3-4.1-2.3c-1.5-1-2.8-2.1-3.7-2.9
						C-10.5-6.8-11-7.3-11-7.3c0,0,0.1,0.2,0.3,0.4c0.2,0.3,0.6,0.6,1,1C-8.8-5-7.6-3.9-6-2.9c1.5,1,3.1,1.8,4.2,2.2
						c0.6,0.2,1,0.4,1.3,0.5C-0.2,0,0,0,0,0"/>
				</g>
				<g id="g688" transform="translate(407.4049,340.7888)">
					<path id="path690" class="st21" d="M0,0c0-0.1-1.8-0.2-3.8-1.3c-2-1-3.2-2.4-3.2-2.4c0,0,0.2,0.4,0.8,0.9C-5.8-2.2-5-1.5-3.9-1
						c1,0.5,2,0.8,2.7,0.9C-0.5,0.1,0,0,0,0"/>
				</g>
				<g id="g692" transform="translate(413.1715,298.0353)">
					<path id="path694" class="st21" d="M0,0c0,0-0.6,0.3-1.7,0.7c-1,0.4-2.5,0.8-4.2,1c-1.7,0.2-3.2,0-4.3-0.2
						C-11.3,1.3-12,1.1-12,1.1c0,0,0.2,0.1,0.4,0.2c0.3,0.1,0.7,0.3,1.3,0.4C-9.1,2-7.6,2.2-5.8,2c1.7-0.2,3.2-0.6,4.3-1.1
						c0.5-0.2,0.9-0.4,1.2-0.6C-0.1,0.1,0,0,0,0"/>
				</g>
				<g id="g696" transform="translate(406.7623,283.4987)">
					<path id="path698" class="st21" d="M0,0c0,0-0.3,0.6-0.8,1.5c-0.5,0.9-1.4,2-2.5,3.1c-1.2,1.1-2.4,1.8-3.3,2.3
						c-0.9,0.5-1.5,0.7-1.5,0.7c0,0,0.2,0,0.4-0.1c0.3-0.1,0.7-0.2,1.2-0.4c1-0.4,2.2-1.2,3.4-2.3c1.2-1.1,2-2.3,2.5-3.2
						c0.2-0.5,0.4-0.9,0.5-1.1C0,0.2,0,0,0,0"/>
				</g>
				<g id="g700" transform="translate(342.1368,273.9313)">
					<path id="path702" class="st20" d="M0,0c0.1-0.4,3.7-9.8,3.7-9.8l6,2.6l0.5,7.9L7.8,4.9L0,0z"/>
				</g>
				<g id="g704" transform="translate(362.9205,361.6418)">
					<path id="path706" class="st12" d="M0,0c-0.9,0-15.1-6.5-17.6-8.1s-16.5-52.6-16.5-55.3c0-2.7,13.3-25.8,13.3-25.8
						s7.1,3.2,8,3.9c0.9,0.7-6.3,23.6-6.3,23.6l5.9,21.8L0,0z"/>
				</g>
				<g id="g708" transform="translate(341.6359,298.0324)">
					<path id="path710" class="st9" d="M0,0c0,0-0.3-0.6-1.1-1.2c-0.8-0.6-2-1.3-3.5-1.7C-6.1-3.2-7.5-3-8.5-2.8
						c-1,0.3-1.5,0.6-1.5,0.7c0,0.1,0.6-0.1,1.6-0.3c0.9-0.2,2.3-0.2,3.7,0.1C-3.3-2-2.1-1.4-1.3-0.9C-0.5-0.4-0.1,0.1,0,0"/>
				</g>
				<g id="g712" transform="translate(347.4562,286.113)">
					<path id="path714" class="st21" d="M0,0c0-0.1-0.6-0.2-1.6-0.6C-2.6-1-4-1.7-5.2-2.7c-1.3-1-2.2-2.2-2.8-3.1
						C-8.6-6.7-8.9-7.3-9-7.3c0,0,0,0.2,0.2,0.5c0.1,0.3,0.3,0.7,0.6,1.2c0.6,0.9,1.5,2.2,2.8,3.2c1.3,1.1,2.7,1.7,3.7,2.1
						c0.5,0.2,0.9,0.3,1.2,0.3C-0.2,0,0,0,0,0"/>
				</g>
				<g id="g716" transform="translate(342.9923,294.3054)">
					<path id="path718" class="st21" d="M0,0c0,0-0.4-0.5-1.3-1.1c-0.8-0.6-2.1-1.3-3.6-1.7c-1.5-0.5-2.9-0.6-4-0.6
						c-1,0-1.7,0.1-1.7,0.1c0,0.1,0.6,0,1.6,0.1C-7.8-3.2-6.4-3-5-2.5c1.5,0.5,2.7,1.1,3.6,1.6C-0.5-0.4,0,0,0,0"/>
				</g>
				<g id="g720" transform="translate(344.0592,305.0031)">
					<path id="path722" class="st21" d="M0,0c0,0-0.7,0.2-1.8,0.6C-2.9,1-4.4,1.4-6.1,1.8c-1.7,0.3-3.3,0.5-4.4,0.6
						c-1.1,0.1-1.9,0.1-1.9,0.2c0,0,0.7,0.1,1.9,0.1c1.2,0,2.7-0.2,4.5-0.5c1.7-0.4,3.3-0.8,4.3-1.3C-0.6,0.4,0,0,0,0"/>
				</g>
				<g id="g724" transform="translate(346.9166,315.5314)">
					<path id="path726" class="st21" d="M0,0c0,0-0.5,0.6-1.3,1.4C-2.1,2.3-3.4,3.3-5,4.2C-6.7,5-8.3,5.4-9.4,5.6
						c-1.2,0.2-1.9,0.2-1.9,0.2c0,0,0.2,0,0.5,0.1c0.3,0,0.8,0,1.4,0c1.2-0.1,2.9-0.5,4.5-1.3c1.7-0.8,2.9-2,3.7-2.9
						c0.4-0.5,0.7-0.8,0.9-1.1C-0.1,0.2,0,0,0,0"/>
				</g>
				<g id="g728" transform="translate(346.1202,333.3693)">
					<path id="path730" class="st21" d="M0,0c-0.1-0.1-1.2,1.2-3.2,1.8c-2,0.6-3.7,0.2-3.7,0.3c0,0.1,1.7,0.6,3.8,0
						C-1.1,1.5,0.1,0,0,0"/>
				</g>
				<g id="g732">
					<g id="g734">
					</g>
					<g id="g746">
						<g>
							<defs>
								<rect id="SVGID_23_" x="345.5" y="314.4" width="3.9" height="30"/>
							</defs>
							<clipPath id="SVGID_24_">
								<use xlink:href="#SVGID_23_"  style="overflow:visible;"/>
							</clipPath>
							<g id="g744" class="st22">
								<g id="g742" transform="translate(348.9147,318.1393)">
									<path id="path740" d="M0,0c-1,3.7-2,7.4-2.6,11.1s-0.5,7.7,0.4,11.4c1.6-7.2,1.7-14.7,1.9-22.1c0,0.2-0.1,0.4-0.1,0.6"/>
								</g>
							</g>
						</g>
					</g>
				</g>
				<g id="g748" transform="translate(345.858,344.257)">
					<path id="path750" class="st21" d="M0,0c-0.1,0-0.3,0.9-0.9,1.8c-0.7,0.9-1.5,1.4-1.5,1.5c0,0.1,1-0.3,1.7-1.3C0,1,0.1,0,0,0"
						/>
				</g>
				<g id="g752" transform="translate(345.8766,276.634)">
					<path id="path754" class="st9" d="M0,0l-4.3-61.9c0,0-3.3-24.9-3.3-32.8c0-7.8,1.1-37.9,1.1-37.9H8.8l15.6,107
						c0,0,1.6,1.3,1.8,0c0.2-1.3,9.1-39.6,10-45.8c0.7-4.9,6.4-59.9,6.4-59.9l13.2,0.6c0,0,1.2,49.6,0.3,65.5l-2.3,54.8L50.6,5.1
						L7.4,6.7L0,0z"/>
				</g>
				<g id="g756" transform="translate(387.0016,254.9499)">
					<path id="path758" class="st8" d="M0,0c0-0.1-5.7-1.1-12.8-2.2C-19.9-3.2-25.7-4-25.7-3.8s5.7,1.1,12.8,2.2C-5.8-0.6,0,0.1,0,0
						"/>
				</g>
				<g id="g760" transform="translate(355.9879,208.9958)">
					<path id="path762" class="st8" d="M0,0c0.1-0.1-2.5-1.6-5.6-3.6c-3.1-2-5.4-3.9-5.5-3.8C-11.1-7.3-9-5.2-5.9-3.2
						C-2.8-1.1-0.1,0.1,0,0"/>
				</g>
				<g id="g764" transform="translate(398.9371,209.4597)">
					<path id="path766" class="st8" d="M0,0c0-0.2-2.6,0.4-5.8,0c-3.2-0.4-5.5-1.7-5.6-1.6C-11.5-1.5-9.2,0-5.9,0.5
						C-2.6,1,0.1,0.1,0,0"/>
				</g>
				<g id="g768" transform="translate(379.2076,360.614)">
					<path id="path770" class="st9" d="M0,0c0,0-0.4,0-1.1,0c-0.7,0-1.8,0.1-3.1,0.3c-1.3,0.2-2.9,0.6-4.5,1.3
						c-1.6,0.8-3.2,2-4.3,3.8c-1.1,1.8-1.5,3.7-1.8,5.4c-0.3,1.7-0.4,3.3-0.6,4.6c-0.4,2.6-1.1,4.1-1,4.1c0,0,0.2-0.3,0.5-1
						c0.3-0.7,0.6-1.7,0.9-3c0.3-1.3,0.5-2.8,0.8-4.5c0.3-1.7,0.7-3.6,1.7-5.2c1-1.7,2.5-2.8,4-3.6C-7,1.4-5.4,1-4.2,0.7
						C-1.6,0.2,0,0.1,0,0"/>
				</g>
				<g id="g772" transform="translate(372.2477,404.8932)">
					<path id="path774" class="st9" d="M0,0l0.4,0.1c1.1,2.1,3.4,3.3,5.8,3.5c2.3,0.1,4.7-0.8,6.4-2.4c1.2-1.1,2.2-2.4,3.4-3.5
						c1.2-1.1,2.9-1.9,4.5-1.5c0.2-0.6-0.9-0.9-0.8-1.6C19.7-5.8,20-6,20.3-6c0.4-0.1,0.9,0,1.3,0c0.4,0,0.9-0.2,1-0.6
						c0.1-0.2,0-0.4-0.1-0.6c-0.5-1.9-1.3-3.7-2.6-5.1c-1.3-1.4-3.3-2.2-5.2-1.9C13.3-14,12-13,10.8-12C8.5-10.2,6.3-8.4,4-6.5
						c-1,0.8-2.1,1.7-2.9,2.8C0.3-2.7-0.2-1.3,0,0"/>
				</g>
				<g id="g776" transform="translate(373.67,404.5148)">
					<path id="path778" class="st9" d="M0,0c-0.9,0.7-2,1.3-3.2,1.6c-1.2,0.2-2.5,0-3.4-0.7C-7.5,0.3-8-0.7-8.7-1.7s-1.5-1.8-2.6-2
						c-0.2,0-0.4,0-0.5-0.2C-12-4-11.9-4.5-11.5-4.6c0.3-0.1,0.7-0.1,1,0c-0.5-0.6-1.3-1.1-2.1-1.2c0.2-0.8,1.1-1.4,1.9-1.1
						c-0.3-1.3-0.6-2.6-0.6-3.9c0-1.3,0.4-2.7,1.3-3.7c1-1.1,2.6-1.7,3-3.1"/>
				</g>
				<g id="g780" transform="translate(383.235,357.7556)">
					<path id="path782" class="st20" d="M0,0l-17.7,0.2l2,15.1c0,0-1.2,0.3-1.3,6.8s-0.4,17.7-0.4,17.7C-9.8,43.2-1,42.1,5.5,37
						l1-0.8L0,0z"/>
				</g>
				<g id="g784" transform="translate(387.6627,385.9387)">
					<path id="path786" class="st20" d="M0,0c0.1,0,4.5,1.3,4.4-3.2C4.2-7.6-0.3-6.6-0.3-6.4C-0.3-6.3,0,0,0,0"/>
				</g>
				<g id="g788" transform="translate(366.5621,386.8766)">
					<path id="path790" class="st20" d="M0,0c-0.1,0-4.1,1.1-4-3.4c0.1-4.5,4.6-3.4,4.6-3.3C0.7-6.5,0,0,0,0"/>
				</g>
				<g id="g792" transform="translate(389.1188,386.4401)">
					<path id="path794" class="st9" d="M0,0c-0.7-3.8-0.5-5.7-1.2-8.3c-1-4-3-7-6.5-9c-3.6-2-8.4-2-11.5,0.8c-2.1,1.9-3.7,4-4,6.8
						c-0.3,2.8-1.1,8.1-1.2,11c0,5.1,0.1,9.7,0.1,9.7l14.7,2.7l8.3-5L0,0z"/>
				</g>
				<g id="g796" transform="translate(374.0031,366.8976)">
					<path id="path798" class="st9" d="M0,0c0-0.1,1.1-0.4,2.6-0.2C4-0.1,5.1,0.5,5,0.6c0,0.1-1.1-0.2-2.5-0.4C1.1,0,0,0.1,0,0"/>
				</g>
				<g id="g800" transform="translate(388.4108,380.0402)">
					<path id="path802" class="st9" d="M0,0c0.4,3.9,0.7,8.3,1.3,12.3c0.2,1.5,0.8,3.7,0.6,5.3c-0.1,1.5-0.6,1.1-1.2,2.5
						c-0.9,1.7-4.1,2.9-6,3.3c-1.9,0.4-2.1,2-3.6,0.8c-1.1,1.6-3.2,2.4-5,2c-1.9-0.4-3.4-2.1-3.6-4c-1,1-2.8,1.2-4,0.4
						c-1.2-0.7-1.9-2.4-1.5-3.7c-1.1-0.2-2-0.9-2.4-1.9c-0.4-1-0.3-2.2,0.2-3.1c0.7-1,1.9-1.6,2.7-2.6c0.9-1.1,1-2.8,0.2-4.1"/>
				</g>
				<g id="g804" transform="translate(369.5314,380.8434)">
					<path id="path806" class="st8" d="M0,0c-0.1,0-0.3-1.8,0.5-3.9c0.8-2.1,2.2-3.4,2.2-3.3c0.1,0.1-1.1,1.4-1.8,3.4
						C0.1-1.8,0.1,0,0,0"/>
				</g>
				<g id="g808" transform="translate(367.5621,384.1203)">
					<path id="path810" class="st8" d="M0,0c-0.1,0-0.7-1.6-0.3-3.6c0.4-2,1.5-3.3,1.5-3.2c0.1,0.1-0.8,1.4-1.1,3.3
						C-0.2-1.6,0.1,0,0,0"/>
				</g>
				<g id="g812" transform="translate(390.4625,389.3117)">
					<path id="path814" class="st12" d="M0,0c0,0,2.4,0,3.1-1.1C3.8-2.3,2.9-10.6,2-11.3c-0.9-0.7-4.6,0.4-4.6,0.4S-1-2.5-1.6-0.3
						L0,0z"/>
				</g>
				<g id="g816" transform="translate(362.5851,389.9123)">
					<path id="path818" class="st12" d="M0,0c0,0-1.7-0.6-2.4-1.7c-0.7-1.1,0.1-8.9,1-9.6c0.9-0.7,4.6,0.4,4.6,0.4S1.7-2.1,2.3,0H0z
						"/>
				</g>
				<g id="g820" transform="translate(362.5851,389.9123)">
					<path id="path822" class="st12" d="M0,0c0,0,0.8,14.5,14.6,14.7s14-15.4,14-15.4l-2.1-0.2c0,0,0.5,14.2-11.3,14.7
						C3.3,14.4,1.4,0.5,2.3,0H0z"/>
				</g>
				<g id="g824" transform="translate(386.0162,399.6516)">
					<path id="path826" class="st9" d="M0,0c-1.1,1.8-2.6,3.3-4.6,4.1c-1.9,0.8-4.3,0.6-5.9-0.7"/>
				</g>
				<g id="g828" transform="translate(385.6471,389.7072)">
					<path id="path830" class="st8" d="M0,0c-0.1,0,0,0.5,0.1,1.3c0.1,0.8,0.3,1.9,0.3,3.1c0,1.2-0.3,2.3-0.7,3
						c-0.4,0.7-0.7,1.1-0.7,1.1c0,0,0.5-0.2,1-1C0.6,6.9,1,5.7,1,4.4C1,3.2,0.7,2,0.5,1.2C0.3,0.5,0.1,0,0,0"/>
				</g>
				<g id="g832" transform="translate(382.6168,388.2209)">
					<path id="path834" class="st8" d="M0,0c-0.1,0.1,0.2,1,0.6,2.1c0.4,1.1,0.6,2,0.7,2c0.1,0,0.1-1-0.2-2.2C0.7,0.7,0.1-0.1,0,0"
						/>
				</g>
				<g id="g836" transform="translate(368.5441,389.3752)">
					<path id="path838" class="st8" d="M0,0c0,0-0.6,0.5-1,1.6c-0.5,1.1-0.8,2.8-0.4,4.6c0.4,1.8,1.3,3.2,2.2,4
						c0.8,0.8,1.5,1.1,1.5,1.1c0-0.1-0.5-0.5-1.3-1.3C0.2,9.1-0.6,7.7-0.9,6.1C-1.3,4.4-1,2.8-0.7,1.7C-0.3,0.7,0.1,0,0,0"/>
				</g>
				<g id="g840" transform="translate(384.5621,406.09)">
					<path id="path842" class="st8" d="M0,0c0-0.1-0.6,0.2-1.4,0.6C-2.3,1-3.6,1.5-5,1.5c-1.4,0-2.6-0.7-3.2-1.4
						C-8.8-0.6-8.9-1.2-9-1.2c-0.1,0-0.1,0.7,0.5,1.5c0.3,0.4,0.8,0.8,1.4,1.1C-6.5,1.8-5.8,2-5,2c1.6,0,2.9-0.6,3.7-1.1
						C-0.4,0.4,0,0.1,0,0"/>
				</g>
				<g id="g844" transform="translate(364.5245,401.9265)">
					<path id="path846" class="st8" d="M0,0c-0.1,0,0,0.5,0.5,1.2C1,1.8,1.9,2.6,3.1,3c1.2,0.4,2.4,0.2,3.1-0.2
						C7,2.5,7.3,2.2,7.3,2.1c0-0.1-0.5,0.2-1.2,0.4c-0.7,0.2-1.8,0.3-2.9,0C2.1,2.2,1.3,1.5,0.8,1C0.3,0.4,0.1,0,0,0"/>
				</g>
				<g id="g848" transform="translate(369.3566,385.4133)">
					<path id="path850" class="st8" d="M0,0c0,0.1,0.7,0.3,1.9,0.8c1.2,0.5,2.8,1.4,4.3,2.9l0.8,0.8L6.6,3.5C6.4,2.8,6.1,2.1,6,1.3
						C5.9,1,5.9,0.5,6,0.4c0.1-0.1,0.5,0.1,0.8,0.3C8,1.5,9,2.4,9.9,3.4l0.8,0.9l-0.4-1.2C9.9,2,9.6,0.9,9.3,0L9,0.2
						c2.1,1.9,2.8,3.7,2.9,3.6c0,0-0.1-0.5-0.5-1.2c-0.4-0.7-1.1-1.7-2.1-2.7L8.7-0.7l0.2,0.8c0.3,1,0.6,2.1,0.9,3.2l0.4-0.2
						c-0.8-1-1.9-2-3.1-2.8C6.9,0.2,6.8,0.1,6.5,0C6.3-0.1,6-0.2,5.7,0C5.4,0.2,5.4,0.6,5.4,0.8c0,0.2,0.1,0.4,0.1,0.6
						C5.6,2.2,5.9,3,6.2,3.6l0.4-0.3C5,1.9,3.3,1,2,0.5C0.8,0.1,0,0,0,0"/>
				</g>
				<g id="g852" transform="translate(377.9303,402.739)">
					<path id="path854" class="st9" d="M0,0c-0.3,0.5-0.8,0.9-1.4,1.1s-1.2,0.2-1.8,0c-1.5-0.3-2.9-1.1-3.8-2.2
						C-7.3-1.3-7.5-1.7-7.2-2c0.1-0.1,0.3-0.2,0.5-0.2c2.2-0.2,4.4-0.1,6.6,0.2"/>
				</g>
				<g id="g856" transform="translate(363.9171,378.4216)">
					<path id="path858" class="st9" d="M0,0c-0.1,0-0.9,2.5-1.3,5.6c-0.4,3.2-0.2,5.8-0.1,5.8c0.2,0,0.2-2.6,0.6-5.7
						C-0.4,2.6,0.1,0,0,0"/>
				</g>
				<g id="g860" transform="translate(389.3033,378.0827)">
					<path id="path862" class="st9" d="M0,0c-0.1,0,0.3,0.6,0.7,1.5c0.4,0.9,0.8,2.3,1,3.9c0.2,1.6,0.2,3,0.2,4c0,1,0,1.7,0.1,1.7
						c0.1,0,0.2-0.6,0.3-1.7c0.1-1,0.1-2.5-0.1-4.1C2,3.7,1.5,2.3,1,1.4C0.5,0.4,0,0,0,0"/>
				</g>
				<g id="g864" transform="translate(387.9713,361.9973)">
					<path id="path866" class="st9" d="M0,0c-0.1,0,0,0.9,0.1,2.3C0.3,3.8,0.5,5.8,0.7,8c0.2,2.2,0.3,4.2,0.4,5.6
						c0.1,1.4,0.2,2.3,0.2,2.3c0.1,0,0.1-0.9,0.1-2.3c0-1.5-0.1-3.5-0.2-5.7C1,5.7,0.7,3.7,0.5,2.3C0.3,0.9,0.1,0,0,0"/>
				</g>
				<g id="g868" transform="translate(388.8678,388.7507)">
					<path id="path870" class="st9" d="M0,0c-0.1,0.1,1,0.7,2.3,0.6c1.4-0.1,2.3-0.7,2.3-0.8C4.6-0.4,3.6,0,2.3,0.1
						C1.1,0.1,0.1-0.1,0,0"/>
				</g>
				<g id="g872" transform="translate(359.9625,387.8449)">
					<path id="path874" class="st9" d="M0,0c-0.1,0,0,0.4,0.3,0.8c0.3,0.5,0.9,1,1.7,1.4c0.8,0.3,1.6,0.4,2.1,0.3
						C4.7,2.4,5,2.2,5,2.2c0-0.2-1.3,0.2-2.8-0.5C0.8,1.1,0.1-0.1,0,0"/>
				</g>
				<g id="g876" transform="translate(401.7487,335.4553)">
					<path id="path878" class="st12" d="M0,0c-0.7-0.7-5.6-26.2-6.1-31.2c-0.5-5,5.8-25.6,2.1-30.6l-2.1-0.6h-50.1l4.3,34.8l-2,29.1
						l0.4,18l14.8,6.6h21.7c0,0,19.2-11.3,19.2-12.9C2,11.7,0,0,0,0"/>
				</g>
				<g id="g880" transform="translate(345.8771,275.633)">
					<path id="path882" class="st9" d="M0,0c0,0,0,0.2,0,0.7C0,1.1,0,1.7,0.1,2.5c0.1,1.6,0.4,4,0.7,6.9c0.7,5.8,1.7,13.9,2.9,22.9
						l0-0.1c0,0.4-0.1,0.9-0.1,1.3c-0.9,9.3-1.4,17.8-1.9,23.9c-0.2,3-0.4,5.5-0.6,7.2c-0.1,0.8-0.1,1.5-0.1,2c0,0.5,0,0.7,0,0.7
						c0,0,0.1-0.2,0.1-0.7c0.1-0.5,0.1-1.2,0.2-2C1.5,63,1.7,60.6,2,57.5c0.6-6.1,1.2-14.6,2.1-23.9c0-0.5,0.1-0.9,0.1-1.3l0,0l0,0
						C3,23.3,2,15.3,1.2,9.4C0.8,6.5,0.5,4.2,0.3,2.5C0.2,1.8,0.1,1.1,0.1,0.7C0,0.2,0,0,0,0"/>
				</g>
				<g id="g884" transform="translate(396.8024,272.4308)">
					<path id="path886" class="st9" d="M0,0c0,0,0.1,0.2,0.4,0.5C0.7,0.8,1,1.3,1.4,2c0.4,0.7,0.8,1.6,0.9,2.7
						c0.1,1.1-0.2,2.4-0.4,3.8c-0.9,5.7-2.2,13.6-3.7,22.6l0,0l0,0c0.3,1.4,0.6,2.9,0.8,4.5c1.7,10,2.9,19.1,3.9,25.7
						c0.5,3.2,0.8,5.9,1.1,7.8c0.1,0.9,0.2,1.6,0.3,2.1C4.4,71.7,4.4,72,4.5,72c0,0,0-0.3,0-0.7c-0.1-0.5-0.1-1.2-0.2-2.1
						c-0.2-1.9-0.6-4.6-1-7.8c-0.9-6.6-2-15.7-3.7-25.7C-0.7,34-1,32.5-1.3,31.1l0,0.1c1.5-8.9,2.8-16.9,3.6-22.6
						c0.2-1.4,0.4-2.7,0.3-3.9C2.4,3.5,2,2.6,1.6,1.9C1.2,1.2,0.8,0.7,0.5,0.4C0.2,0.1,0,0,0,0"/>
				</g>
				<g id="g888" transform="translate(388.5729,362.7824)">
					<path id="path890" class="st12" d="M0,0c-0.4,0.7-1.3,1.2-2.1,0.9c0.4,0.9-0.8,1.9-1.8,1.8c-1-0.1-1.9-0.8-2.7-1.3
						c-3.7-2.5-8.9-2.6-12.8-0.4c-1.7,1-3.3,2.5-5.3,2.4c-2.2-0.1-3.8-2-5.1-3.8c-0.7-0.9-1.4-2.1-0.9-3.2l0.8,0.1
						c1.6-4.3,3.2-8.9,6.8-11.9c4.3-3.6,11-4,15.9-1.2C-2.3-13.7,0.7-8,0.5-2.4C0.5-1.6,0.4-0.7,0,0"/>
				</g>
				<g id="g892" transform="translate(389.2213,358.7922)">
					<path id="path894" class="st9" d="M0,0c0,0,0-0.2-0.1-0.5c-0.1-0.3-0.2-0.8-0.3-1.4C-0.8-3-1.3-4.7-2.2-6.7
						c-1-2-2.4-4.2-4.7-6.1c-1.1-0.9-2.5-1.7-4-2.3c-1.5-0.5-3.2-0.8-4.9-0.6c-1.7,0.2-3.3,0.7-4.7,1.4c-1.4,0.7-2.8,1.5-3.9,2.3
						c-1.2,0.9-2.1,1.9-2.8,3c-0.7,1.1-1.2,2.2-1.6,3.2c-0.8,2.1-1.2,3.8-1.6,4.9c-0.4,1.2-0.7,1.8-0.6,1.8c0,0,0.1-0.1,0.2-0.4
						c0.1-0.3,0.3-0.7,0.6-1.3c0.5-1.1,1-2.8,1.8-4.8c0.4-1,0.9-2.1,1.6-3.1c0.7-1,1.7-2,2.8-2.9c1.1-0.9,2.4-1.6,3.8-2.3
						c1.4-0.7,2.9-1.2,4.5-1.4c1.6-0.2,3.2,0,4.7,0.5c1.4,0.5,2.7,1.3,3.9,2.1c2.2,1.8,3.7,4,4.7,5.9c1,1.9,1.6,3.6,1.9,4.7
						C-0.2-0.6,0,0,0,0"/>
				</g>
				<g id="g896">
					<g id="g898">
					</g>
					<g id="g910">
						<g>
							<defs>
								<rect id="SVGID_25_" x="359.2" y="348" width="29.2" height="20.6"/>
							</defs>
							<clipPath id="SVGID_26_">
								<use xlink:href="#SVGID_25_"  style="overflow:visible;"/>
							</clipPath>
							<g id="g908" class="st23">
								<g id="g906" transform="translate(384.1803,364.9367)">
									<path id="path904" d="M0,0c-0.7,0.4-1.3-0.2-2-0.7C-4-2.5-7.4-2.9-10-2.7c-2.6,0.3-4.9,1-7.1,2.8c-0.7,0.5-1.5,0.9-2.3,1
										C-20.2,1.2-21,1-21.3,0.4c1.2-0.3,2-1.5,2.5-2.5c1-1.8,1.6-3.8,2.5-5.7c0.9-1.9,2-3.7,3.6-5s3.9-1.9,5.9-1.1
										c1.6,0.6,2.8,2.1,3.7,3.6c1.6,2.5,2.8,5.2,3.6,8C0.6-1.5,0.7-0.4,0,0"/>
								</g>
							</g>
						</g>
					</g>
				</g>
				<g id="g912" transform="translate(385.2711,363.9597)">
					<path id="path914" class="st9" d="M0,0c0,0-0.2-0.5-0.6-1.4C-1-2.2-1.4-3.5-1.9-5.2C-2.4-6.8-3-8.8-4.4-10.7
						C-5.1-11.6-6-12.5-7.2-13c-1.1-0.6-2.6-0.7-3.9-0.3c-1.3,0.4-2.4,1.1-3.3,2c-0.9,0.9-1.6,1.9-2.1,2.9c-1.1,2-1.7,4-2.5,5.5
						c-0.7,1.5-1.5,2.7-2.2,3.4c-0.6,0.7-1.1,1-1,1c0,0,0.1-0.1,0.3-0.2c0.2-0.1,0.5-0.4,0.9-0.7c0.7-0.7,1.6-1.8,2.4-3.3
						c0.8-1.5,1.5-3.5,2.6-5.4c0.5-1,1.2-2,2-2.8c0.8-0.8,1.9-1.6,3.1-1.9c1.2-0.4,2.5-0.2,3.5,0.3c1.1,0.5,1.9,1.3,2.6,2.2
						c1.4,1.7,2,3.7,2.6,5.3c0.5,1.6,1,2.9,1.5,3.8c0.2,0.4,0.4,0.8,0.5,1C-0.1-0.1,0,0,0,0"/>
				</g>
				<g id="g916" transform="translate(385.6754,356.4006)">
					<path id="path918" class="st9" d="M0,0c0,0,0-0.4-0.2-1c-0.2-0.6-0.6-1.5-1.3-2.4C-2.8-5.3-5.4-7.5-9-8.1
						c-3.6-0.6-6.8,0.7-8.6,2.1c-0.9,0.7-1.6,1.4-2,1.9c-0.4,0.5-0.6,0.8-0.5,0.8c0.1,0.1,0.9-1.1,2.7-2.4c1.8-1.2,4.9-2.4,8.3-1.9
						C-5.7-7-3.1-4.9-1.8-3.2C-0.5-1.4-0.1,0,0,0"/>
				</g>
				<g id="g920" transform="translate(394.069,292.2111)">
					<path id="path922" class="st9" d="M0,0c0,0-0.1,0-0.4-0.1c-0.3,0-0.7-0.1-1.2-0.1c-1,0-2.5,0.1-4.3,0.4
						c-1.8,0.3-3.9,0.9-6.2,1.9c-2.2,0.9-4.6,2.2-7,3.6c-4.8,2.9-9,5.6-12.1,7.6c-1.5,1-2.7,1.8-3.6,2.4c-0.8,0.6-1.3,0.9-1.3,0.9
						c0,0,0.5-0.2,1.4-0.8c1-0.6,2.2-1.3,3.7-2.2c3.1-1.9,7.4-4.6,12.1-7.5c2.4-1.4,4.7-2.7,6.9-3.6c2.2-0.9,4.3-1.6,6-2
						c1.8-0.4,3.2-0.5,4.3-0.6C-0.6,0,0,0,0,0"/>
				</g>
				<g id="g924">
					<g id="g926">
					</g>
					<g id="g938">
						<g>
							<defs>
								<rect id="SVGID_27_" x="355.4" y="291" width="35.3" height="19"/>
							</defs>
							<clipPath id="SVGID_28_">
								<use xlink:href="#SVGID_27_"  style="overflow:visible;"/>
							</clipPath>
							<g id="g936" class="st24">
								<g id="g934" transform="translate(360.2032,307.6545)">
									<path id="path932" d="M0,0l-0.4-0.1C4.5-3.1,9.4-6,14.3-9c3.7-2.2,7.5-4.5,11.7-5.3C18.7-7.5,9.7-2.6,0,0"/>
								</g>
							</g>
						</g>
					</g>
				</g>
				<g id="g940">
					<g id="g942">
					</g>
					<g id="g954">
						<g>
							<defs>
								<rect id="SVGID_29_" x="354" y="337.1" width="35.5" height="25.5"/>
							</defs>
							<clipPath id="SVGID_30_">
								<use xlink:href="#SVGID_29_"  style="overflow:visible;"/>
							</clipPath>
							<g id="g952" class="st25">
								<g id="g950" transform="translate(358.7052,359.2243)">
									<path id="path948" d="M0,0c0-6.7,3.7-13.3,9.4-16.9c2-1.3,4.4-2.2,6.8-2c2.4,0.2,4.6,1.4,6.3,3c1.7,1.7,2.9,3.7,3.9,5.9
										c-2.2-3-5.8-5-9.5-5.4c-3.7-0.4-7.6,0.7-10.4,3.1C2.8-9.2,1-4.4-0.3,0.2"/>
								</g>
							</g>
						</g>
					</g>
				</g>
				<g id="g956">
					<g id="g958">
					</g>
					<g id="g970">
						<g>
							<defs>
								<rect id="SVGID_31_" x="364.7" y="346.3" width="21.9" height="7.3"/>
							</defs>
							<clipPath id="SVGID_32_">
								<use xlink:href="#SVGID_31_"  style="overflow:visible;"/>
							</clipPath>
							<g id="g968" class="st26">
								<g id="g966" transform="translate(367.506,350.7346)">
									<path id="path964" d="M0,0c2.4-2.3,5.6-3.7,8.9-3.5c3.3,0.2,6.4,2.3,7.5,5.4c-2-2.3-4.9-3.8-7.9-4.1
										c-3-0.3-6.2,0.6-8.5,2.5"/>
								</g>
							</g>
						</g>
					</g>
				</g>
				<g id="g972" transform="translate(359.4381,353.5627)">
					<path id="path974" class="st21" d="M0,0c0,0-0.8-0.2-2.1-0.4s-3.1-0.5-5-0.8c-2-0.4-3.7-0.7-5-1c-1.3-0.3-2.1-0.4-2.1-0.4
						c0,0,0.2,0.1,0.5,0.2s0.9,0.3,1.5,0.4c1.3,0.3,3,0.7,5,1.1c2,0.4,3.8,0.6,5.1,0.7C-1.5-0.1-0.9,0-0.6,0C-0.2,0,0,0,0,0"/>
				</g>
				<g id="g976" transform="translate(365.2882,361.7726)">
					<path id="path978" class="st21" d="M0,0c0-0.1-1.8-0.4-3.4-1.9C-5-3.4-5.4-5.2-5.5-5.2c0,0,0,0.5,0.3,1.1
						C-5-3.4-4.4-2.5-3.6-1.7c0.8,0.8,1.7,1.3,2.4,1.5C-0.5,0,0,0,0,0"/>
				</g>
				<g id="g980" transform="translate(367.131,351.548)">
					<path id="path982" class="st21" d="M0,0c0-0.1-0.8-0.5-1.6-1.4C-2.4-2.2-2.7-3.1-2.8-3c-0.1,0,0.2,1,1,1.9C-1-0.3,0,0.1,0,0"/>
				</g>
				<g id="g984" transform="translate(369.7628,353.9777)">
					<path id="path986" class="st21" d="M0,0c0-0.1-0.7-0.3-1.5-0.8c-0.8-0.5-1.3-1.1-1.4-1c-0.1,0,0.4,0.7,1.2,1.3
						C-0.8,0,0,0.1,0,0"/>
				</g>
				<g id="g988" transform="translate(373.5685,343.8244)">
					<path id="path990" class="st21" d="M0,0c0-0.1-0.8,0.8-0.9,2.1C-1,3.4-0.4,4.3-0.3,4.3c0.1,0-0.4-1-0.3-2.2
						C-0.5,0.9,0.1,0.1,0,0"/>
				</g>
				<g id="g992" transform="translate(377.653,348.9094)">
					<path id="path994" class="st21" d="M0,0c0-0.1-0.4,0.1-0.5,0.6c-0.1,0.5,0.1,0.8,0.2,0.8c0.1,0,0-0.4,0.1-0.7
						C-0.1,0.3,0.1,0.1,0,0"/>
				</g>
				<g id="g996" transform="translate(382.5436,347.4821)">
					<path id="path998" class="st21" d="M0,0c-0.1,0,0.3,0.7,0.1,1.5c-0.2,0.8-0.8,1.2-0.7,1.3c0,0,0.2,0,0.4-0.2
						C0,2.4,0.3,2,0.4,1.6c0.1-0.5,0-0.9-0.1-1.2C0.2,0.1,0,0,0,0"/>
				</g>
				<g id="g1000" transform="translate(384.7213,353.9758)">
					<path id="path1002" class="st21" d="M0,0c-0.1,0-0.2,0.7-1,1.1c-0.7,0.4-1.4,0-1.4,0.1c0,0,0.1,0.2,0.4,0.3
						c0.3,0.1,0.8,0.1,1.2-0.1C-0.4,1.2-0.1,0.8,0,0.5C0.1,0.2,0,0,0,0"/>
				</g>
				<g id="g1004" transform="translate(387.9274,356.8127)">
					<path id="path1006" class="st21" d="M0,0c-0.1,0-0.1,0.3-0.2,0.8c-0.2,0.5-0.5,1.1-1.1,1.6C-1.9,2.8-2.5,3.1-3,3.2
						c-0.5,0.1-0.8,0-0.8,0.1c0,0,0.3,0.2,0.8,0.1c0.5,0,1.3-0.3,1.9-0.8C-0.5,2-0.1,1.4,0,0.8C0.1,0.3,0,0,0,0"/>
				</g>
				<g id="g1008" transform="translate(399.7213,340.4523)">
					<path id="path1010" class="st21" d="M0,0c0,0-0.2,0-0.5,0C-0.9,0-1.4,0-2,0c-1.4,0-3.3,0.1-5.6,0.1C-12.3,0.2-18.8,0.3-26,0.2
						c-7.2,0-13.7-0.2-18.4-0.3c-2.3-0.1-4.2-0.1-5.6-0.2c-0.6,0-1.1,0-1.5,0c-0.3,0-0.5,0-0.5,0c0,0,0.2,0,0.5,0.1
						c0.4,0,0.9,0.1,1.5,0.1c1.4,0.1,3.3,0.1,5.6,0.3c4.7,0.2,11.2,0.3,18.4,0.4c7.2,0,13.7-0.1,18.4-0.2C-5.3,0.2-3.4,0.2-2,0.1
						c0.6,0,1.1-0.1,1.5-0.1C-0.2,0,0,0,0,0"/>
				</g>
				<g id="g1012" transform="translate(398.7145,351.7482)">
					<path id="path1014" class="st21" d="M0,0c0,0-0.6,0.1-1.5,0.2c-0.9,0.2-2.3,0.4-3.7,0.6C-6.7,1-8,1.1-9,1.2
						c-1,0.1-1.6,0.1-1.5,0.2c0,0,0.6,0.1,1.6,0c1,0,2.3-0.1,3.8-0.3c1.5-0.2,2.8-0.5,3.7-0.7C-0.6,0.2,0,0,0,0"/>
				</g>
				<g id="g1016" transform="translate(397.9078,325.9855)">
					<path id="path1018" class="st21" d="M0,0c0,0-0.2,0-0.5-0.1c-0.4,0-0.9-0.1-1.4-0.1c-1.2-0.1-3-0.2-5.2-0.3
						c-4.4-0.2-10.5-0.4-17.3-0.4c-6.7,0-12.8,0.1-17.3,0.3c-2.2,0.1-4,0.2-5.2,0.2c-0.6,0-1,0.1-1.4,0.1c-0.3,0-0.5,0-0.5,0.1
						c0,0,0.2,0,0.5,0c0.4,0,0.9,0,1.4,0c1.3,0,3.1-0.1,5.2-0.1c4.4-0.1,10.5-0.2,17.3-0.2c6.7,0,12.8,0.2,17.3,0.3
						C-5-0.1-3.2-0.1-1.9,0c0.6,0,1,0,1.4,0C-0.2,0,0,0,0,0"/>
				</g>
				<g id="g1020" transform="translate(396.2877,310.3723)">
					<path id="path1022" class="st21" d="M0,0c0,0-0.2,0-0.5,0c-0.4,0-0.8,0-1.3-0.1C-3-0.2-4.6-0.2-6.7-0.3
						c-4.1-0.1-9.9-0.2-16.2-0.1c-6.3,0.1-12,0.3-16.2,0.5c-2.1,0.1-3.7,0.2-4.9,0.3c-0.5,0-1,0.1-1.3,0.1c-0.3,0-0.5,0-0.5,0.1
						c0,0,0.2,0,0.5,0c0.4,0,0.8,0,1.3,0c1.2,0,2.9-0.1,4.9-0.2c4.1-0.2,9.9-0.3,16.2-0.4c6.3-0.1,12-0.1,16.2,0C-4.7,0-3,0-1.8,0
						c0.5,0,1,0,1.3,0C-0.2,0,0,0,0,0"/>
				</g>
				<g id="g1024" transform="translate(371.7858,299.1403)">
					<path id="path1026" class="st21" d="M0,0c0,0-0.3-0.1-0.9-0.1c-0.6-0.1-1.4-0.1-2.5-0.2c-2.1-0.1-5-0.2-8.3-0.1
						c-3.2,0.1-6.1,0.3-8.2,0.5c-1,0.1-1.9,0.2-2.5,0.3c-0.6,0.1-0.9,0.1-0.9,0.2c0,0,0.3,0,0.9,0c0.7-0.1,1.5-0.1,2.5-0.2
						c2.1-0.2,5-0.3,8.2-0.4c3.2-0.1,6.1,0,8.2,0c1,0,1.8,0,2.5,0.1C-0.3,0,0,0,0,0"/>
				</g>
				<g id="g1028" transform="translate(396.4948,297.8542)">
					<path id="path1030" class="st21" d="M0,0c0,0-0.3-0.1-0.7-0.2c-0.5-0.1-1.1-0.2-2-0.3c-1.7-0.2-4-0.5-6.6-0.7
						c-2.6-0.2-4.9-0.2-6.6-0.1c-0.8,0-1.5,0-2,0.1c-0.5,0-0.7,0.1-0.7,0.1c0,0,0.3,0,0.7,0c0.6,0,1.3,0,2,0c1.7,0,4,0.1,6.6,0.2
						c2.6,0.2,4.9,0.4,6.6,0.6c0.7,0.1,1.4,0.2,2,0.2C-0.3,0,0,0,0,0"/>
				</g>
				<g id="g1032" transform="translate(397.6852,282.6945)">
					<path id="path1034" class="st21" d="M0,0c0,0-0.2,0-0.5-0.1c-0.4,0-0.9-0.1-1.4-0.2C-3.2-0.4-5-0.5-7.3-0.7
						C-11.8-0.9-18.1-1.1-25-0.9c-6.9,0.2-13.1,0.8-17.6,1.4c-2.2,0.3-4.1,0.6-5.3,0.8c-0.6,0.1-1,0.2-1.4,0.2
						c-0.3,0.1-0.5,0.1-0.5,0.1c0,0,0.2,0,0.5,0c0.4-0.1,0.9-0.1,1.4-0.2c1.3-0.2,3.1-0.4,5.3-0.7c4.5-0.5,10.7-1.1,17.6-1.3
						c6.9-0.2,13.1-0.1,17.7,0.2C-5-0.3-3.2-0.2-2-0.1C-1.4-0.1-0.9,0-0.5,0C-0.2,0,0,0,0,0"/>
				</g>
			</g>
		</g>
	</g>
</g>
</svg>
