<?xml version="1.0" encoding="UTF-8"?>
<svg xmlns="http://www.w3.org/2000/svg" viewBox="0 0 438.91 445.93">
  <defs>
    <style>
      .cls-1 {
        fill: #fff;
      }

      .cls-2 {
        fill: #fafafa;
      }

      .cls-3 {
        fill: #f5f5f5;
      }

      .cls-4 {
        fill: #455a64;
      }

      .cls-5 {
        fill: #ff3643;
      }

      .cls-6 {
        opacity: .8;
      }

      .cls-6, .cls-7, .cls-8, .cls-9, .cls-10, .cls-11 {
        fill: none;
      }

      .cls-7 {
        opacity: .78;
      }

      .cls-12 {
        fill: #e0e0e0;
      }

      .cls-13 {
        fill: #eb996e;
      }

      .cls-14 {
        fill: #ffbe9d;
      }

      .cls-8 {
        opacity: .5;
      }

      .cls-15 {
        fill: #ebebeb;
      }

      .cls-10 {
        opacity: .2;
      }

      .cls-11 {
        opacity: .3;
      }

      .cls-16 {
        fill: #263238;
      }
    </style>
  </defs>
  <g id="Background_Complete" data-name="Background Complete">
    <g>
      <g>
        <polygon class="cls-3" points="95.72 401.34 95.72 444.06 158.19 444.06 227.09 444.06 227.09 401.34 95.72 401.34"/>
        <polygon class="cls-12" points="90.21 389.4 90.21 401.34 231.68 401.34 231.68 389.4 158.19 389.4 90.21 389.4"/>
        <polygon class="cls-12" points="160.94 444.06 227.09 444.06 227.09 401.34 231.68 401.34 231.68 389.4 158.19 389.4 158.19 400.24 160.94 444.06"/>
        <rect class="cls-12" x="114.09" y="408.23" width="26.64" height="6.43"/>
        <rect class="cls-1" x="110.66" y="422.7" width="34.21" height="13.58"/>
      </g>
      <g>
        <polygon class="cls-3" points="110.8 356.59 110.8 389.4 158.79 389.4 211.71 389.4 211.71 356.59 110.8 356.59"/>
        <polygon class="cls-12" points="106.57 347.41 106.57 356.59 215.24 356.59 215.24 347.41 158.79 347.41 106.57 347.41"/>
        <polygon class="cls-15" points="160.91 389.4 211.71 389.4 211.71 356.59 215.24 356.59 215.24 347.41 158.79 347.41 158.79 355.74 160.91 389.4"/>
        <rect class="cls-12" x="124.92" y="361.88" width="20.46" height="4.94"/>
        <rect class="cls-1" x="122.28" y="372.99" width="26.28" height="10.43"/>
      </g>
    </g>
    <g>
      <path class="cls-3" d="m310.52,442.98c-22.09-15.09-27.36-43.48-26.76-69.05.1-4.27-.42-8.76,1.58-12.53,1.99-3.76,6.7-6.37,10.54-4.61,3.18,1.46,4.6,5.13,6.41,8.16,2.4,4.03,5.95,7.35,10.11,9.45,2.73,1.38,6.1,2.21,8.77.7,3.66-2.07,4.04-7.16,3.97-11.4-.13-7.91-.26-15.82-.39-23.73-.07-4.24-.13-8.58,1.15-12.62,1.28-4.04,4.16-7.81,8.18-8.99,4.03-1.17,9.04,1.1,9.94,5.25.37,1.72.04,3.52.18,5.28.14,1.76.98,3.7,2.66,4.17,1.7.48,3.38-.74,4.64-2,4.34-4.33,7.25-9.88,9.97-15.4,2.72-5.52,5.36-11.17,9.28-15.88,3.93-4.72,9.39-8.48,15.46-8.88,6.08-.41,12.59,3.28,14.19,9.23,1.6,5.97-1.82,12.07-5.57,16.96-5.56,7.24-12.16,13.67-19.53,19.01-1.33.96-2.77,2-3.26,3.58-.89,2.84,1.82,5.62,4.62,6.52,3.17,1.02,6.6.66,9.92,1.01,3.31.36,6.91,1.78,8.2,4.89,1.78,4.32-1.8,8.9-5.34,11.92-7.09,6.04-15.2,10.83-23.87,14.11-3.11,1.17-6.39,2.21-8.88,4.43-2.49,2.22-3.97,6.05-2.42,9.02,1.55,2.98,5.47,3.89,8.73,3.25,3.26-.64,6.17-2.45,9.28-3.65,5.81-2.26,13.35-1.94,17.13,3.06,2.49,3.29,2.75,7.9,1.55,11.86-1.2,3.96-3.68,7.39-6.32,10.56-9.23,11.06-21.11,20.02-34.59,24.85-13.48,4.83-26,6.23-39.5,1.45"/>
      <path class="cls-12" d="m316.95,426.89c3.63-12.94,8.78-26.79,14.67-41.1,1.49-3.57,2.95-7.1,4.4-10.58,1.45-3.47,2.89-6.91,4.51-10.18,3.2-6.57,6.78-12.64,10.36-18.3,3.58-5.66,7.18-10.9,10.58-15.78,3.42-4.87,6.68-9.35,9.84-13.31,6.28-7.94,12.1-13.73,16.25-17.54,2.07-1.91,3.73-3.35,4.87-4.3.55-.45.98-.81,1.3-1.08.3-.24.45-.36.46-.35,0,.01-.13.15-.41.41-.31.28-.72.66-1.25,1.14-1.1.99-2.73,2.46-4.77,4.41-4.08,3.88-9.82,9.71-16.03,17.66-3.12,3.97-6.35,8.45-9.74,13.33-3.38,4.89-6.95,10.14-10.51,15.79-3.55,5.65-7.11,11.71-10.28,18.25-1.6,3.26-3.03,6.67-4.48,10.15-1.44,3.48-2.91,7-4.39,10.57-5.88,14.29-11.04,28.11-14.7,41"/>
      <path class="cls-12" d="m340.75,364.99c-.05,0-.2-.63-.43-1.81-.24-1.17-.52-2.87-.84-4.99-.64-4.22-1.33-10.08-2.07-16.54-.74-6.46-1.51-12.29-2.21-16.49-.35-2.1-.65-3.8-.87-4.97-.21-1.17-.31-1.83-.26-1.84.05-.01.25.62.55,1.77.31,1.15.7,2.84,1.11,4.93.85,4.19,1.71,10.03,2.45,16.5.71,6.38,1.35,12.15,1.84,16.55.23,1.99.43,3.67.59,5.01.14,1.18.19,1.84.13,1.85Z"/>
      <path class="cls-12" d="m395.21,354.23c0,.05-.77.15-2.17.28-1.4.14-3.42.33-5.92.65-4.99.59-11.86,1.65-19.38,3.15-7.53,1.51-14.28,3.17-19.12,4.51-2.43.65-4.38,1.24-5.73,1.63-1.35.4-2.11.6-2.12.54-.02-.05.71-.35,2.03-.84,1.33-.48,3.26-1.15,5.68-1.87,4.82-1.48,11.58-3.23,19.13-4.75,7.55-1.5,14.45-2.48,19.48-2.93,2.51-.25,4.55-.35,5.96-.4,1.41-.04,2.19-.03,2.19.02Z"/>
      <path class="cls-12" d="m317.61,425.87s-.15-.22-.38-.66c-.26-.53-.57-1.18-.95-1.96-.82-1.71-1.94-4.21-3.29-7.33-2.7-6.22-6.15-14.94-9.84-24.6-3.69-9.67-7.06-18.41-9.62-24.68-1.26-3.05-2.29-5.56-3.06-7.42-.33-.81-.6-1.48-.82-2.02-.18-.47-.26-.72-.24-.73.02,0,.15.22.38.66.26.53.57,1.18.95,1.96.82,1.71,1.94,4.21,3.29,7.33,2.7,6.22,6.15,14.94,9.84,24.61,3.68,9.67,7.05,18.4,9.62,24.67,1.26,3.05,2.29,5.56,3.06,7.42.33.81.6,1.48.82,2.02.18.47.26.72.24.73Z"/>
      <path class="cls-12" d="m389.87,401.75s-.24.13-.72.3c-.57.2-1.26.44-2.1.73-1.94.65-4.56,1.53-7.74,2.6-6.53,2.19-15.52,5.33-25.45,8.81-9.93,3.48-18.96,6.53-25.54,8.59-3.29,1.03-5.96,1.84-7.82,2.36-.86.23-1.57.43-2.14.59-.49.13-.76.18-.76.15,0-.03.24-.13.72-.31.56-.19,1.26-.43,2.1-.73,1.94-.65,4.55-1.53,7.74-2.6,6.53-2.19,15.52-5.33,25.46-8.81,9.93-3.48,18.95-6.53,25.54-8.59,3.29-1.03,5.96-1.84,7.82-2.36.86-.23,1.56-.43,2.14-.59.49-.13.75-.18.76-.15Z"/>
    </g>
    <path class="cls-12" d="m412.38,66.79c3.55-1.49,6.08-5.15,6.1-9.47.02-5.65-4.26-10.26-9.56-10.28-5.3-.02-9.62,4.54-9.64,10.19-.02,4.36,2.53,8.06,6.12,9.56-14.77,2.23-14.1,18.28-14.1,18.28l34.93.16s.8-16.23-13.85-18.44Z"/>
    <g>
      <path class="cls-12" d="m407.26,190.37c1.22-.74,2.52-1.3,3.86-1.68l.79-3.82,6.45-.11.93,3.79c1.35.33,2.67.85,3.91,1.54l3.26-2.14,4.64,4.48-2.02,3.33c.74,1.22,1.3,2.52,1.68,3.86l3.82.79.11,6.45-3.79.93c-.33,1.35-.85,2.67-1.54,3.91l2.14,3.26-4.48,4.64-3.33-2.02c-1.22.74-2.52,1.3-3.86,1.68l-.79,3.82-6.45.11-.93-3.79c-1.35-.33-2.67-.85-3.91-1.54l-3.26,2.14-4.64-4.48,2.02-3.33c-.74-1.22-1.3-2.52-1.68-3.86l-3.82-.79-.11-6.45,3.79-.93c.33-1.35.85-2.67,1.54-3.91l-2.14-3.26,4.48-4.64,3.33,2.02h0Zm3.44,8.59c-2.66,2.75-2.58,7.13.17,9.79,2.75,2.65,7.13,2.58,9.79-.17,2.65-2.75,2.58-7.13-.17-9.79-2.75-2.65-7.13-2.58-9.79.17Z"/>
      <path class="cls-12" d="m410.7,198.97s.36-.51,1.29-1.13c.91-.61,2.5-1.28,4.52-1.07.99.11,2.08.44,3.07,1.09.98.65,1.9,1.59,2.48,2.8.3.59.52,1.25.63,1.94.12.69.14,1.41.04,2.13-.18,1.45-.86,2.87-1.92,3.99-1.08,1.1-2.48,1.84-3.92,2.06-.72.13-1.44.14-2.13.04-.69-.09-1.36-.28-1.96-.56-1.23-.53-2.19-1.43-2.88-2.38-.69-.97-1.05-2.04-1.2-3.03-.28-2.01.33-3.62.91-4.55.59-.95,1.08-1.33,1.08-1.33.04.03-.42.45-.95,1.4-.52.93-1.07,2.51-.77,4.43.16.95.52,1.97,1.19,2.88.67.9,1.59,1.74,2.76,2.24.57.26,1.21.44,1.86.52.66.09,1.34.08,2.02-.04,1.36-.22,2.68-.91,3.7-1.95,1-1.06,1.65-2.4,1.82-3.77.1-.68.09-1.36-.03-2.02-.1-.65-.3-1.28-.58-1.84-.54-1.15-1.41-2.05-2.33-2.68-.94-.64-1.97-.96-2.92-1.09-1.93-.24-3.49.37-4.4.92-.93.57-1.34,1.04-1.37,1Z"/>
      <path class="cls-12" d="m407.26,190.37s-.07-.03-.21-.11c-.16-.09-.37-.21-.64-.37-.58-.34-1.42-.84-2.51-1.48h.08c-1.14,1.18-2.64,2.76-4.45,4.66v-.12c.66.99,1.39,2.08,2.16,3.25l.04.06-.03.06c-.63,1.15-1.17,2.45-1.51,3.89l-.02.08-.08.02c-1.18.29-2.46.61-3.79.94l.11-.14c.04,2.03.08,4.19.13,6.45l-.12-.15c1.18.24,2.48.51,3.82.79l.1.02.03.1c.35,1.25.91,2.57,1.67,3.81l.05.09-.05.09c-.62,1.03-1.31,2.17-2.02,3.34l-.03-.22c1.46,1.41,3.03,2.92,4.65,4.48l-.23-.02c1.01-.67,2.13-1.4,3.26-2.14l.1-.06.1.06c1.14.63,2.47,1.18,3.87,1.52l.11.03.03.11c.29,1.19.61,2.48.93,3.79l-.19-.15c2.04-.04,4.23-.08,6.45-.12l-.19.16c.25-1.21.52-2.51.79-3.82l.02-.12.12-.03c1.27-.36,2.59-.91,3.81-1.65h0s.1-.06.1-.06l.1.06c1.12.68,2.23,1.35,3.33,2.02l-.25.03c1.51-1.57,3.01-3.12,4.48-4.64l-.02.24c-.72-1.1-1.43-2.19-2.14-3.26l-.06-.1.06-.1c.69-1.23,1.19-2.53,1.52-3.87l.03-.11.11-.03c1.28-.31,2.54-.62,3.79-.93l-.14.19c-.04-2.2-.07-4.35-.11-6.45l.15.18c-1.29-.27-2.57-.54-3.82-.8l-.11-.02-.03-.1c-.39-1.37-.95-2.65-1.65-3.82l-.05-.09.05-.09c.69-1.14,1.37-2.25,2.03-3.33l.03.2c-1.63-1.58-3.17-3.07-4.63-4.49l.19.02c-1.15.75-2.23,1.45-3.27,2.13l-.07.05-.07-.04c-1.3-.73-2.6-1.22-3.88-1.54l-.08-.02-.02-.08c-.33-1.38-.63-2.62-.92-3.79l.12.09c-2.5.03-4.63.06-6.45.08l.09-.07c-.33,1.52-.6,2.77-.82,3.81v.04s-.05.01-.05.01c-1.37.38-2.33.83-2.95,1.13-.3.16-.53.28-.69.36-.16.09-.23.12-.23.12,0,0,.07-.06.22-.15.15-.09.37-.23.68-.39.62-.33,1.57-.8,2.95-1.2l-.04.05c.21-1.04.46-2.3.77-3.82v-.07s.09,0,.09,0c1.82-.04,3.95-.09,6.45-.14h.09s.02.09.02.09c.29,1.17.6,2.41.94,3.78l-.1-.1c1.3.32,2.63.81,3.95,1.54h-.15c1.04-.68,2.11-1.39,3.25-2.14l.1-.07.09.08c1.47,1.41,3.01,2.9,4.65,4.47l.09.09-.07.11c-.65,1.08-1.32,2.19-2.02,3.34v-.18c.72,1.19,1.3,2.5,1.7,3.9l-.13-.13c1.25.26,2.52.52,3.82.79l.14.03v.15c.04,2.1.08,4.25.12,6.45v.15s-.14.04-.14.04c-1.25.31-2.51.62-3.79.93l.14-.14c-.34,1.37-.86,2.7-1.56,3.96v-.2c.7,1.08,1.41,2.16,2.13,3.26l.09.13-.11.11c-1.47,1.53-2.97,3.07-4.48,4.64l-.11.11-.14-.08c-1.1-.67-2.21-1.34-3.33-2.02h.21s0,0,0,0c-1.25.76-2.6,1.33-3.9,1.69l.14-.15c-.27,1.31-.54,2.61-.8,3.82l-.03.15h-.16c-2.22.04-4.41.08-6.45.11h-.16s-.04-.15-.04-.15c-.32-1.31-.64-2.6-.93-3.79l.14.14c-1.43-.35-2.8-.91-3.96-1.56h.19c-1.13.73-2.25,1.46-3.26,2.13l-.12.08-.11-.1c-1.61-1.56-3.18-3.08-4.64-4.49l-.1-.1.07-.12c.71-1.16,1.4-2.3,2.03-3.33v.18c-.77-1.27-1.33-2.63-1.69-3.9l.12.12c-1.33-.28-2.63-.55-3.82-.8l-.12-.03v-.12c-.04-2.26-.07-4.42-.1-6.45v-.11s.11-.03.11-.03c1.33-.32,2.61-.63,3.79-.92l-.1.1c.36-1.46.91-2.78,1.56-3.94v.12c-.76-1.18-1.48-2.28-2.12-3.27l-.04-.07.06-.06c1.84-1.88,3.35-3.43,4.51-4.62l.04-.04.04.03c1.07.66,1.89,1.17,2.46,1.53.27.17.48.3.63.4.14.09.21.14.21.15Z"/>
    </g>
    <path class="cls-12" d="m66.84,48.95c2.5.79,5.13.12,7.12-1.53,1.24,1.78,2.81,3.89,4.58,6.15.98,1.24,1.92,2.4,2.82,3.47-1.81.9-3.27,2.5-3.92,4.58-.48,1.52-.46,3.08-.04,4.5-1.67.52-3.55,1.16-5.57,1.9-1.78.66-3.43,1.31-4.91,1.92-.71-2.36-2.54-4.35-5.07-5.14-4.07-1.28-8.4.97-9.69,5.04-1.28,4.07.97,8.41,5.04,9.69s8.41-.97,9.69-5.04c.28-.88.36-1.77.32-2.64,1.62-.51,3.42-1.12,5.35-1.83,2.06-.76,3.96-1.51,5.59-2.21.93,1.61,2.42,2.9,4.33,3.5,4.07,1.28,8.41-.97,9.69-5.04,1.28-4.07-.97-8.41-5.04-9.69-1.27-.4-2.55-.42-3.77-.19-.94-1.29-2-2.69-3.15-4.14-1.83-2.33-3.57-4.41-5.04-6.05.67-.84,1.21-1.83,1.56-2.93,1.4-4.43-.77-9.05-4.84-10.34-4.07-1.28-8.5,1.26-9.89,5.69-1.4,4.43.77,9.05,4.84,10.34Z"/>
    <path class="cls-12" d="m21.28,230.52l7.8,9.61c.3.36.75.56,1.22.52l12.34-.98c1.18-.09,1.95,1.2,1.31,2.19l-6.73,10.39c-.25.39-.3.89-.12,1.32l4.74,11.44c.45,1.09-.54,2.23-1.68,1.92l-11.96-3.19c-.45-.12-.94-.01-1.29.29l-9.41,8.04c-.9.77-2.28.17-2.35-1.01l-.66-12.36c-.03-.47-.28-.89-.68-1.14l-10.56-6.46c-1.01-.62-.87-2.12.23-2.54l11.55-4.45c.44-.17.76-.54.87-1l2.89-12.04c.27-1.15,1.75-1.48,2.49-.57Z"/>
    <path class="cls-12" d="m313.54,267.35c0-8.6-7.77-15.38-16.67-13.71-5.6,1.05-10.06,5.62-11.04,11.24-.61,3.51.11,6.81,1.71,9.53h0l.04.05c.54.9,1.21,1.55,1.88,2.5l8.11,10.74c1.01,1.34,3.02,1.34,4.03,0l7.97-10.56s1.49-1.77,2.03-2.69l.03-.04h0c1.22-2.07,1.93-4.48,1.93-7.06Zm-13.96,6.08c-3.39,0-6.15-2.75-6.15-6.15s2.75-6.15,6.15-6.15,6.15,2.75,6.15,6.15-2.75,6.15-6.15,6.15Z"/>
  </g>
  <g id="Mind_Map" data-name="Mind Map">
    <g>
      <g>
        <path class="cls-5" d="m207.68,200.12s-.11.22-.37.61c-.29.43-.67.99-1.14,1.69-1,1.46-2.48,3.55-4.32,6.13-3.68,5.15-8.83,12.21-14.68,19.9-5.85,7.69-11.31,14.52-15.42,19.34-2.07,2.4-3.74,4.33-4.97,5.61-.58.61-1.04,1.1-1.4,1.48-.32.33-.5.5-.51.49-.01-.01.14-.21.44-.56.34-.39.78-.91,1.33-1.55,1.18-1.32,2.81-3.29,4.84-5.72,4.03-4.87,9.44-11.74,15.29-19.42,5.85-7.68,11.04-14.7,14.8-19.8,1.85-2.51,3.36-4.56,4.45-6.03.51-.67.91-1.22,1.22-1.63.28-.37.44-.56.45-.55Z"/>
        <path class="cls-5" d="m236.16,80.17c.14.02-.49,5.38-1.41,11.97-.92,6.59-1.78,11.92-1.93,11.9-.14-.02.49-5.38,1.41-11.97.92-6.59,1.78-11.92,1.93-11.9Z"/>
        <path class="cls-5" d="m336.31,73.22s-.22.22-.67.59c-.49.39-1.14.93-1.97,1.59-1.76,1.4-4.25,3.37-7.3,5.79-6.23,4.87-14.77,11.55-24.2,18.93-9.47,7.33-18.04,13.97-24.29,18.81-3.09,2.36-5.61,4.29-7.4,5.65-.85.64-1.53,1.14-2.03,1.52-.47.34-.72.51-.73.5-.01-.01.22-.21.66-.58.49-.39,1.14-.92,1.97-1.59,1.76-1.4,4.25-3.36,7.3-5.78,6.23-4.87,14.77-11.55,24.21-18.93,9.47-7.33,18.04-13.97,24.29-18.81,3.09-2.36,5.61-4.29,7.4-5.65.85-.64,1.53-1.14,2.03-1.51.47-.34.72-.51.73-.5Z"/>
        <path class="cls-5" d="m384.7,139.06c.01.14-24.49,2.18-54.73,4.54-30.24,2.37-54.76,4.17-54.77,4.02-.01-.14,24.49-2.18,54.73-4.54,30.23-2.36,54.76-4.17,54.77-4.02Z"/>
        <path class="cls-5" d="m317,199.26c-.07.13-10.46-5.04-23.21-11.55-12.76-6.51-23.04-11.89-22.97-12.02.07-.13,10.46,5.04,23.21,11.55,12.75,6.51,23.04,11.89,22.97,12.02Z"/>
        <path class="cls-5" d="m193.04,116.06s-.19-.2-.51-.62c-.35-.46-.81-1.06-1.39-1.83-1.2-1.59-2.91-3.91-5-6.79-4.19-5.76-9.89-13.78-16.03-22.75-6.14-8.97-11.56-17.19-15.42-23.18-1.93-2.99-3.47-5.43-4.53-7.12-.5-.82-.9-1.47-1.2-1.95-.27-.45-.4-.69-.39-.7s.18.21.48.64c.32.47.75,1.11,1.28,1.9,1.13,1.7,2.72,4.09,4.66,7.03,3.94,5.94,9.4,14.12,15.54,23.09,6.14,8.96,11.79,17.02,15.9,22.83,2.03,2.88,3.69,5.22,4.87,6.89.55.79.98,1.41,1.31,1.88.29.43.44.67.43.68Z"/>
        <path class="cls-5" d="m179.85,134.97c-.06.13-6.87-2.95-15.21-6.88-8.34-3.93-15.05-7.22-14.99-7.35s6.87,2.95,15.21,6.88c8.34,3.93,15.05,7.22,14.98,7.35Z"/>
        <path class="cls-5" d="m175.97,153.53c-.01.14-22.97-1.8-51.28-4.34-28.31-2.54-51.25-4.71-51.23-4.85.01-.14,22.97,1.8,51.28,4.34,28.3,2.54,51.24,4.71,51.23,4.85Z"/>
        <path class="cls-5" d="m184.17,180.96c.06.13-13.57,6.07-30.44,13.25-16.87,7.19-30.59,12.91-30.65,12.77-.06-.13,13.57-6.07,30.44-13.25,16.87-7.19,30.59-12.91,30.65-12.77Z"/>
      </g>
      <g>
        <circle class="cls-5" cx="225.94" cy="153.53" r="49.97"/>
        <g class="cls-6">
          <circle class="cls-1" cx="225.94" cy="153.53" r="49.97"/>
        </g>
        <g>
          <g>
            <path class="cls-5" d="m242.74,140.81c-3.26-10.47-14.39-16.31-24.85-13.05-10.47,3.26-16.31,14.39-13.05,24.85,2.36,7.58,8.84,12.73,16.22,13.76.7,2.25,1.49,4.78,1.49,4.78l16.61-5.17s-.74-2.71-1.44-5.12c5.12-5.05,7.32-12.71,5.03-20.05Z"/>
            <path class="cls-16" d="m233.13,167.77s-.02-.08-.05-.24c-.03-.17-.08-.4-.14-.71-.11-.62-.28-1.54-.47-2.73-.19-1.19-.39-2.65-.53-4.35-.13-1.7-.18-3.66.08-5.81.13-1.07.32-2.19.68-3.32.19-.56.46-1.13.93-1.57.47-.44,1.16-.65,1.82-.5.33.07.64.27.83.56.2.28.28.65.22,1-.11.69-.53,1.28-1.07,1.72-1.11.83-2.59,1.17-4.03.95-1.44-.22-2.8-1.07-3.66-2.33-.42-.63-.77-1.35-.79-2.15-.05-.79.46-1.67,1.31-1.85.42-.1.88.07,1.17.37.3.3.48.7.52,1.12.06.85-.32,1.62-.75,2.3-.89,1.36-2.34,2.41-4.02,2.66-1.66.24-3.41-.36-4.52-1.59-.56-.6-.91-1.42-.84-2.26.04-.41.22-.84.57-1.1.34-.27.8-.33,1.2-.26.41.08.78.29,1.06.58.28.29.48.64.63,1,.28.73.41,1.5.39,2.26-.03,1.52-.65,2.98-1.68,4.01-1.02,1.03-2.39,1.65-3.75,1.76-.67.06-1.4,0-1.99-.37-.58-.37-.94-1.13-.67-1.79.14-.32.42-.56.72-.68.31-.12.64-.15.96-.11.65.1,1.16.52,1.56.94.8.88,1.49,1.76,2.17,2.59,2.7,3.35,4.76,6.16,6.16,8.12.7.98,1.23,1.75,1.59,2.27.17.26.31.45.4.6.09.14.13.21.13.21,0,0-.05-.06-.15-.19-.1-.14-.24-.33-.42-.58-.38-.52-.92-1.27-1.63-2.24-1.42-1.94-3.5-4.73-6.22-8.06-.68-.82-1.39-1.71-2.18-2.57-.4-.41-.88-.79-1.46-.88-.56-.09-1.24.13-1.47.67-.22.54.09,1.22.6,1.54.52.34,1.2.39,1.86.33,1.31-.11,2.63-.71,3.61-1.7.98-.99,1.58-2.4,1.61-3.86.02-.73-.1-1.47-.37-2.16-.27-.68-.78-1.31-1.51-1.44-.35-.07-.73,0-1.01.21-.29.21-.44.56-.48.93-.06.75.25,1.51.78,2.07,1.04,1.16,2.72,1.74,4.3,1.51,1.59-.23,3-1.24,3.85-2.55.41-.66.77-1.4.71-2.14-.03-.36-.19-.72-.44-.97-.25-.25-.61-.38-.96-.3-.34.07-.65.3-.85.6-.2.29-.28.66-.28,1.02.02.73.35,1.42.75,2.02.82,1.2,2.13,2.03,3.5,2.24,1.37.22,2.81-.12,3.86-.89.5-.4.9-.97,1-1.58.11-.61-.31-1.22-.9-1.34-.58-.13-1.22.06-1.64.45-.44.4-.7.94-.89,1.48-.35,1.11-.55,2.22-.68,3.28-.27,2.13-.22,4.08-.11,5.78.12,1.7.32,3.16.49,4.35.18,1.18.33,2.1.42,2.74.05.31.08.54.11.71.02.16.03.24.03.24Z"/>
            <path class="cls-16" d="m238.84,169.45l-14.26,4.44c-.59.18-1.22-.15-1.4-.74h0c-.18-.59.15-1.22.74-1.4l14.26-4.44c.59-.18,1.22.15,1.4.74h0c.18.59-.15,1.22-.74,1.4Z"/>
            <path class="cls-16" d="m239.13,170.38l-14.26,4.44c-.59.18-.92.81-.74,1.4.18.59.81.92,1.4.74l1.57-.49,3.31,3.31c.38.38.94.52,1.45.36l5.1-1.59c.52-.16.9-.6.99-1.13l.79-4.57,1.06-.33c.59-.18.92-.81.74-1.4-.18-.59-.81-.92-1.4-.74Z"/>
          </g>
          <g class="cls-10">
            <path class="cls-1" d="m207.86,138.43c.91-1.57,1.99-2.82,3.01-3.7,1.02-.89,1.96-1.46,2.66-1.76.69-.3,1.12-.36,1.21-.22.19.32-1.09,1.28-2.62,3.17-1.53,1.87-3.26,4.83-3.74,8.41-.47,3.58.42,6.9,1.41,9.1.98,2.23,1.96,3.49,1.7,3.75-.12.11-.52-.05-1.11-.52-.59-.47-1.35-1.26-2.1-2.39-.75-1.13-1.47-2.61-1.93-4.36-.47-1.75-.65-3.79-.38-5.89"/>
          </g>
          <g class="cls-10">
            <path class="cls-1" d="m219.54,132.15c-1.2.36-2.37.36-2.69-.23-.15-.3-.03-.7.32-1.1.35-.4.94-.78,1.66-1,.72-.22,1.42-.23,1.93-.1.51.13.84.4.88.73"/>
          </g>
          <path class="cls-4" d="m237.78,177.84s-.42-.01-1.07,0c-.66.01-1.57.13-2.51.45-.95.33-1.73.8-2.26,1.19-.53.39-.82.69-.85.66-.02-.02.23-.35.74-.79.51-.44,1.31-.95,2.29-1.29.98-.33,1.92-.42,2.59-.39.67.03,1.08.14,1.07.17Z"/>
          <path class="cls-4" d="m238.78,172.89c.02.06-2.54.92-5.72,1.91-3.18.99-5.77,1.74-5.79,1.68-.02-.06,2.54-.92,5.72-1.91,3.18-.99,5.77-1.74,5.79-1.68Z"/>
          <path class="cls-4" d="m238.41,174.86s-.51.25-1.36.58c-.85.33-2.04.75-3.36,1.18-1.32.43-2.53.79-3.41,1.03-.88.24-1.43.37-1.44.34,0-.03.52-.22,1.39-.5.94-.3,2.1-.68,3.39-1.1,1.28-.42,2.45-.81,3.38-1.11.87-.28,1.41-.45,1.42-.42Z"/>
        </g>
      </g>
      <g>
        <path class="cls-5" d="m159.24,31.68s-.02-.13-.05-.4c-.02-.29-.05-.67-.08-1.16-.02-.26-.04-.54-.06-.86-.03-.31-.1-.65-.16-1.02-.12-.74-.23-1.6-.52-2.53-.44-1.89-1.33-4.13-2.73-6.5-1.41-2.36-3.45-4.82-6.22-6.91-2.76-2.07-6.24-3.83-10.25-4.54-3.99-.68-8.49-.56-12.78,1.07-1.09.35-2.12.89-3.17,1.4-1,.6-2.05,1.16-2.98,1.92-.99.68-1.85,1.53-2.76,2.34-.82.91-1.68,1.79-2.38,2.82-1.45,2.01-2.71,4.24-3.47,6.7-.79,2.44-1.22,5.03-1.25,7.67.03,2.64.46,5.23,1.25,7.67.76,2.46,2.03,4.69,3.47,6.7.7,1.03,1.56,1.91,2.38,2.82.9.82,1.77,1.67,2.76,2.35.93.76,1.98,1.31,2.98,1.92,1.05.51,2.08,1.05,3.17,1.4,4.29,1.63,8.79,1.75,12.78,1.07,4.02-.71,7.5-2.47,10.25-4.54,2.77-2.09,4.8-4.55,6.21-6.91,1.4-2.37,2.29-4.6,2.73-6.49.29-.93.4-1.79.52-2.53.06-.37.13-.71.16-1.02.02-.31.04-.6.06-.86.04-.49.06-.88.08-1.16.02-.26.04-.4.05-.4s.01.13,0,.4c0,.29-.02.68-.03,1.17,0,.26-.02.55-.03.86-.03.32-.09.66-.14,1.03-.1.75-.2,1.61-.48,2.56-.41,1.92-1.28,4.18-2.68,6.59-1.41,2.4-3.45,4.91-6.24,7.05-2.79,2.12-6.31,3.93-10.4,4.67-4.06.72-8.64.6-13.02-1.04-1.11-.35-2.16-.9-3.24-1.42-1.02-.61-2.09-1.18-3.05-1.95-1.01-.69-1.89-1.55-2.82-2.39-.84-.92-1.71-1.83-2.44-2.87-1.48-2.05-2.77-4.33-3.55-6.84-.81-2.49-1.25-5.14-1.28-7.83.04-2.69.47-5.34,1.28-7.83.78-2.51,2.07-4.79,3.55-6.83.72-1.05,1.6-1.95,2.44-2.87.92-.83,1.81-1.7,2.82-2.39.95-.77,2.02-1.34,3.05-1.95,1.08-.51,2.12-1.06,3.24-1.42,4.38-1.65,8.96-1.76,13.02-1.04,4.08.74,7.61,2.55,10.4,4.67,2.79,2.14,4.84,4.65,6.24,7.05,1.39,2.41,2.27,4.68,2.68,6.59.27.94.37,1.81.48,2.56.05.37.11.72.14,1.03.01.32.02.6.03.86.01.49.03.88.03,1.17,0,.26,0,.4,0,.4Z"/>
        <g>
          <path class="cls-16" d="m139.98,29.11s.01-.69-.28-1.87c-.14-.59-.42-1.29-.86-2.03-.44-.74-1.08-1.5-1.94-2.15-.86-.64-1.95-1.19-3.2-1.41-1.24-.21-2.65-.17-3.98.34-.67.23-1.32.59-1.92,1.03-.31.21-.58.48-.86.73-.25.28-.52.56-.74.88-.93,1.24-1.46,2.83-1.47,4.47.01,1.64.54,3.24,1.47,4.48.22.32.49.6.74.88.28.25.55.52.86.73.6.45,1.24.8,1.92,1.03,1.34.51,2.74.55,3.98.34,1.25-.22,2.34-.77,3.2-1.41.86-.65,1.5-1.42,1.94-2.15.44-.74.72-1.44.86-2.03.3-1.18.24-1.87.28-1.87,0,0,0,.04,0,.12,0,.1,0,.22,0,.37,0,.16,0,.36-.05.59-.03.23-.06.51-.15.8-.13.6-.4,1.31-.83,2.07-.44.75-1.08,1.54-1.96,2.22-.87.67-1.98,1.24-3.26,1.47-1.27.23-2.72.19-4.09-.32-.69-.24-1.36-.6-1.98-1.06-.32-.22-.6-.49-.89-.75-.26-.29-.54-.57-.77-.9-.96-1.28-1.51-2.92-1.52-4.61.01-1.69.56-3.34,1.52-4.61.23-.33.5-.61.77-.9.29-.26.57-.53.89-.75.61-.46,1.28-.82,1.98-1.06,1.38-.52,2.82-.55,4.09-.33,1.28.23,2.39.8,3.26,1.47.88.67,1.52,1.46,1.96,2.22.44.76.71,1.47.83,2.07.08.3.11.57.15.8.04.23.05.43.05.59,0,.15,0,.27,0,.37,0,.08,0,.12,0,.12Z"/>
          <path class="cls-16" d="m137.56,34.71s1.72,1.55,3.74,3.57c2.02,2.02,3.62,3.7,3.57,3.74-.05.05-1.72-1.55-3.74-3.57-2.02-2.02-3.62-3.7-3.57-3.74Z"/>
        </g>
      </g>
      <g>
        <g>
          <circle class="cls-1" cx="40.62" cy="140.38" r="32.84"/>
          <path class="cls-5" d="m73.46,140.38s-.03-.18-.05-.53c-.02-.37-.06-.89-.1-1.56-.02-.34-.04-.73-.07-1.15-.04-.42-.14-.88-.21-1.37-.16-.99-.31-2.14-.69-3.39-.58-2.53-1.77-5.53-3.64-8.7-1.89-3.16-4.61-6.46-8.32-9.26-3.69-2.77-8.36-5.14-13.74-6.09-1.35-.19-2.71-.47-4.12-.48-.7-.02-1.41-.09-2.13-.08-.71.04-1.43.07-2.16.11-.36.03-.73.02-1.09.07l-1.09.17c-.73.12-1.46.21-2.19.36-1.44.39-2.93.68-4.35,1.28-1.46.47-2.84,1.19-4.25,1.87-.69.37-1.35.81-2.03,1.21-.69.39-1.33.87-1.97,1.36-1.32.91-2.48,2.05-3.7,3.14-1.1,1.21-2.25,2.4-3.19,3.78-1.94,2.69-3.63,5.69-4.66,8.98-1.06,3.27-1.63,6.74-1.68,10.28.05,3.54.62,7.01,1.68,10.28,1.02,3.29,2.72,6.29,4.66,8.98.95,1.38,2.1,2.57,3.19,3.78,1.21,1.1,2.37,2.23,3.7,3.14.64.49,1.27.97,1.97,1.36.68.4,1.34.84,2.03,1.21,1.41.68,2.79,1.4,4.25,1.87,1.42.59,2.91.88,4.35,1.28.73.15,1.47.24,2.19.36l1.09.17c.36.05.73.05,1.09.07.72.04,1.44.08,2.16.11.71.01,1.42-.06,2.13-.08,1.41,0,2.78-.29,4.13-.48,5.38-.95,10.04-3.31,13.74-6.09,3.71-2.8,6.43-6.1,8.31-9.26,1.87-3.17,3.06-6.17,3.64-8.7.38-1.25.53-2.4.69-3.39.07-.5.17-.95.21-1.37.03-.42.05-.8.07-1.15.04-.67.08-1.19.1-1.56.03-.35.05-.53.05-.53,0,0,0,.18,0,.53-.01.37-.03.89-.05,1.56-.01.35-.03.73-.05,1.15-.04.42-.12.88-.19,1.38-.14,1-.28,2.15-.64,3.41-.55,2.56-1.72,5.59-3.59,8.8-1.88,3.2-4.61,6.55-8.34,9.41-3.72,2.83-8.43,5.24-13.88,6.22-1.37.2-2.75.48-4.18.5-.71.03-1.43.1-2.16.09-.72-.04-1.45-.07-2.19-.11-.37-.02-.74-.02-1.11-.07l-1.1-.17c-.74-.12-1.49-.21-2.23-.36-1.46-.39-2.97-.69-4.41-1.29-1.49-.47-2.88-1.2-4.32-1.89-.7-.38-1.37-.82-2.06-1.23-.71-.39-1.35-.88-2-1.37-1.35-.92-2.53-2.07-3.76-3.19-1.12-1.23-2.29-2.44-3.25-3.83-1.97-2.73-3.7-5.77-4.74-9.12-1.08-3.32-1.66-6.86-1.71-10.45.05-3.59.63-7.12,1.71-10.44,1.04-3.34,2.77-6.38,4.74-9.12.96-1.4,2.13-2.6,3.25-3.83,1.23-1.11,2.41-2.26,3.76-3.19.65-.49,1.29-.98,2-1.37.69-.41,1.36-.85,2.06-1.23,1.44-.69,2.83-1.42,4.32-1.89,1.44-.6,2.95-.89,4.41-1.29.74-.15,1.49-.24,2.23-.36l1.1-.17c.37-.05.74-.04,1.1-.07.73-.04,1.46-.07,2.19-.11.72,0,1.44.06,2.15.09,1.43.01,2.81.3,4.18.5,5.45.99,10.16,3.4,13.88,6.22,3.73,2.85,6.46,6.2,8.34,9.41,1.87,3.22,3.03,6.24,3.59,8.8.37,1.26.5,2.42.64,3.41.07.5.15.96.19,1.38.02.42.03.81.05,1.15.02.67.04,1.19.05,1.56,0,.35,0,.53,0,.53Z"/>
        </g>
        <g>
          <g>
            <circle class="cls-3" cx="40.72" cy="141.19" r="17.51" transform="translate(-52.21 27.36) rotate(-23.14)"/>
            <path class="cls-16" d="m58.23,141.19s-.03-.38-.08-1.11c-.01-.37-.05-.82-.15-1.34-.08-.53-.16-1.14-.36-1.81-.31-1.35-.94-2.95-1.94-4.65-1.01-1.69-2.46-3.45-4.44-4.95-1.97-1.48-4.46-2.75-7.34-3.26-2.85-.49-6.08-.41-9.15.76-1.55.54-3.04,1.35-4.41,2.37-.71.49-1.33,1.09-1.98,1.68-.59.65-1.2,1.28-1.71,2.02-2.14,2.85-3.35,6.51-3.39,10.29.03,3.78,1.24,7.44,3.39,10.29.51.74,1.12,1.37,1.71,2.02.65.59,1.27,1.19,1.98,1.68,1.37,1.02,2.86,1.83,4.41,2.37,3.07,1.17,6.3,1.25,9.15.76,2.87-.51,5.36-1.77,7.34-3.26,1.98-1.5,3.43-3.26,4.44-4.95,1-1.7,1.63-3.29,1.94-4.65.2-.67.28-1.28.36-1.81.1-.53.13-.98.15-1.34.04-.73.08-1.11.08-1.11,0,0,0,.38-.04,1.12,0,.37-.03.82-.13,1.35-.08.53-.15,1.15-.35,1.82-.3,1.36-.92,2.97-1.92,4.69-1,1.7-2.46,3.49-4.45,5.01-1.98,1.5-4.49,2.79-7.39,3.31-2.88.51-6.14.42-9.25-.75-1.56-.54-3.07-1.36-4.46-2.39-.72-.49-1.34-1.1-2-1.7-.59-.65-1.22-1.3-1.73-2.04-2.17-2.88-3.4-6.59-3.43-10.41.03-3.82,1.26-7.53,3.43-10.41.51-.74,1.13-1.39,1.73-2.04.66-.59,1.28-1.21,2-1.7,1.39-1.03,2.9-1.85,4.46-2.39,3.11-1.17,6.36-1.25,9.25-.75,2.9.52,5.41,1.81,7.39,3.31,1.99,1.52,3.44,3.3,4.45,5.01,1,1.71,1.62,3.32,1.92,4.69.2.67.27,1.29.35,1.82.1.53.12.98.13,1.35.03.73.04,1.12.04,1.12Z"/>
          </g>
          <g>
            <path class="cls-9" d="m40.72,129.75c-6.31,0-11.44,5.13-11.44,11.44s5.13,11.44,11.44,11.44,11.44-5.13,11.44-11.44-5.13-11.44-11.44-11.44Z"/>
            <path class="cls-5" d="m40.72,129.75s1.02-.14,2.82.26c1.76.39,4.37,1.52,6.42,4.15,1,1.3,1.86,2.96,2.21,4.88.34,1.91.29,4.07-.48,6.13-.36,1.04-.9,2.04-1.58,2.96-.67.93-1.51,1.78-2.48,2.48-1.91,1.44-4.37,2.26-6.91,2.29-2.54-.02-5-.84-6.91-2.29-.97-.7-1.8-1.55-2.48-2.48-.69-.92-1.23-1.92-1.58-2.96-.77-2.06-.82-4.22-.48-6.13.36-1.92,1.21-3.58,2.21-4.88,2.05-2.63,4.66-3.76,6.42-4.15,1.79-.4,2.82-.26,2.82-.26,0,.07-1.02,0-2.77.46-1.71.45-4.23,1.6-6.18,4.18-.95,1.28-1.76,2.88-2.08,4.74-.31,1.84-.25,3.91.51,5.89.35.99.87,1.95,1.53,2.83.65.89,1.45,1.7,2.38,2.36,1.83,1.38,4.18,2.15,6.61,2.18,2.42-.02,4.78-.8,6.61-2.18.93-.67,1.73-1.47,2.38-2.36.66-.88,1.18-1.84,1.53-2.83.76-1.97.82-4.05.51-5.88-.32-1.85-1.13-3.46-2.08-4.74-1.95-2.58-4.46-3.73-6.18-4.18-1.75-.45-2.77-.39-2.77-.46Z"/>
          </g>
          <g>
            <path class="cls-9" d="m40.72,137.56c-2,0-3.63,1.63-3.63,3.63s1.63,3.63,3.63,3.63,3.63-1.63,3.63-3.63-1.63-3.63-3.63-3.63Z"/>
            <path class="cls-5" d="m40.72,137.56s.33-.09.91.02c.57.11,1.44.45,2.12,1.31.69.82,1.1,2.23.6,3.63-.45,1.38-1.91,2.59-3.63,2.57-1.72.02-3.18-1.19-3.64-2.57-.5-1.39-.08-2.8.6-3.63.69-.85,1.55-1.2,2.12-1.31.59-.11.91-.04.91-.02,0,.05-.32.05-.86.21-.53.16-1.29.53-1.88,1.33-.58.77-.9,2.03-.45,3.24.42,1.2,1.7,2.23,3.19,2.22,1.49.01,2.76-1.02,3.18-2.22.46-1.21.14-2.47-.45-3.24-.58-.8-1.35-1.18-1.88-1.33-.54-.16-.86-.17-.86-.21Z"/>
          </g>
          <g>
            <path class="cls-3" d="m22.06,153.81c6.05-4.22,12.61-8.4,18.66-12.62"/>
            <path class="cls-16" d="m40.71,141.19s-4.12,2.91-9.27,6.4c-5.15,3.49-9.36,6.27-9.39,6.22-.03-.05,4.12-2.91,9.27-6.4,5.15-3.48,9.36-6.27,9.39-6.22Z"/>
          </g>
          <path class="cls-16" d="m24.11,152.59c0,.06-.97.07-2.16.03-1.19-.04-2.16-.13-2.16-.18,0-.06.97-.07,2.16-.03,1.19.04,2.16.13,2.16.18Z"/>
          <path class="cls-16" d="m23.38,155.43c-.06-.01.04-.68.21-1.48.17-.81.36-1.45.42-1.44s-.04.68-.21,1.48c-.17.81-.36,1.45-.42,1.44Z"/>
          <path class="cls-16" d="m24.43,155.1c-.06-.01.02-.7.17-1.55.15-.84.32-1.52.38-1.51s-.02.7-.17,1.55c-.15.84-.32,1.52-.38,1.51Z"/>
          <path class="cls-16" d="m21.95,151.34c.01-.06.69.05,1.5.25.82.19,1.47.39,1.46.45s-.69-.05-1.5-.25c-.82-.19-1.47-.39-1.46-.45Z"/>
        </g>
      </g>
      <g>
        <circle class="cls-1" cx="135.39" cy="108.24" r="19.04" transform="translate(-30.89 59.26) rotate(-22.23)"/>
        <path class="cls-5" d="m154.43,108.24s-.02-.1-.04-.31c-.02-.23-.04-.53-.07-.9-.02-.4-.06-.89-.17-1.46-.09-.57-.18-1.24-.41-1.96-.34-1.46-1.04-3.19-2.12-5.02-1.1-1.82-2.67-3.73-4.81-5.34-2.14-1.6-4.83-2.96-7.93-3.5-3.08-.53-6.56-.43-9.88.83-1.67.58-3.28,1.46-4.75,2.56-.76.52-1.43,1.18-2.13,1.81-.63.7-1.3,1.38-1.84,2.18-2.31,3.07-3.61,7.03-3.65,11.1.04,4.07,1.34,8.03,3.65,11.1.54.79,1.21,1.48,1.84,2.18.7.63,1.37,1.29,2.13,1.81,1.48,1.11,3.09,1.98,4.75,2.56,3.31,1.26,6.79,1.36,9.88.83,3.11-.55,5.8-1.9,7.93-3.5,2.14-1.61,3.72-3.52,4.81-5.34,1.09-1.83,1.78-3.56,2.12-5.02.22-.72.31-1.38.41-1.96.11-.57.15-1.06.17-1.46.03-.37.05-.67.07-.9.02-.2.03-.31.04-.31s.01.1.01.31c0,.23-.01.53-.02.91,0,.4-.03.89-.12,1.47-.08.58-.15,1.25-.36,1.98-.32,1.49-.99,3.25-2.07,5.12-1.09,1.87-2.67,3.82-4.84,5.48-2.16,1.65-4.9,3.06-8.08,3.63-3.15.56-6.72.47-10.12-.81-1.71-.59-3.37-1.48-4.89-2.61-.78-.54-1.47-1.21-2.19-1.86-.65-.72-1.33-1.42-1.89-2.23-2.38-3.15-3.72-7.22-3.76-11.41.04-4.18,1.38-8.25,3.76-11.4.56-.81,1.24-1.52,1.89-2.23.72-.65,1.41-1.32,2.19-1.86,1.52-1.13,3.17-2.02,4.89-2.61,3.4-1.28,6.97-1.36,10.12-.81,3.17.58,5.91,1.99,8.08,3.63,2.17,1.66,3.75,3.62,4.84,5.48,1.08,1.87,1.75,3.64,2.07,5.12.21.73.28,1.41.36,1.98.1.58.12,1.07.12,1.47,0,.38.01.67.02.91,0,.2,0,.31-.01.31Z"/>
      </g>
      <g>
        <path class="cls-3" d="m136.96,108.53c1.54-.65,2.64-2.24,2.65-4.12,0-2.46-1.85-4.46-4.15-4.47-2.3-.01-4.18,1.97-4.19,4.43,0,1.89,1.1,3.5,2.66,4.15-6.42.97-6.13,7.95-6.13,7.95l15.18.07s.35-7.05-6.02-8.02Z"/>
        <path class="cls-16" d="m136.96,108.53c0,.06,1.12,0,2.8.98.81.51,1.68,1.36,2.3,2.58.61,1.22,1,2.75.99,4.46v.08s-.08,0-.08,0c-4.25-.01-9.46-.03-15.18-.05h-.1s0-.1,0-.1c-.01-1.43.29-2.92.95-4.29.5-1.04,1.26-1.96,2.2-2.59.94-.64,2.01-.97,3.07-1.17l-.02.19c-1.65-.68-2.65-2.37-2.71-3.98-.1-1.63.7-3.19,1.91-4.03,1.22-.87,2.78-.94,3.96-.4,1.2.53,1.98,1.55,2.34,2.57.37,1.02.33,2.04.11,2.86-.23.82-.64,1.45-1.04,1.88-.41.43-.8.68-1.07.83-.27.15-.42.18-.43.19-.04-.02.65-.21,1.44-1.07.39-.43.78-1.05,1-1.86.21-.8.24-1.8-.13-2.79-.36-.98-1.13-1.97-2.28-2.47-1.14-.51-2.64-.43-3.8.4-1.15.82-1.92,2.31-1.82,3.88.06,1.55,1.02,3.16,2.59,3.8l.32.13-.34.06c-1.03.19-2.07.52-2.98,1.13-.91.61-1.64,1.5-2.13,2.51-.64,1.34-.94,2.81-.93,4.19l-.1-.1c5.72.04,10.94.07,15.18.09l-.08.08c.02-1.67-.36-3.19-.94-4.39-.6-1.2-1.45-2.04-2.24-2.56-.41-.24-.77-.46-1.12-.57-.34-.14-.63-.25-.89-.3-.32-.08-.54-.14-.74-.19Z"/>
      </g>
      <g>
        <g>
          <circle class="cls-1" cx="92.18" cy="219.07" r="33.17" transform="translate(-138.44 276.51) rotate(-81.17)"/>
          <path class="cls-5" d="m125.35,219.07s-.03-.18-.05-.54c-.03-.38-.06-.9-.11-1.57-.02-.35-.04-.73-.07-1.16-.05-.42-.14-.88-.21-1.38-.16-1-.31-2.16-.69-3.42-.59-2.56-1.79-5.58-3.68-8.79-1.91-3.19-4.66-6.53-8.4-9.36-3.73-2.8-8.44-5.19-13.88-6.15-1.36-.19-2.74-.47-4.17-.48-.71-.02-1.43-.09-2.15-.08-.72.04-1.45.08-2.18.11-.37.03-.73.02-1.1.07l-1.1.17c-.73.12-1.48.21-2.22.36-1.45.4-2.96.69-4.39,1.29-1.48.47-2.87,1.2-4.29,1.89-.7.38-1.36.82-2.05,1.23-.7.39-1.34.88-1.99,1.37-1.34.92-2.51,2.07-3.73,3.17-1.11,1.23-2.27,2.43-3.23,3.82-1.96,2.72-3.67,5.74-4.71,9.07-1.07,3.3-1.65,6.81-1.7,10.38.05,3.57.62,7.08,1.7,10.39,1.03,3.33,2.75,6.35,4.71,9.07.95,1.39,2.12,2.59,3.23,3.82,1.23,1.11,2.4,2.26,3.73,3.18.64.49,1.29.98,1.99,1.37.69.41,1.36.85,2.05,1.23,1.43.69,2.82,1.42,4.29,1.89,1.43.6,2.94.89,4.39,1.29.74.15,1.48.24,2.22.36l1.1.17c.37.05.74.05,1.1.07.73.04,1.46.08,2.18.11.72.01,1.44-.06,2.15-.08,1.43,0,2.8-.29,4.17-.48,5.44-.96,10.15-3.35,13.88-6.15,3.74-2.83,6.49-6.16,8.4-9.36,1.89-3.21,3.09-6.23,3.68-8.79.38-1.26.53-2.42.69-3.42.08-.5.17-.96.21-1.38.03-.42.05-.81.07-1.16.05-.68.08-1.2.11-1.57.03-.35.05-.54.05-.54,0,0,0,.18,0,.54-.01.38-.03.9-.05,1.58-.01.35-.03.74-.05,1.16-.04.43-.12.89-.19,1.39-.14,1.01-.28,2.18-.65,3.45-.56,2.58-1.74,5.64-3.62,8.89-1.9,3.23-4.66,6.62-8.43,9.5-3.76,2.85-8.52,5.29-14.02,6.28-1.38.2-2.77.49-4.22.5-.72.03-1.45.1-2.18.09-.73-.04-1.47-.07-2.21-.11-.37-.02-.75-.02-1.12-.07l-1.11-.17c-.74-.12-1.5-.21-2.25-.36-1.48-.4-3-.69-4.46-1.3-1.5-.48-2.91-1.21-4.36-1.91-.71-.38-1.38-.83-2.08-1.24-.71-.4-1.36-.89-2.02-1.39-1.36-.93-2.55-2.1-3.8-3.22-1.13-1.24-2.31-2.46-3.28-3.87-1.99-2.76-3.73-5.83-4.79-9.21-1.09-3.36-1.68-6.92-1.73-10.55.05-3.63.64-7.19,1.73-10.55,1.05-3.38,2.79-6.45,4.79-9.21.97-1.41,2.15-2.63,3.28-3.87,1.24-1.12,2.44-2.29,3.8-3.22.65-.5,1.31-.99,2.02-1.39.7-.41,1.38-.86,2.08-1.24,1.45-.69,2.86-1.43,4.36-1.91,1.45-.6,2.98-.9,4.46-1.3.75-.15,1.5-.24,2.25-.36l1.11-.17c.37-.05.75-.05,1.12-.07.74-.04,1.48-.07,2.21-.11.73,0,1.46.06,2.18.09,1.45.01,2.84.3,4.22.5,5.5.99,10.26,3.43,14.02,6.28,3.77,2.88,6.53,6.27,8.43,9.5,1.88,3.25,3.06,6.31,3.62,8.89.37,1.27.51,2.44.65,3.45.07.5.15.97.19,1.39.02.43.03.82.05,1.16.02.68.04,1.2.05,1.58,0,.36,0,.54,0,.54Z"/>
        </g>
        <g>
          <g>
            <circle class="cls-3" cx="92.1" cy="218.9" r="17.63" transform="translate(-122.47 117.13) rotate(-41.81)"/>
            <path class="cls-16" d="m74.51,217.74s.01.1.02.29c0,.21,0,.49,0,.84,0,.19,0,.39,0,.62.01.23.04.47.07.74.05.54.09,1.15.25,1.83.23,1.38.76,3.02,1.65,4.78.9,1.75,2.24,3.61,4.13,5.23,1.88,1.61,4.29,3.03,7.13,3.73,2.82.68,6.05.8,9.19-.17.8-.2,1.56-.54,2.33-.85.74-.39,1.52-.73,2.22-1.23.74-.44,1.4-1.01,2.08-1.55.63-.61,1.28-1.2,1.84-1.9,1.13-1.37,2.14-2.91,2.8-4.63.68-1.71,1.11-3.54,1.26-5.43.1-1.89-.08-3.76-.54-5.55-.43-1.79-1.23-3.45-2.17-4.96-.46-.77-1.03-1.44-1.57-2.13-.61-.63-1.19-1.28-1.86-1.81-.63-.58-1.36-1.03-2.04-1.51-.73-.41-1.44-.85-2.2-1.15-2.99-1.37-6.21-1.67-9.09-1.37-2.91.32-5.48,1.41-7.55,2.76-2.08,1.36-3.65,3.03-4.77,4.65-1.11,1.63-1.86,3.19-2.26,4.52-.25.65-.37,1.26-.49,1.79-.06.26-.12.5-.16.73-.03.22-.06.43-.08.61-.05.35-.09.62-.12.83-.03.19-.05.28-.05.28,0,0,0-.1.01-.29.02-.21.04-.49.08-.84.02-.19.04-.39.06-.62.03-.23.09-.47.15-.73.11-.53.22-1.15.46-1.81.38-1.35,1.11-2.94,2.22-4.6,1.12-1.65,2.7-3.36,4.8-4.76,2.1-1.39,4.71-2.52,7.67-2.86,2.94-.32,6.22-.03,9.29,1.36.78.31,1.51.75,2.26,1.17.7.49,1.45.94,2.09,1.54.69.54,1.28,1.2,1.91,1.85.56.7,1.14,1.39,1.61,2.17.96,1.54,1.78,3.23,2.23,5.07.46,1.83.65,3.74.55,5.68-.15,1.93-.59,3.81-1.29,5.55-.68,1.76-1.71,3.33-2.87,4.73-.57.72-1.24,1.32-1.88,1.94-.7.55-1.38,1.13-2.13,1.58-.72.51-1.51.86-2.28,1.25-.8.32-1.57.66-2.39.86-3.22.98-6.51.84-9.38.13-2.89-.72-5.34-2.19-7.23-3.84-1.9-1.67-3.25-3.56-4.14-5.35-.88-1.79-1.4-3.46-1.6-4.85-.15-.69-.18-1.31-.22-1.85-.02-.27-.04-.52-.05-.75,0-.23.01-.43.02-.62.01-.35.02-.63.03-.84,0-.19.02-.29.03-.28Z"/>
          </g>
          <path class="cls-16" d="m100.1,219.44s-.22.03-.62.04c-.44,0-1.02.02-1.71.03-1.45.02-3.48.03-5.77.04h-.11s0-.11,0-.11c0-.37,0-.75,0-1.14,0-2.55.01-4.87.03-6.54.01-.81.03-1.47.04-1.98.01-.47.03-.73.04-.73s.03.26.04.73c0,.51.02,1.17.04,1.98.02,1.67.03,3.98.03,6.54,0,.39,0,.78,0,1.14l-.11-.11c2.29,0,4.31.02,5.77.04.7.01,1.27.03,1.71.03.4.01.62.03.62.04Z"/>
          <path class="cls-16" d="m92.06,204.16c.06,0,.11.66.11,1.48s-.05,1.48-.11,1.48-.11-.66-.11-1.48.05-1.48.11-1.48Z"/>
          <path class="cls-16" d="m100.09,206.54s-.38.54-.95,1.11c-.57.57-1.07,1-1.11.95s.38-.54.95-1.11,1.07-1,1.11-.95Z"/>
          <path class="cls-16" d="m104.79,211.67c.03.06-.53.39-1.21.81-.69.42-1.24.76-1.28.7-.04-.05.47-.48,1.16-.9.69-.42,1.31-.67,1.33-.62Z"/>
          <path class="cls-16" d="m107.54,219.29c0,.06-.9.11-2.02.11s-2.02-.05-2.02-.11.9-.11,2.02-.11,2.02.05,2.02.11Z"/>
          <path class="cls-16" d="m79.54,219.02c0,.06-.85.11-1.91.11s-1.91-.05-1.91-.11.85-.11,1.91-.11,1.91.05,1.91.11Z"/>
          <path class="cls-16" d="m81.52,224.68s-.6.63-1.44,1.31c-.84.67-1.55,1.18-1.58,1.13s.61-.64,1.44-1.31c.83-.67,1.54-1.18,1.58-1.13Z"/>
          <path class="cls-16" d="m86.4,229.07c.05.04-.43.77-.98,1.7-.56.92-.98,1.69-1.04,1.66-.06-.03.28-.85.85-1.78.56-.94,1.13-1.62,1.18-1.58Z"/>
          <path class="cls-16" d="m92.06,234.72c-.06,0-.11-.9-.11-2.02s.05-2.02.11-2.02.11.9.11,2.02-.05,2.02-.11,2.02Z"/>
          <path class="cls-16" d="m100.76,232.03c-.03.05-.82-.4-1.66-1.14-.85-.73-1.4-1.46-1.36-1.49.05-.04.67.6,1.51,1.32.83.73,1.55,1.26,1.51,1.31Z"/>
          <path class="cls-16" d="m104.85,227.63s-.64-.48-1.34-1.18c-.69-.69-1.22-1.29-1.18-1.34.04-.04.64.48,1.34,1.18.69.69,1.22,1.29,1.18,1.34Z"/>
          <path class="cls-16" d="m81.33,213.59s-.57-.41-1.18-1.02c-.61-.61-1.06-1.14-1.02-1.18.04-.04.57.41,1.18,1.02s1.06,1.14,1.02,1.18Z"/>
          <path class="cls-16" d="m86.37,208.28s-.56-.4-1.16-.99c-.6-.59-1.04-1.11-1-1.16.04-.04.56.4,1.16.99.6.59,1.04,1.11,1,1.16Z"/>
        </g>
      </g>
      <g>
        <path class="cls-5" d="m171.46,267.77c-.08,0,.01-1.33-.57-3.63-.27-1.15-.82-2.5-1.67-3.94-.86-1.43-2.1-2.92-3.78-4.18-1.67-1.25-3.78-2.31-6.22-2.74-2.42-.41-5.14-.33-7.73.66-1.31.45-2.56,1.14-3.72,2.01-1.17.85-2.23,1.9-3.11,3.13-1.81,2.41-2.83,5.5-2.86,8.69.03,3.19,1.05,6.28,2.86,8.69.88,1.22,1.94,2.28,3.11,3.13,1.16.87,2.42,1.55,3.72,2.01,2.59.99,5.32,1.07,7.73.66,2.43-.43,4.54-1.49,6.22-2.74,1.68-1.26,2.92-2.75,3.78-4.18.85-1.43,1.4-2.79,1.67-3.94.58-2.29.48-3.63.57-3.63,0,0,.01.08.01.24,0,.19,0,.43-.01.71,0,.31-.02.7-.09,1.16-.06.46-.12.99-.28,1.56-.25,1.17-.77,2.56-1.62,4.04-.85,1.47-2.1,3.01-3.81,4.32-1.7,1.3-3.86,2.41-6.36,2.87-2.48.44-5.29.38-7.98-.63-1.35-.46-2.65-1.17-3.85-2.06-1.21-.87-2.31-1.96-3.22-3.22-1.88-2.49-2.94-5.69-2.97-8.99.03-3.3,1.09-6.5,2.97-8.99.91-1.26,2.01-2.35,3.22-3.22,1.2-.89,2.5-1.59,3.85-2.06,2.68-1.01,5.49-1.07,7.98-.63,2.5.46,4.66,1.57,6.36,2.87,1.71,1.31,2.95,2.85,3.81,4.32.85,1.48,1.37,2.86,1.62,4.04.16.58.22,1.11.28,1.56.08.45.09.84.09,1.16,0,.29,0,.52.01.71,0,.16,0,.24-.01.24Z"/>
        <g>
          <path class="cls-3" d="m159.45,271.22c-.83,0-1.55.45-1.99,1.14-.54-.42-1.21-.9-1.96-1.41-.41-.28-.8-.54-1.18-.77.46-.44.74-1.06.74-1.75,0-.5-.15-.97-.42-1.35.45-.31.96-.68,1.49-1.1.47-.37.91-.72,1.29-1.04.44.64,1.17,1.06,2.01,1.06,1.34,0,2.43-1.09,2.43-2.43,0-1.34-1.09-2.43-2.43-2.43-1.34,0-2.43,1.09-2.43,2.43,0,.29.06.57.15.82-.44.31-.92.66-1.43,1.06-.55.42-1.04.83-1.47,1.19-.43-.39-1-.64-1.63-.64-1.34,0-2.43,1.09-2.43,2.43,0,1.34,1.09,2.43,2.43,2.43.42,0,.81-.12,1.15-.3.41.3.86.62,1.34.94.77.52,1.49.98,2.09,1.34-.12.32-.19.66-.19,1.03,0,1.46,1.09,2.64,2.43,2.64,1.34,0,2.43-1.19,2.43-2.65,0-1.46-1.09-2.64-2.43-2.64Z"/>
          <path class="cls-16" d="m159.45,271.22s.34-.07.91.16c.55.21,1.35.88,1.54,2.04.1.57.02,1.24-.32,1.85-.33.61-.97,1.16-1.79,1.27-.81.14-1.74-.24-2.28-.99-.55-.74-.73-1.81-.36-2.76l.04.1c-1.09-.69-2.26-1.42-3.43-2.28h.1c-.73.43-1.72.43-2.48-.03-.77-.44-1.29-1.34-1.24-2.27.02-.93.62-1.84,1.51-2.22.88-.4,2-.23,2.72.45h-.14c.45-.37.94-.77,1.43-1.17.5-.37.99-.73,1.47-1.09l-.04.12c-.26-.66-.19-1.42.13-2.04.32-.62.9-1.08,1.55-1.26.65-.19,1.37-.1,1.94.23.58.32,1,.88,1.18,1.49.39,1.25-.35,2.62-1.47,3.05-1.12.47-2.44,0-3.03-.92l.13.02c-.97.8-1.91,1.5-2.79,2.14l.02-.11c.75,1.1.42,2.5-.35,3.19v-.1c1.3.84,2.31,1.63,3.11,2.2h-.06c.43-.65,1.02-.94,1.41-1.04.4-.1.61-.07.61-.07,0,.01-.22,0-.6.11-.38.11-.94.4-1.35,1.05l-.02.04-.04-.03c-.81-.56-1.82-1.33-3.14-2.16l-.07-.04.06-.06c.72-.66,1.01-1.98.31-3.01l-.04-.06.06-.04c.88-.64,1.81-1.34,2.77-2.15l.07-.06.05.08c.56.86,1.78,1.28,2.82.84,1.04-.4,1.72-1.67,1.36-2.82-.3-1.16-1.65-1.96-2.87-1.58-.6.17-1.13.59-1.42,1.16-.29.57-.35,1.26-.12,1.87l.03.07-.07.05c-.48.36-.97.72-1.47,1.09-.49.4-.97.79-1.42,1.16l-.07.06-.07-.06c-.67-.63-1.69-.78-2.5-.41-.82.35-1.37,1.18-1.39,2.04-.04.86.43,1.69,1.14,2.1.71.43,1.61.43,2.29.04l.05-.03.05.04c1.16.85,2.33,1.59,3.41,2.28l.06.04-.03.07c-.35.89-.19,1.91.33,2.6.51.71,1.37,1.06,2.14.94.77-.1,1.39-.62,1.71-1.2.33-.58.42-1.23.33-1.78-.17-1.13-.92-1.78-1.46-2.01-.55-.24-.9-.19-.89-.21Z"/>
        </g>
      </g>
      <g>
        <path class="cls-5" d="m381.5,216.74s-.03-.19-.05-.56c-.03-.39-.06-.93-.11-1.64-.02-.36-.05-.76-.07-1.2-.05-.44-.14-.92-.22-1.44-.16-1.04-.32-2.24-.72-3.55-.61-2.66-1.86-5.8-3.82-9.14-1.98-3.32-4.84-6.78-8.73-9.72-3.88-2.91-8.77-5.39-14.42-6.39-1.42-.2-2.85-.49-4.33-.5-.74-.03-1.48-.1-2.23-.09-.75.04-1.5.08-2.27.12-.38.03-.76.02-1.14.07l-1.14.18c-.76.13-1.54.22-2.3.37-1.51.41-3.08.72-4.56,1.34-1.54.49-2.98,1.25-4.46,1.96-.72.39-1.42.85-2.13,1.27-.73.41-1.4.91-2.06,1.42-1.39.95-2.61,2.15-3.88,3.3-1.15,1.27-2.36,2.52-3.35,3.97-2.04,2.83-3.81,5.97-4.89,9.42-1.12,3.43-1.72,7.08-1.77,10.79.05,3.71.65,7.36,1.76,10.8,1.08,3.46,2.85,6.6,4.89,9.43.99,1.45,2.2,2.69,3.35,3.97,1.27,1.15,2.49,2.35,3.88,3.3.67.51,1.34,1.02,2.07,1.42.72.42,1.41.88,2.13,1.27,1.48.71,2.93,1.47,4.46,1.96,1.49.62,3.05.93,4.56,1.34.77.16,1.54.25,2.3.37l1.14.18c.38.05.76.05,1.14.07.76.04,1.52.08,2.27.12.75.01,1.49-.06,2.23-.09,1.48,0,2.91-.3,4.33-.5,5.65-1,10.54-3.48,14.42-6.39,3.89-2.94,6.75-6.41,8.73-9.72,1.96-3.33,3.21-6.47,3.82-9.14.4-1.31.55-2.52.72-3.55.08-.52.17-1,.22-1.44.03-.44.05-.84.07-1.2.05-.7.08-1.25.11-1.64.03-.37.05-.56.05-.56,0,0,0,.19,0,.56-.01.39-.03.94-.06,1.64-.01.36-.03.77-.05,1.21-.04.44-.13.92-.2,1.45-.15,1.05-.29,2.26-.68,3.58-.58,2.68-1.81,5.86-3.77,9.23-1.97,3.36-4.84,6.88-8.75,9.87-3.9,2.96-8.85,5.49-14.57,6.53-1.43.21-2.88.51-4.38.52-.75.03-1.5.1-2.26.09-.76-.04-1.53-.07-2.3-.11-.38-.03-.77-.02-1.16-.07l-1.16-.17c-.77-.13-1.56-.22-2.34-.37-1.53-.41-3.12-.72-4.63-1.35-1.56-.5-3.02-1.26-4.53-1.98-.73-.4-1.44-.86-2.16-1.29-.74-.41-1.42-.92-2.1-1.44-1.41-.97-2.65-2.18-3.94-3.34-1.17-1.29-2.4-2.56-3.41-4.02-2.07-2.87-3.88-6.06-4.97-9.57-1.13-3.49-1.74-7.19-1.79-10.96.05-3.77.66-7.47,1.79-10.96,1.1-3.51,2.9-6.7,4.97-9.56,1.01-1.47,2.24-2.73,3.41-4.02,1.29-1.17,2.53-2.38,3.94-3.34.68-.52,1.36-1.03,2.1-1.44.73-.43,1.43-.89,2.16-1.29,1.51-.72,2.97-1.49,4.53-1.98,1.51-.63,3.1-.94,4.63-1.35.78-.16,1.56-.25,2.34-.37l1.16-.18c.39-.05.77-.05,1.16-.07.77-.04,1.54-.08,2.3-.11.76,0,1.51.06,2.26.09,1.5.01,2.95.31,4.38.52,5.72,1.03,10.66,3.56,14.56,6.53,3.92,2.99,6.78,6.51,8.75,9.87,1.96,3.37,3.18,6.55,3.77,9.24.38,1.32.53,2.54.68,3.58.07.52.16,1,.2,1.45.02.44.03.85.05,1.21.02.71.04,1.25.06,1.64,0,.37,0,.56,0,.56Z"/>
        <g>
          <path class="cls-16" d="m368.2,234.36s-.26.03-.76.05c-.55.01-1.27.03-2.18.05-1.95.02-4.68.05-8.03.08-6.82.02-16.16.04-26.48.07-.65,0-1.29,0-1.89,0h-.25s0-.25,0-.25c.03-9.89.06-18.76.08-25.22.03-3.17.06-5.74.08-7.58.02-.86.03-1.54.05-2.05.02-.47.03-.71.05-.71s.03.25.05.71c.01.52.03,1.2.05,2.05.02,1.84.05,4.41.08,7.58.02,6.46.05,15.33.08,25.22l-.25-.25c.6,0,1.24,0,1.89,0,10.32.03,19.66.05,26.48.07,3.35.03,6.08.06,8.03.08.91.02,1.64.04,2.18.05.5.02.76.03.76.05Z"/>
          <path class="cls-16" d="m363.83,207.42s-.4.42-1.17,1.12c-.85.74-1.97,1.73-3.32,2.92-2.82,2.44-6.73,5.8-11.08,9.47l-.66.56-.17.14-.16-.15c-1.74-1.61-3.39-3.15-4.93-4.58h.31c-2.9,2.4-5.39,4.45-7.24,5.98-.85.68-1.55,1.24-2.1,1.68-.49.38-.77.58-.78.56-.02-.02.22-.26.69-.68.53-.47,1.2-1.06,2.01-1.78,1.81-1.56,4.27-3.66,7.12-6.11l.15-.13.15.14c1.54,1.42,3.21,2.95,4.95,4.55h-.33s.66-.56.66-.56c4.34-3.68,8.3-6.99,11.17-9.36,1.4-1.14,2.55-2.08,3.42-2.79.82-.65,1.28-1,1.3-.97Z"/>
          <path class="cls-16" d="m363.83,215.66c-.07,0-.13-.93-.17-2.45-.04-1.52-.07-3.63-.08-5.98l.25.25c-.13,0-.28,0-.42,0-2.45,0-4.66-.03-6.26-.07-1.6-.05-2.59-.11-2.59-.18s.99-.13,2.59-.18c1.6-.05,3.82-.07,6.26-.07.15,0,.29,0,.42,0h.25s0,.25,0,.25c0,2.35-.03,4.46-.08,5.98-.04,1.52-.11,2.45-.17,2.45Z"/>
        </g>
      </g>
      <g>
        <path class="cls-5" d="m436.8,138.28s-.02-.14-.05-.42c-.02-.3-.05-.71-.09-1.23-.02-.27-.04-.58-.06-.91-.04-.33-.11-.69-.17-1.08-.13-.78-.25-1.69-.55-2.67-.46-2-1.4-4.37-2.88-6.87-1.49-2.49-3.64-5.1-6.57-7.31-2.92-2.19-6.6-4.05-10.85-4.8-4.22-.72-8.98-.59-13.52,1.13-1.15.37-2.24.94-3.35,1.48-1.06.64-2.17,1.23-3.15,2.03-1.05.72-1.96,1.62-2.92,2.48-.86.96-1.77,1.89-2.52,2.98-1.53,2.13-2.87,4.49-3.67,7.08-.84,2.58-1.29,5.32-1.33,8.11.04,2.79.49,5.53,1.32,8.11.81,2.6,2.14,4.96,3.67,7.09.75,1.09,1.65,2.02,2.52,2.98.96.86,1.87,1.76,2.92,2.48.98.8,2.1,1.39,3.15,2.03,1.12.54,2.2,1.11,3.35,1.48,4.54,1.72,9.3,1.86,13.52,1.13,4.25-.75,7.93-2.61,10.85-4.8,2.93-2.21,5.08-4.81,6.57-7.31,1.48-2.5,2.42-4.87,2.88-6.87.3-.99.42-1.89.55-2.67.06-.39.13-.75.17-1.08.02-.33.04-.63.06-.91.04-.52.07-.93.09-1.23.02-.28.04-.42.05-.42s.01.14,0,.42c0,.3-.02.71-.04,1.24-.01.27-.02.58-.03.91-.03.33-.09.7-.14,1.09-.11.79-.22,1.7-.5,2.7-.44,2.02-1.36,4.42-2.83,6.97-1.49,2.54-3.64,5.19-6.6,7.45-2.94,2.24-6.67,4.15-10.99,4.93-4.29.76-9.13.64-13.76-1.1-1.18-.37-2.28-.95-3.42-1.5-1.08-.65-2.21-1.25-3.22-2.06-1.07-.73-2-1.64-2.98-2.52-.88-.97-1.81-1.93-2.57-3.04-1.56-2.17-2.93-4.57-3.75-7.22-.86-2.63-1.32-5.43-1.35-8.28.04-2.84.5-5.64,1.36-8.27.83-2.65,2.19-5.06,3.75-7.22.76-1.11,1.69-2.06,2.57-3.04.98-.88,1.91-1.79,2.98-2.52,1-.81,2.14-1.41,3.22-2.06,1.14-.54,2.24-1.12,3.42-1.5,4.63-1.74,9.47-1.86,13.76-1.11,4.32.78,8.05,2.69,10.99,4.93,2.95,2.26,5.11,4.92,6.6,7.45,1.47,2.55,2.4,4.95,2.83,6.97.29,1,.39,1.91.5,2.7.05.39.12.76.14,1.09.01.33.02.64.03.91.02.52.03.93.04,1.24,0,.28,0,.42,0,.42Z"/>
        <g>
          <path class="cls-2" d="m411.64,124.4l3.47,7.04c.13.27.39.45.68.49l7.76,1.13c.74.11,1.04,1.02.5,1.54l-5.62,5.48c-.21.21-.31.51-.26.8l1.33,7.73c.13.74-.65,1.3-1.31.95l-6.95-3.65c-.26-.14-.58-.14-.84,0l-6.94,3.65c-.66.35-1.44-.21-1.31-.95l1.33-7.73c.05-.29-.05-.59-.26-.8l-5.62-5.48c-.54-.52-.24-1.43.5-1.54l7.76-1.13c.29-.04.55-.23.68-.49l3.47-7.04c.33-.67,1.29-.67,1.62,0Z"/>
          <path class="cls-16" d="m411.64,124.4s-.04-.07-.15-.19c-.1-.11-.3-.26-.6-.28-.29-.02-.69.14-.85.56-.2.41-.42.88-.68,1.41-.52,1.07-1.14,2.36-1.87,3.85-.18.38-.37.76-.57,1.16-.1.2-.2.41-.3.62-.13.23-.35.41-.6.48-.96.17-1.93.3-2.98.46-1.04.15-2.13.32-3.26.49-.56.09-1.14.17-1.72.26-.51.09-.76.8-.41,1.19,1.77,1.72,3.66,3.55,5.64,5.49.3.24.45.74.34,1.11-.06.35-.12.7-.18,1.05-.12.7-.24,1.41-.36,2.13-.24,1.43-.49,2.9-.75,4.39-.08.33.05.63.32.8.13.08.28.12.43.11.15-.01.28-.08.46-.18.68-.36,1.37-.72,2.06-1.08,1.38-.73,2.78-1.46,4.2-2.21l.54-.28c.22-.11.47-.14.71-.08.25.06.41.18.59.26l.53.28c.7.37,1.4.73,2.09,1.1,1.38.72,2.74,1.44,4.07,2.14.28.13.62.05.82-.18.1-.11.17-.25.18-.4.02-.13-.03-.31-.06-.5-.12-.73-.25-1.46-.37-2.17-.24-1.43-.48-2.84-.72-4.21-.06-.34-.12-.68-.17-1.02-.09-.39.11-.84.39-1.06.49-.47.96-.94,1.44-1.39.94-.92,1.86-1.81,2.75-2.67.44-.43.88-.85,1.31-1.27.43-.33.34-1.02-.1-1.25-.19-.12-.5-.11-.78-.17-.28-.04-.55-.08-.82-.12-.54-.08-1.08-.16-1.6-.24-1.04-.16-2.03-.3-2.96-.44-.47-.07-.92-.14-1.36-.21-.23-.04-.42-.05-.67-.12-.23-.08-.43-.23-.55-.43-.73-1.5-1.36-2.79-1.87-3.86-.5-1.04-.89-1.86-1.17-2.44-.12-.27-.22-.48-.29-.64-.06-.14-.09-.22-.09-.22,0,0,.05.07.12.21.08.16.19.36.33.62.29.57.7,1.38,1.23,2.41.53,1.05,1.18,2.33,1.92,3.81.1.16.25.28.43.34.17.05.42.06.63.1.44.06.9.13,1.37.19.94.13,1.93.27,2.97.42.52.07,1.05.15,1.6.23.27.04.55.08.83.12.27.06.56.03.88.2.3.16.5.47.53.81.04.34-.12.71-.36.91-.43.42-.86.84-1.3,1.27-.88.86-1.8,1.76-2.74,2.68-.47.46-.95.93-1.43,1.4-.24.21-.34.47-.29.76.06.34.12.68.18,1.02.24,1.37.48,2.77.73,4.2.12.72.25,1.44.37,2.17.02.18.08.36.06.6-.02.22-.12.44-.27.61-.29.34-.82.47-1.24.28-1.34-.7-2.71-1.42-4.1-2.14-.69-.36-1.39-.73-2.09-1.1l-.53-.28c-.18-.09-.35-.2-.49-.23-.15-.03-.32-.01-.46.05l-.53.28c-1.42.75-2.82,1.48-4.2,2.21-.69.36-1.38.72-2.06,1.08-.15.08-.37.21-.61.22-.23.02-.47-.04-.66-.17-.4-.23-.59-.76-.48-1.18.26-1.49.51-2.95.76-4.39.12-.72.25-1.43.37-2.13.06-.35.12-.7.18-1.05.08-.32,0-.59-.24-.8-1.99-1.95-3.87-3.8-5.64-5.54-.23-.28-.29-.68-.17-1.02.11-.34.41-.6.75-.67.59-.09,1.18-.17,1.75-.25,1.13-.16,2.22-.31,3.27-.46,1.03-.15,2.02-.29,2.95-.42.2-.06.37-.19.47-.36.1-.2.2-.4.3-.6.2-.4.39-.78.58-1.16.75-1.49,1.39-2.77,1.92-3.83.26-.52.5-.99.71-1.39.19-.45.65-.62.96-.58.33.03.53.2.63.33.1.13.12.21.12.21Z"/>
        </g>
      </g>
      <g>
        <path class="cls-5" d="m367.45,58.52s-.02-.1-.04-.31c-.02-.23-.04-.53-.07-.9-.02-.4-.06-.89-.17-1.46-.09-.57-.18-1.24-.41-1.96-.34-1.46-1.04-3.19-2.12-5.02-1.1-1.82-2.67-3.73-4.81-5.34-2.14-1.6-4.83-2.96-7.93-3.5-3.08-.53-6.56-.43-9.88.83-1.67.58-3.28,1.46-4.75,2.56-.76.52-1.43,1.18-2.13,1.81-.63.7-1.3,1.38-1.84,2.18-2.31,3.07-3.61,7.03-3.65,11.1.04,4.07,1.34,8.03,3.65,11.1.54.79,1.21,1.48,1.84,2.18.7.63,1.37,1.29,2.13,1.81,1.48,1.11,3.09,1.98,4.75,2.56,3.31,1.26,6.79,1.36,9.88.83,3.11-.55,5.8-1.9,7.93-3.5,2.14-1.61,3.72-3.52,4.81-5.34,1.09-1.83,1.78-3.56,2.12-5.02.22-.72.31-1.38.41-1.96.11-.57.15-1.06.17-1.46.03-.37.05-.67.07-.9.02-.2.03-.31.04-.31s.01.1.01.31c0,.23-.01.53-.02.91,0,.4-.03.89-.12,1.47-.08.58-.15,1.25-.36,1.98-.32,1.49-.99,3.25-2.07,5.12-1.09,1.87-2.67,3.82-4.84,5.48-2.16,1.65-4.9,3.06-8.08,3.63-3.15.56-6.72.47-10.12-.81-1.71-.59-3.37-1.48-4.89-2.61-.78-.54-1.47-1.21-2.19-1.86-.65-.72-1.33-1.42-1.89-2.23-2.38-3.15-3.72-7.22-3.76-11.41.04-4.18,1.38-8.25,3.76-11.4.56-.81,1.24-1.52,1.89-2.23.72-.65,1.41-1.32,2.19-1.86,1.52-1.13,3.17-2.02,4.89-2.61,3.4-1.28,6.97-1.36,10.12-.81,3.17.58,5.91,1.99,8.08,3.63,2.17,1.66,3.75,3.62,4.84,5.48,1.08,1.87,1.75,3.64,2.07,5.12.21.73.28,1.41.36,1.98.1.58.12,1.07.12,1.47,0,.38.01.67.02.91,0,.2,0,.31-.01.31Z"/>
        <g>
          <path class="cls-3" d="m356.86,56.23c0-5.35-4.83-9.56-10.37-8.52-3.48.65-6.26,3.5-6.86,6.99-.38,2.18.07,4.23,1.06,5.93h0l.02.03c.33.56.75.96,1.17,1.55l5.04,6.68c.63.83,1.88.83,2.5,0l4.96-6.57s.93-1.1,1.26-1.67l.02-.02h0c.76-1.29,1.2-2.78,1.2-4.39Zm-8.68,3.78c-2.11,0-3.82-1.71-3.82-3.82s1.71-3.82,3.82-3.82,3.82,1.71,3.82,3.82-1.71,3.82-3.82,3.82Z"/>
          <g>
            <path class="cls-9" d="m356.86,56.23c0-5.35-4.83-9.56-10.37-8.52-3.48.65-6.26,3.5-6.86,6.99-.38,2.18.07,4.23,1.06,5.93h0l.02.03c.33.56.75.96,1.17,1.55l5.04,6.68c.63.83,1.88.83,2.5,0l4.96-6.57s.93-1.1,1.26-1.67l.02-.02h0c.76-1.29,1.2-2.78,1.2-4.39Zm-8.68,3.78c-2.11,0-3.82-1.71-3.82-3.82s1.71-3.82,3.82-3.82,3.82,1.71,3.82,3.82-1.71,3.82-3.82,3.82Z"/>
            <path class="cls-16" d="m348.18,60.01s.34,0,.92-.16c.57-.15,1.41-.54,2.06-1.39.65-.83,1.01-2.2.52-3.54-.45-1.32-1.86-2.46-3.5-2.45-1.64-.02-3.05,1.13-3.5,2.45-.49,1.33-.13,2.71.52,3.54.65.86,1.48,1.24,2.06,1.39.58.15.92.13.92.16,0,0-.34.05-.94-.08-.59-.13-1.47-.5-2.15-1.38-.69-.85-1.09-2.29-.58-3.69.46-1.39,1.95-2.61,3.68-2.59,1.73-.02,3.21,1.2,3.68,2.59.51,1.41.11,2.84-.58,3.69-.69.88-1.56,1.25-2.15,1.38-.6.13-.94.08-.94.08Z"/>
            <path class="cls-16" d="m356.86,56.23s.04.42-.05,1.2c-.1.78-.36,1.93-1.1,3.21l-.05-.08h.11s-.07.09-.07.09l-.02.02h0c-1.53,2.03-3.56,4.74-5.95,7.93-.26.4-.67.86-1.23.95-.54.12-1.15-.05-1.54-.47-.68-.86-1.33-1.75-2.03-2.66-1.38-1.83-2.83-3.74-4.33-5.73h0s-.02-.02-.02-.02l-.13-.17h.21l-.09.16c-.3-.51-.56-1.08-.77-1.68-.68-2-.56-4.17.18-6,.73-1.85,2.07-3.34,3.62-4.27,1.56-.96,3.32-1.3,4.93-1.24,1.62.09,3.08.61,4.23,1.33,2.35,1.48,3.39,3.64,3.77,5.08.12.36.16.7.2.99.06.29.07.54.07.74.02.4.01.61.01.61-.05,0,.03-.86-.37-2.32-.39-1.43-1.45-3.54-3.77-4.98-1.14-.71-2.58-1.21-4.16-1.29-1.58-.05-3.3.29-4.82,1.23-1.52.92-2.83,2.38-3.53,4.19-.71,1.79-.83,3.91-.17,5.86.2.59.46,1.15.75,1.64l.09.16h-.19l.08-.17.02.03h0c1.49,1.99,2.93,3.9,4.31,5.72.69.91,1.36,1.79,2,2.65.35.37.89.52,1.37.42.51-.09.84-.46,1.12-.88,2.41-3.17,4.45-5.86,5.99-7.88h0s.02-.03.02-.03l.04.09h-.1s.05-.08.05-.08c.74-1.26,1.01-2.39,1.13-3.16.06-.39.08-.69.09-.89,0-.2.02-.31.02-.31Z"/>
          </g>
        </g>
      </g>
      <g>
        <path class="cls-5" d="m274.96,46.95s-.03-.18-.05-.54c-.03-.38-.06-.91-.11-1.6-.02-.35-.05-.74-.07-1.17-.05-.43-.14-.9-.21-1.4-.16-1.01-.31-2.19-.7-3.47-.59-2.59-1.81-5.66-3.73-8.91-1.93-3.24-4.72-6.61-8.51-9.48-3.78-2.84-8.55-5.26-14.06-6.23-1.38-.2-2.78-.48-4.22-.49-.72-.02-1.45-.09-2.18-.08-.73.04-1.47.08-2.21.11-.37.03-.74.02-1.12.07l-1.11.17c-.74.12-1.5.21-2.25.37-1.47.4-3,.7-4.45,1.31-1.5.48-2.9,1.22-4.35,1.91-.7.38-1.38.83-2.08,1.24-.71.4-1.36.89-2.01,1.39-1.36.93-2.54,2.1-3.78,3.22-1.12,1.24-2.3,2.46-3.27,3.87-1.99,2.76-3.72,5.82-4.77,9.19-1.09,3.35-1.67,6.9-1.72,10.52.05,3.62.63,7.18,1.72,10.53,1.05,3.37,2.78,6.44,4.77,9.19.97,1.41,2.15,2.63,3.27,3.87,1.24,1.12,2.43,2.29,3.79,3.22.65.5,1.3.99,2.01,1.39.7.41,1.37.86,2.08,1.24,1.45.69,2.86,1.43,4.35,1.91,1.45.61,2.98.91,4.45,1.31.75.15,1.5.24,2.25.37l1.11.17c.37.05.75.05,1.12.07.74.04,1.48.08,2.21.11.73.01,1.46-.06,2.18-.08,1.45,0,2.84-.29,4.22-.49,5.51-.98,10.28-3.39,14.06-6.24,3.79-2.87,6.58-6.25,8.51-9.48,1.92-3.25,3.13-6.31,3.73-8.91.39-1.28.54-2.45.7-3.47.08-.51.17-.97.21-1.4.03-.43.05-.82.07-1.17.05-.68.08-1.22.11-1.59.03-.36.05-.54.05-.54,0,0,0,.18,0,.54-.01.38-.03.91-.05,1.6-.01.35-.03.75-.05,1.18-.04.43-.12.9-.19,1.41-.15,1.02-.28,2.2-.66,3.49-.57,2.62-1.76,5.72-3.67,9.01-1.92,3.28-4.72,6.71-8.54,9.63-3.81,2.89-8.63,5.36-14.21,6.37-1.4.2-2.81.49-4.28.51-.73.03-1.46.1-2.21.09-.74-.04-1.49-.07-2.24-.11-.38-.03-.76-.02-1.13-.07l-1.13-.17c-.75-.12-1.52-.21-2.28-.37-1.5-.4-3.04-.7-4.52-1.32-1.52-.48-2.95-1.23-4.42-1.93-.72-.39-1.4-.84-2.11-1.26-.72-.4-1.38-.9-2.05-1.41-1.38-.94-2.58-2.12-3.85-3.26-1.14-1.26-2.34-2.49-3.32-3.92-2.02-2.8-3.78-5.91-4.85-9.33-1.11-3.4-1.7-7.02-1.75-10.69.05-3.67.64-7.29,1.75-10.69,1.07-3.42,2.83-6.53,4.85-9.33.98-1.43,2.18-2.66,3.32-3.92,1.26-1.14,2.47-2.32,3.85-3.26.66-.5,1.32-1,2.05-1.4.71-.42,1.4-.87,2.11-1.26,1.47-.7,2.9-1.45,4.42-1.93,1.47-.61,3.02-.91,4.52-1.32.76-.16,1.52-.24,2.28-.37l1.13-.17c.38-.05.76-.05,1.13-.07.75-.04,1.5-.07,2.24-.11.74,0,1.48.06,2.21.09,1.46.01,2.88.3,4.28.51,5.58,1.01,10.4,3.47,14.21,6.37,3.82,2.92,6.61,6.35,8.54,9.63,1.91,3.29,3.11,6.39,3.67,9.01.38,1.29.51,2.47.66,3.49.07.51.15.98.19,1.41.02.43.03.83.05,1.18.02.69.04,1.22.05,1.6,0,.36,0,.54,0,.54Z"/>
        <g>
          <path class="cls-9" d="m242.53,31.43c1.38.17,2.72.53,3.98,1.05l2.92-2.45,5.02,3.82-1.58,3.47c.84,1.07,1.54,2.27,2.07,3.55l3.8.33.85,6.25-3.57,1.33c-.17,1.38-.53,2.72-1.05,3.98l2.45,2.92-3.82,5.02-3.47-1.58c-1.07.84-2.27,1.54-3.55,2.07l-.33,3.8-6.25.85-1.33-3.57c-1.38-.17-2.72-.53-3.98-1.05l-2.92,2.45-5.02-3.82,1.58-3.47c-.84-1.07-1.54-2.27-2.07-3.55l-3.8-.33-.85-6.25,3.57-1.33c.17-1.38.53-2.72,1.05-3.98l-2.45-2.92,3.82-5.02,3.47,1.58c1.07-.84,2.27-1.54,3.55-2.07l.33-3.8,6.25-.85,1.33,3.57h0Zm-2.57,8.68c-3.7.5-6.3,3.91-5.79,7.61.5,3.7,3.91,6.3,7.61,5.79,3.7-.5,6.3-3.91,5.79-7.61-.5-3.7-3.91-6.3-7.61-5.79Z"/>
          <path class="cls-16" d="m239.96,40.11s.14-.05.43-.09c.28-.05.71-.07,1.25-.03,1.07.08,2.71.52,4.15,1.91,1.43,1.34,2.5,3.78,1.94,6.4-.26,1.29-.93,2.58-1.97,3.57-1.02,1.02-2.42,1.7-3.93,1.92-1.51.19-3.05-.1-4.31-.8-1.27-.68-2.25-1.75-2.85-2.92-1.24-2.37-.86-5.02.16-6.68,1.01-1.72,2.48-2.58,3.49-2.94.51-.19.93-.28,1.21-.31.28-.04.43-.04.44-.03.01.06-.59.12-1.57.53-.96.41-2.32,1.28-3.23,2.94-.92,1.6-1.23,4.07-.05,6.26.57,1.08,1.49,2.06,2.66,2.68,1.16.65,2.58.91,3.98.73,1.39-.2,2.69-.83,3.64-1.76.97-.91,1.59-2.1,1.85-3.29.55-2.42-.4-4.72-1.72-6.02-1.32-1.35-2.87-1.83-3.9-1.97-1.05-.14-1.65-.03-1.65-.09Z"/>
          <path class="cls-16" d="m242.53,31.43s-.04-.07-.1-.21c-.07-.17-.16-.39-.27-.67-.25-.63-.6-1.52-1.04-2.66l.09.06c-1.61.23-3.71.53-6.24.9l.12-.12c-.09,1.15-.2,2.43-.31,3.8v.1s-.1.04-.1.04c-1.18.5-2.37,1.18-3.5,2.06l-.08.07-.1-.05c-1.08-.49-2.26-1.02-3.48-1.57l.24-.06c-1.2,1.58-2.47,3.27-3.8,5.03v-.27c.75.9,1.59,1.9,2.45,2.92l.09.1-.05.13c-.48,1.17-.85,2.51-1.02,3.92l-.02.14-.13.05c-1.11.42-2.32.87-3.57,1.34l.16-.26c.27,1.96.56,4.08.86,6.25l-.23-.22c1.18.1,2.48.22,3.8.33h.16s.06.16.06.16c.49,1.17,1.18,2.38,2.04,3.49l.1.13-.07.15c-.49,1.09-1.03,2.27-1.58,3.47l-.08-.32c1.59,1.21,3.29,2.5,5.02,3.82h-.34c.92-.77,1.92-1.6,2.92-2.44l.13-.11.15.06c1.19.49,2.53.86,3.9,1.03h0s0,0,0,0c.1.08-.22-.18.22.18h0s0,.01,0,.01h0s.01.04.01.04l.02.06.04.11.08.22.17.45.33.9c.22.6.44,1.19.66,1.78l-.29-.17c2.11-.29,4.2-.57,6.25-.85l-.23.24c.11-1.28.23-2.54.34-3.8v-.16s.16-.06.16-.06c1.26-.52,2.44-1.21,3.49-2.03l.13-.1.15.07c1.17.54,2.33,1.06,3.47,1.58l-.31.08c1.31-1.71,2.58-3.38,3.83-5.01v.31c-.82-.99-1.64-1.97-2.44-2.93l-.1-.11.06-.14c.53-1.28.87-2.6,1.04-3.91l.02-.14.13-.05c1.22-.45,2.41-.9,3.57-1.33l-.15.24c-.29-2.2-.57-4.28-.83-6.25l.19.18c-1.33-.12-2.59-.24-3.79-.35h-.12s-.05-.12-.05-.12c-.55-1.34-1.25-2.5-2.03-3.52l-.07-.09.05-.1c.58-1.26,1.1-2.39,1.6-3.46l.05.2c-1.93-1.49-3.58-2.76-5-3.85h.15c-1.17.96-2.14,1.75-2.94,2.42l-.04.03-.05-.02c-1.27-.54-2.28-.78-2.94-.93-.31-.06-.56-.11-.75-.15-.17-.03-.25-.05-.25-.06,0,0,.09,0,.25.01.17.02.42.05.76.1.67.12,1.69.33,2.99.85h-.09c.79-.66,1.74-1.48,2.9-2.46l.07-.06.08.06c1.43,1.07,3.09,2.32,5.04,3.79l.1.08-.05.12c-.48,1.08-1,2.21-1.56,3.48l-.02-.18c.81,1.03,1.53,2.22,2.11,3.59l-.16-.12c1.21.1,2.46.21,3.8.32h.17s.02.18.02.18c.27,1.98.56,4.05.87,6.25l.02.18-.17.06c-1.16.44-2.34.88-3.57,1.34l.15-.19c-.17,1.35-.52,2.72-1.06,4.04l-.04-.25c.8.96,1.62,1.93,2.45,2.92l.13.15-.12.16c-1.24,1.63-2.51,3.31-3.81,5.02l-.13.17-.19-.09c-1.14-.52-2.3-1.04-3.47-1.58l.27-.03c-1.09.85-2.31,1.56-3.61,2.11l.16-.22c-.11,1.25-.22,2.52-.33,3.8l-.02.22-.21.03c-2.05.28-4.14.56-6.25.85l-.22.03-.08-.2c-.22-.59-.44-1.18-.67-1.78l-.33-.9-.17-.45-.08-.22-.04-.11-.02-.06v-.03s-.02-.01-.02-.01h0s0-.01,0-.01c.44.35.12.1.22.18h0s0,0,0,0c-1.43-.18-2.81-.56-4.04-1.07l.28-.04c-1,.84-2,1.67-2.92,2.45l-.17.14-.17-.13c-1.73-1.32-3.43-2.61-5.02-3.82l-.17-.13.09-.19c.55-1.2,1.09-2.38,1.58-3.47l.03.27c-.89-1.15-1.6-2.4-2.1-3.61l.22.16c-1.31-.12-2.61-.23-3.79-.34l-.2-.02-.03-.2c-.29-2.17-.57-4.29-.84-6.25l-.03-.19.18-.07c1.24-.46,2.46-.92,3.57-1.33l-.15.19c.18-1.45.58-2.84,1.08-4.03l.04.23c-.85-1.02-1.68-2.02-2.44-2.93l-.11-.13.1-.14c1.35-1.76,2.63-3.43,3.84-5.01l.1-.12.14.06c1.21.56,2.38,1.1,3.46,1.6l-.18.02c1.17-.9,2.39-1.58,3.6-2.08l-.1.13c.13-1.37.25-2.64.36-3.79v-.11s.12-.01.12-.01c2.54-.32,4.65-.59,6.26-.8h.07s.02.06.02.06c.41,1.14.72,2.03.95,2.66.1.29.18.51.24.69.05.16.08.24.07.25Z"/>
        </g>
      </g>
    </g>
  </g>
  <g id="Character">
    <g>
      <g>
        <path class="cls-5" d="m200.37,296.14s-.5.17-1.4.47c-6.24,2.11-24.81,8.25-30.43,10.54,0,0,9.94,87.91,11.11,96.08,1.17,8.17,1.46,40.85,1.46,40.85h105.74s-.28-88.1.02-101.77c.4-17.68,2.59-35.17,2.59-35.17l-18.47-7.22-21.59-11.38-49.02,7.59Z"/>
        <g class="cls-11">
          <path d="m223.89,315.16c-8.63,32.06-17.73,63.99-27.28,95.78-1.13,3.75-2.25,7.86-.72,11.47,1.36,3.22,4.7,5.34,8.16,5.8,3.46.46,7-.56,10.05-2.26,7.15-3.99,11.79-11.5,14.07-19.36,2.28-7.86,2.49-16.15,2.67-24.34.5-21.82,1-43.65,1.5-65.47l-8.44-1.62Z"/>
        </g>
        <path class="cls-5" d="m168.55,307.15s-15.51,6.87-14.3,34.43c.82,18.75,3.67,35.9,3.67,35.9l43.61-12.56-11.09-47.86-21.89-9.92Z"/>
        <path class="cls-5" d="m271.97,351.51l-2.33,31.81,43.84-14.2s-9.4-56.15-24.29-61.97l-16.05,27.43-1.17,16.93Z"/>
        <path class="cls-16" d="m276.96,342.32s.05.22.08.65c.03.48.08,1.1.13,1.86.09,1.68.22,4.01.38,6.85.29,5.78.6,13.78.88,22.61.28,8.8.54,16.77.73,22.61.09,2.85.16,5.17.21,6.85.01.77.03,1.38.03,1.86,0,.43,0,.65-.02.65-.02,0-.05-.22-.08-.65-.03-.48-.08-1.1-.13-1.86-.09-1.68-.22-4-.38-6.85-.29-5.78-.6-13.78-.88-22.61-.28-8.8-.54-16.77-.73-22.61-.09-2.85-.16-5.17-.21-6.85-.01-.77-.03-1.38-.03-1.86,0-.43,0-.65.02-.65Z"/>
        <path class="cls-16" d="m190.24,328.93s-.23-.35-.57-1.01c-.38-.77-.86-1.71-1.41-2.82-1.21-2.36-2.89-5.66-5.46-8.78-2.57-3.12-5.67-5.22-8.12-6.19-2.45-1-4.14-1.05-4.12-1.16,0-.03.42-.04,1.16.05.75.08,1.82.31,3.09.77,2.54.9,5.76,3.01,8.38,6.2,2.62,3.18,4.27,6.54,5.39,8.95.56,1.21.98,2.21,1.27,2.9.28.69.42,1.08.39,1.1Z"/>
        <path class="cls-16" d="m282.08,305.82c.15.08-1.65,3.16-2.76,7.36-1.15,4.19-1.13,7.76-1.3,7.75-.06,0-.15-.89-.09-2.33.06-1.44.31-3.43.88-5.56.57-2.13,1.36-3.97,2.02-5.25.67-1.28,1.19-2,1.24-1.97Z"/>
        <g>
          <path class="cls-2" d="m184.57,319.51s-.16-.01-.43.05c-.27.05-.65.27-.96.7-.33.43-.54,1.04-.67,1.82-.08.38-.15.8-.32,1.24-.16.43-.43.89-.89,1.19-.95.63-2.27.35-3.24-.35-1.01-.74-1.6-1.9-2.32-2.95-.36-.53-.77-1.02-1.3-1.39-.52-.37-1.15-.64-1.78-.61-.62.03-1.21.43-1.53.99-.32.58-.41,1.31-.46,2.04-.05.74-.06,1.49-.15,2.23-.09.74-.26,1.51-.71,2.15-.1.17-.24.3-.38.44-.13.14-.29.26-.46.35-.33.19-.71.3-1.08.34-.74.07-1.45-.1-2.07-.39-1.26-.62-2.04-1.67-2.76-2.56-.71-.91-1.4-1.72-2.2-2.24-.78-.53-1.67-.77-2.39-.63-.72.15-1.25.61-1.55,1.04-.3.44-.36.87-.33,1.14.02.28.09.42.06.43,0,0-.11-.12-.17-.42-.06-.29-.03-.77.26-1.27.3-.48.84-1.01,1.65-1.21.82-.19,1.79.05,2.65.6.87.54,1.62,1.38,2.34,2.28.73.88,1.51,1.87,2.63,2.4.56.26,1.19.4,1.81.33.63-.05,1.19-.4,1.55-.93.73-1.09.64-2.63.75-4.13.06-.75.14-1.54.53-2.26.39-.71,1.15-1.21,1.95-1.25,1.63-.02,2.79,1.16,3.5,2.24.73,1.09,1.3,2.21,2.18,2.87.87.65,2.02.88,2.79.39.77-.5.94-1.45,1.12-2.19.15-.76.42-1.45.79-1.88.36-.45.8-.66,1.1-.68.3-.03.45.06.45.06Z"/>
          <path class="cls-2" d="m193.44,334.27s.04.2.02.57c-.03.38-.16.94-.54,1.56-.37.62-1.02,1.27-1.97,1.72-.92.43-2.25.6-3.43-.05-1.17-.57-2.15-1.68-3.51-2.06-1.38-.41-2.87.54-3.74,1.87-.91,1.34-1.28,3.1-2.2,4.74-.47.82-1.13,1.57-1.99,2.07-.84.51-2,.7-2.97.24-.96-.46-1.59-1.31-2.08-2.12-.5-.82-.91-1.65-1.41-2.37-.49-.74-1.13-1.33-1.9-1.54-.77-.23-1.59-.01-2.24.44-1.33.91-2.09,2.34-2.69,3.68-.62,1.34-1.18,2.63-1.88,3.71-1.35,2.24-3.5,3.21-4.92,3.24-.73.04-1.28-.13-1.62-.28-.18-.07-.29-.16-.38-.2-.08-.05-.12-.08-.12-.09.02-.08.7.49,2.1.38,1.36-.1,3.37-1.05,4.62-3.23.66-1.06,1.19-2.33,1.8-3.69.6-1.34,1.36-2.88,2.82-3.9.71-.51,1.71-.79,2.63-.52.94.25,1.68.96,2.19,1.73.53.77.95,1.61,1.43,2.39.48.78,1.06,1.53,1.85,1.91.81.38,1.74.24,2.5-.21.77-.44,1.38-1.12,1.81-1.88.88-1.53,1.26-3.3,2.24-4.75.49-.71,1.11-1.33,1.86-1.72.73-.4,1.63-.52,2.39-.3.77.21,1.39.65,1.95,1.05.56.41,1.08.81,1.62,1.1,1.07.61,2.26.48,3.15.11.89-.39,1.53-.99,1.91-1.56.78-1.17.62-2.04.69-2.02Z"/>
          <path class="cls-2" d="m188.34,355.62s-.13-.03-.37-.05c-.23-.02-.6.03-.96.31-.36.28-.71.74-.92,1.37-.25.62-.18,1.38-.1,2.24.07.85.23,1.87-.22,2.9-.44,1.05-1.68,1.69-2.9,1.66-1.25.04-2.54-.6-3.44-1.6-.93-.99-1.56-2.24-2.18-3.5l.18.14c-1.01-.19-2.05.45-2.72,1.35-.7.9-.96,2.08-1.15,3.3-.14.9-.24,1.81-.49,2.7-.25.9-.68,1.74-1.3,2.41-.61.67-1.51,1.15-2.43,1.12-.92-.02-1.73-.47-2.35-1-1.28-1.09-1.91-2.54-2.78-3.6-.83-1.11-2-1.77-3.16-1.81-1.16-.07-2.2.35-2.88.96-.69.62-1.05,1.38-1.22,2-.33,1.29-.02,2.04-.09,2.04,0,0-.03-.04-.06-.13-.03-.09-.07-.22-.1-.4-.06-.35-.1-.89.05-1.57.15-.67.5-1.48,1.22-2.17.71-.69,1.84-1.17,3.09-1.12.62.02,1.28.18,1.89.52.61.33,1.14.83,1.59,1.39.93,1.11,1.57,2.52,2.76,3.5.58.49,1.29.87,2.05.87.76.02,1.5-.37,2.05-.97.55-.6.95-1.37,1.18-2.2.23-.84.33-1.73.47-2.65.19-1.22.46-2.52,1.25-3.53.73-.99,1.95-1.76,3.22-1.53l.13.02.05.11c.61,1.26,1.22,2.47,2.08,3.39.84.94,1.96,1.5,3.09,1.49,1.11.03,2.16-.51,2.56-1.39.41-.88.29-1.86.24-2.71-.07-.85-.11-1.69.18-2.35.25-.66.65-1.14,1.06-1.42.42-.28.83-.31,1.07-.25.25.05.36.14.36.14Z"/>
        </g>
        <path class="cls-2" d="m309.74,351.39s-.19.03-.5.14c-.32.11-.76.38-1.13.91-.37.52-.68,1.26-.89,2.16-.2.89-.31,2-.85,3.1-.26.54-.65,1.11-1.27,1.46-.61.35-1.43.39-2.12.06-.69-.33-1.2-.92-1.61-1.55-.41-.63-.75-1.35-1.06-2.05-.31-.68-.75-1.34-1.29-1.89-.54-.53-1.28-.96-2-.77-.74.16-1.22.86-1.36,1.68-.16.82-.12,1.7-.13,2.61-.03,1.83-.56,3.7-1.83,4.99-1.24,1.26-3.19,1.83-4.75,1.14-1.53-.69-2.44-1.95-3.46-2.84-.98-.94-2.21-1.46-3.31-1.15-1.09.28-1.89,1.05-2.38,1.8-.5.76-.75,1.53-.93,2.16-.34,1.26-.46,1.99-.5,1.98-.02,0,0-.19.04-.53.05-.34.12-.85.27-1.5.16-.64.38-1.44.88-2.26.5-.8,1.32-1.66,2.54-2,.6-.17,1.29-.14,1.93.08.65.22,1.22.64,1.75,1.1,1.06.91,2,2.12,3.36,2.72,1.35.59,3.08.09,4.2-1.05,1.14-1.16,1.64-2.9,1.67-4.65.01-.88-.04-1.79.15-2.7.09-.45.25-.91.55-1.3.3-.39.73-.66,1.2-.77.99-.23,1.88.34,2.46.92.6.61,1.05,1.31,1.38,2.05.31.72.62,1.39,1,2,.38.6.85,1.13,1.42,1.41.56.28,1.23.25,1.74-.03.52-.27.88-.77,1.13-1.27.53-1.03.66-2.08.89-3,.24-.92.59-1.68,1.01-2.21.42-.54.91-.8,1.26-.89.35-.09.53-.04.53-.04Z"/>
        <path class="cls-2" d="m304.54,327.89s-.05.14-.18.37c-.14.23-.34.57-.63.99-.29.42-.67.92-1.2,1.44-.52.51-1.22,1.04-2.13,1.31-.88.28-2.03.33-3.03-.27-1-.61-1.48-1.79-2.38-2.41-.44-.3-1.02-.39-1.51-.16-.5.23-.89.71-1.16,1.26-.27.55-.44,1.18-.48,1.81-.03.65,0,1.34-.03,2.04-.03.7-.1,1.42-.39,2.1-.28.67-.81,1.25-1.46,1.55-1.33.6-2.74.26-3.85-.22-1.14-.52-2.01-1.29-2.88-1.9-.85-.63-1.69-1.14-2.53-1.38-.83-.27-1.64-.13-2.28.12-.64.27-1.12.66-1.39,1.06-.55.84-.26,1.46-.34,1.45-.01,0-.07-.13-.11-.4-.03-.27,0-.7.28-1.16.26-.46.77-.91,1.45-1.22.67-.29,1.58-.48,2.5-.2.91.24,1.81.77,2.68,1.39.88.6,1.76,1.35,2.82,1.81,1.04.45,2.34.72,3.43.2.53-.25.97-.72,1.2-1.29.25-.57.32-1.24.35-1.91.03-.68,0-1.36.03-2.05.04-.71.23-1.39.54-2.01.31-.61.76-1.19,1.42-1.48.66-.31,1.45-.17,1.98.21,1.06.79,1.48,1.92,2.34,2.44.84.53,1.87.52,2.7.28.84-.23,1.51-.7,2.03-1.17.52-.48.92-.95,1.23-1.34.62-.8.95-1.26.98-1.23Z"/>
        <g>
          <path class="cls-2" d="m278.98,385.43s-.1.27-.52.59c-.41.33-1.22.54-2.19.36-.49-.09-1.01-.25-1.55-.53-.54-.28-1.05-.66-1.62-1.05-.56-.38-1.17-.8-1.87-1.07-.7-.29-1.51-.34-2.28-.06-.77.29-1.38.96-1.86,1.73-.49.78-.88,1.67-1.3,2.6-.42.92-.84,1.91-1.52,2.81-.36.43-.76.87-1.29,1.15-.27.14-.54.28-.84.32-.15.03-.3.07-.45.09h-.46c-.61-.03-1.24-.24-1.73-.61-.52-.34-.93-.81-1.32-1.27-.77-.95-1.4-2-2.15-2.97-.74-.95-1.64-1.86-2.82-2.17-1.17-.3-2.45.05-3.51.73-1.08.68-1.92,1.65-2.59,2.72-.68,1.07-1.24,2.2-1.87,3.28-.63,1.08-1.36,2.13-2.3,2.93-.92.81-2.04,1.42-3.25,1.55-1.2.13-2.41-.28-3.28-.98-.89-.7-1.53-1.57-2.12-2.4-1.16-1.67-2.17-3.3-3.61-4.2-.7-.46-1.48-.67-2.23-.68-.75,0-1.45.2-2.06.47-1.23.55-2.06,1.43-2.55,2.24-.49.82-.63,1.56-.66,2.06,0,.5.02.77,0,.77,0,0-.02-.06-.04-.19-.01-.13-.06-.32-.06-.58,0-.51.11-1.29.59-2.16.47-.86,1.32-1.79,2.6-2.4.64-.3,1.37-.52,2.18-.54.81-.01,1.68.21,2.43.7,1.54.95,2.6,2.63,3.76,4.26.59.82,1.23,1.65,2.05,2.28.81.65,1.88.99,2.95.87,1.08-.12,2.11-.69,2.98-1.45.88-.76,1.57-1.75,2.18-2.81.62-1.06,1.18-2.21,1.88-3.31.68-1.1,1.58-2.16,2.75-2.89,1.14-.73,2.57-1.14,3.92-.79,1.36.36,2.32,1.38,3.09,2.36.77,1,1.4,2.05,2.13,2.97.72.9,1.62,1.7,2.7,1.72,1.07.06,2.03-.51,2.65-1.35.64-.83,1.06-1.79,1.49-2.71.43-.92.83-1.83,1.36-2.64.52-.8,1.19-1.54,2.07-1.86.87-.31,1.79-.23,2.53.1.75.31,1.36.74,1.92,1.14.56.4,1.06.8,1.56,1.07.5.28,1.01.45,1.47.55.93.2,1.69.04,2.1-.24.42-.27.55-.52.57-.5Z"/>
          <path class="cls-2" d="m277.08,352.16s-.02.06-.08.16c-.07.1-.19.24-.41.35-.43.23-1.19.22-1.99-.18-.83-.38-1.48-1.32-2.58-1.77-.53-.22-1.21-.14-1.68.29-.47.44-.71,1.15-.92,1.88-.22.74-.4,1.54-.81,2.33-.21.38-.48.78-.87,1.06-.38.29-.85.47-1.34.52-1.98.2-3.86-1.12-5.14-2.69-.69-.76-1.37-1.56-2.2-2.17-.83-.61-1.84-.99-2.91-.93-2.14.09-4.18,1.49-5.59,3.29-1.43,1.84-2.38,3.97-3.64,5.84-1.21,1.9-2.95,3.47-4.98,4.14-1,.33-2.08.44-3.08.19-1-.23-1.85-.84-2.49-1.51-1.29-1.34-2.14-2.87-3.42-3.66-.63-.39-1.34-.56-2-.51-.66.05-1.26.31-1.75.65-.98.69-1.61,1.57-2.07,2.29-.91,1.46-1.24,2.38-1.29,2.35-.01,0,.06-.24.23-.66.17-.42.45-1.04.89-1.8.45-.74,1.05-1.66,2.08-2.42.51-.37,1.15-.68,1.89-.74.73-.07,1.52.11,2.22.53,1.41.85,2.28,2.41,3.54,3.67.62.63,1.39,1.16,2.29,1.36.9.21,1.88.12,2.82-.2,1.9-.64,3.53-2.1,4.7-3.96,1.23-1.83,2.18-3.97,3.66-5.88,1.49-1.88,3.61-3.37,5.98-3.48,1.18-.06,2.33.38,3.22,1.04.9.67,1.58,1.49,2.27,2.25.68.77,1.35,1.48,2.17,1.93.81.46,1.71.74,2.56.65.86-.07,1.54-.63,1.9-1.35.39-.71.58-1.5.81-2.25.23-.73.49-1.49,1.05-2.02.58-.52,1.41-.58,2.01-.32,1.2.53,1.81,1.49,2.57,1.86.74.4,1.45.44,1.85.26.41-.17.5-.44.53-.41Z"/>
          <path class="cls-2" d="m277.59,317.65s-.16-.16-.51-.34c-.35-.19-.96-.32-1.69-.12-.74.18-1.55.72-2.06,1.68-.55.94-.82,2.16-1.24,3.51-.22.67-.5,1.37-.96,2.02-.44.65-1.13,1.22-1.97,1.48-.84.25-1.77.18-2.63-.07-.87-.26-1.7-.67-2.48-1.18-1.54-1-3.04-2.34-4.94-2.68-.94-.15-1.93,0-2.81.46-.89.44-1.67,1.12-2.37,1.89-1.42,1.53-2.38,3.4-3.72,4.95-.66.78-1.39,1.49-2.23,2.02-.84.54-1.81.87-2.78.9-1.98.04-3.6-1.02-4.88-2.02-1.29-1.04-2.37-2.11-3.51-2.88-1.13-.77-2.32-1.25-3.39-1.24-1.07.01-1.98.37-2.58.83-.62.45-.91,1-1.04,1.37-.14.38-.13.6-.17.6,0,0-.04-.22.07-.63.11-.4.38-1,1.02-1.5.61-.51,1.56-.92,2.7-.96,1.16-.05,2.42.45,3.6,1.22,1.19.77,2.3,1.85,3.57,2.85,1.26.97,2.82,1.94,4.59,1.88,1.78-.05,3.4-1.26,4.64-2.77,1.29-1.49,2.24-3.37,3.73-4.97.73-.8,1.56-1.52,2.53-2,.96-.5,2.08-.67,3.12-.5,2.11.39,3.62,1.81,5.12,2.78,1.48.98,3.21,1.66,4.72,1.25.74-.22,1.34-.7,1.76-1.3.43-.59.71-1.26.93-1.91.43-1.3.74-2.56,1.34-3.54.3-.48.65-.9,1.05-1.19.4-.29.83-.46,1.22-.54.79-.18,1.44,0,1.79.23.36.23.46.44.46.44Z"/>
          <path class="cls-2" d="m272.45,301.42s0,.13-.06.37c-.06.24-.16.59-.36,1.03-.2.42-.48.97-1.06,1.39-.56.44-1.59.49-2.28-.15-.68-.61-1.03-1.5-1.54-2.3-.25-.4-.55-.79-.95-1.04-.4-.26-.89-.42-1.4-.44-1.04-.07-2.13.33-2.97,1.11-.86.77-1.51,1.82-2.07,2.94-.29.57-.6,1.15-1.05,1.64-.43.49-1.11.89-1.82.81-.71-.06-1.27-.49-1.66-.96-.4-.48-.64-1.04-.82-1.57-.36-1.05-.6-2.08-1.28-2.7-.33-.31-.72-.54-1.12-.59-.4-.05-.78.08-1.07.33-.57.51-.81,1.26-1.04,1.87-.22.63-.53,1.16-.86,1.51-.33.36-.7.52-.96.55-.26.03-.39-.02-.38-.03-.02-.05.6.06,1.19-.66.29-.35.54-.85.74-1.47.22-.62.4-1.41,1.08-2.05.33-.31.84-.51,1.35-.45.51.05.99.32,1.37.67.81.73,1.08,1.86,1.44,2.86.18.51.4,1,.75,1.41.34.4.81.74,1.32.77.52.05,1.01-.22,1.39-.65.39-.43.68-.97.97-1.53.58-1.14,1.25-2.25,2.2-3.09.92-.85,2.18-1.31,3.35-1.21.58.04,1.16.22,1.63.54.48.32.81.77,1.06,1.2.52.86.85,1.72,1.42,2.26.56.53,1.37.53,1.87.18.52-.34.82-.84,1.04-1.24.42-.82.55-1.33.6-1.31Z"/>
          <path class="cls-2" d="m207.25,301.5s.05.16.1.47c.04.31.1.78.12,1.38.02.6,0,1.36-.26,2.19-.24.84-.88,1.74-1.9,2.24-.5.24-1.13.38-1.76.22-.63-.14-1.17-.6-1.56-1.12-.4-.52-.69-1.12-1.04-1.66-.35-.55-.79-1.05-1.39-1.27-1.22-.45-2.78.24-3.44,1.52-.35.63-.55,1.37-.62,2.13-.08.76,0,1.55.04,2.37.04.82.06,1.67-.18,2.48-.22.8-.68,1.58-1.41,2.04-.73.46-1.66.47-2.4.19-.75-.27-1.37-.73-1.89-1.24-1.02-1.06-1.65-2.26-2.53-3.11-.84-.88-1.96-1.28-2.99-1.21-1.03.05-1.91.49-2.48,1.06-.58.58-.88,1.25-1.03,1.81-.28,1.14-.03,1.81-.1,1.82-.01,0-.08-.15-.14-.47-.05-.31-.09-.8.04-1.4.12-.6.41-1.32,1.02-1.97.6-.65,1.55-1.15,2.67-1.23,1.11-.11,2.4.33,3.31,1.27.95.9,1.61,2.12,2.56,3.08.49.47,1.06.89,1.71,1.12.65.23,1.38.21,1.96-.16.58-.37.98-1.03,1.18-1.75.21-.72.2-1.51.16-2.31-.13-1.59-.18-3.35.66-4.79.77-1.45,2.56-2.28,4.05-1.72.75.28,1.24.9,1.6,1.47.37.58.65,1.17,1.01,1.65.35.49.8.86,1.31.99.51.14,1.05.04,1.5-.17.93-.43,1.53-1.22,1.78-2,.28-.78.32-1.51.33-2.1,0-1.19-.06-1.85-.02-1.85Z"/>
        </g>
      </g>
      <g>
        <g>
          <g>
            <path class="cls-16" d="m260.82,186.35c-6.77-1.46-13.15,5.03-20.03,4.28-4.18-.46-7.56-3.48-11.4-5.21-5.73-2.59-13.51-2.43-18.86.88-5.35,3.31-8.69,6.65-8.93,12.93-5.33-2.49-13.28,4.63-15.64,11.05-2.37,6.42-1.1,12.75,1.1,19.23,3.79,11.16,9.8,21.56,17.57,30.42.69.78,1.75,1.63,2.66,1.11.63-.36.77-1.19.82-1.91.46-6.14-.83-12.25-1.87-18.31-1.04-6.07-1.83-12.34-.4-18.33,1.44-5.98,5.54-11.68,11.46-13.38,4.37-1.25,9.11-.2,13.24,1.68,4.14,1.88,7.86,4.56,11.83,6.76,3.97,2.21,8.38,3.98,12.92,3.79,4.54-.19,9.21-2.73,10.8-6.99,1.58-4.26-1.07-9.9-5.58-10.47,4.04-.72,7.29-4.54,7.37-8.63.07-4.1-3.04-8.03-7.05-8.9Z"/>
            <g>
              <g>
                <path class="cls-14" d="m249.44,294.22l-1.75-13.05s16.99-4.77,15.12-22.1c-.9-8.37-4.16-25.45-7.28-40.88-3.36-16.59-18.9-27.82-35.71-25.8l-1.67.2c-17.88,3.21-25.14,20.19-21.43,37.98l10.08,69.6c1.7,11.71,12.53,19.86,24.25,18.24h0c11.74-1.62,19.96-12.43,18.39-24.18Z"/>
                <path class="cls-13" d="m247.72,281.16s-10.83,2.2-23.33-3.7c0,0,6.83,11.81,23.91,8.18l-.58-4.48Z"/>
              </g>
              <g>
                <g>
                  <g>
                    <path class="cls-16" d="m250.21,228.7c.21,1.35-.71,2.64-2.07,2.88-1.35.24-2.62-.66-2.83-2.02-.21-1.35.71-2.64,2.06-2.88,1.35-.24,2.62.67,2.83,2.02Z"/>
                    <path class="cls-16" d="m252.83,228.25c-.27.36-2.31-.8-4.97-.48-2.66.29-4.45,1.89-4.78,1.6-.16-.13.08-.75.86-1.47.76-.72,2.12-1.49,3.78-1.68,1.66-.19,3.12.25,4,.78.89.53,1.24,1.08,1.11,1.24Z"/>
                  </g>
                  <g>
                    <path class="cls-16" d="m224.89,230.83c.22,1.38-.71,2.69-2.06,2.93-1.35.24-2.62-.69-2.84-2.07-.22-1.38.71-2.69,2.06-2.93,1.35-.24,2.63.69,2.84,2.07Z"/>
                    <path class="cls-16" d="m227.3,230.32c-.27.36-2.31-.8-4.97-.47-2.66.29-4.45,1.89-4.78,1.6-.16-.13.08-.75.86-1.47.76-.72,2.12-1.49,3.77-1.68,1.66-.19,3.12.25,4,.78.89.53,1.24,1.08,1.11,1.24Z"/>
                  </g>
                  <path class="cls-16" d="m238.77,249.3c-.03-.15,1.59-.63,4.23-1.3.67-.15,1.3-.36,1.36-.84.1-.51-.27-1.21-.7-1.96-.84-1.57-1.71-3.21-2.63-4.93-3.67-7.03-6.42-12.84-6.14-12.99.28-.15,3.49,5.43,7.17,12.46.89,1.74,1.74,3.39,2.55,4.97.35.74.9,1.56.67,2.62-.12.53-.58.96-1,1.13-.42.19-.8.24-1.13.3-2.68.47-4.35.68-4.38.53Z"/>
                  <path class="cls-16" d="m231.16,252.08c.43-.08.78,2.81,3.5,4.56,2.71,1.76,5.75,1.07,5.82,1.47.06.18-.62.64-1.91.83-1.27.2-3.18.01-4.84-1.06-1.66-1.08-2.51-2.67-2.75-3.85-.25-1.19-.02-1.95.18-1.95Z"/>
                </g>
                <path class="cls-16" d="m225.96,218.16c-.18.75-2.87.73-5.95,1.48-3.09.69-5.5,1.9-5.99,1.31-.22-.29.14-1.02,1.07-1.84.92-.82,2.45-1.68,4.3-2.11,1.85-.43,3.6-.34,4.79-.01,1.2.32,1.85.82,1.77,1.18Z"/>
                <path class="cls-16" d="m250.93,219.52c-.4.66-2.3.25-4.51.49-2.21.16-4.02.89-4.52.31-.22-.28,0-.92.74-1.59.73-.67,2.02-1.29,3.54-1.43,1.52-.13,2.9.26,3.74.78.85.53,1.18,1.12,1.01,1.44Z"/>
              </g>
            </g>
            <g>
              <path class="cls-14" d="m199.68,243.21c-.31-.09-12.31-2.09-10.51,9.7,1.8,11.79,13.26,7.55,13.23,7.21-.03-.34-2.71-16.91-2.71-16.91Z"/>
              <path class="cls-13" d="m198.11,256.2c-.06-.03-.18.17-.51.39-.31.21-.88.4-1.53.27-1.31-.27-2.67-2.08-3.05-4.2-.19-1.07-.12-2.12.13-3.03.23-.92.69-1.6,1.3-1.81.6-.24,1.1.07,1.3.38.21.31.17.55.23.56.04.02.22-.24.05-.71-.08-.23-.26-.48-.58-.67-.32-.19-.75-.24-1.18-.13-.9.2-1.59,1.16-1.87,2.15-.33,1-.43,2.19-.21,3.39.44,2.36,1.99,4.4,3.77,4.63.86.09,1.52-.27,1.83-.6.32-.35.34-.62.3-.64Z"/>
            </g>
            <path class="cls-16" d="m258.76,214.12c-7.38,2.94-16.18,2.04-22.81-2.34-4.64-3.06-8.5-7.81-13.97-8.8-3.68-.67-7.54.57-10.57,2.76-3.04,2.19-5.34,5.25-7.25,8.47,4.4,8.39,3.33,18.48,2.15,27.88-.13,1.04-.3,2.16-1.05,2.9-1.27,1.24-3.47.65-4.84-.48-2.2-1.81-3.3-4.61-4.14-7.33-1.9-6.2-2.85-12.75-2.19-19.21.66-6.45,2.98-12.81,7.1-17.82,5.15-6.26,12.96-10.12,21.02-10.97,8.06-.84,16.31,1.23,23.32,5.31,3.25,1.89,6.32,4.28,8.27,7.5"/>
          </g>
          <path class="cls-4" d="m266.29,189.93s.11.35.02,1.04c-.09.67-.44,1.69-1.36,2.64-.91.96-2.42,1.71-4.24,2.01-.91.15-1.9.24-2.96.17-1.05-.08-2.19-.34-3.18-1.04-.97-.68-1.82-1.79-1.88-3.16-.07-1.39.89-2.69,2.15-3.32.63-.33,1.35-.52,2.1-.53.74,0,1.51.24,2.14.67,1.3.84,2.07,2.36,2.26,3.93.2,1.59-.33,3.27-1.34,4.57-1.01,1.31-2.42,2.31-4,2.95-3.17,1.3-6.86,1.11-10.24.11-3.42-.98-6.49-2.62-9.38-4.22-2.89-1.6-5.7-3.12-8.54-4.11-2.83-1.01-5.73-1.39-8.37-1-2.64.38-4.97,1.42-6.86,2.67-3.81,2.55-5.83,5.84-6.99,8.08-.58,1.14-.96,2.07-1.2,2.69-.25.63-.37.97-.39.96,0,0,0-.09.05-.26.05-.17.11-.42.22-.74.21-.65.55-1.59,1.11-2.76,1.11-2.29,3.1-5.66,6.97-8.32,1.92-1.3,4.3-2.39,7.02-2.81,2.72-.42,5.72-.04,8.62.97,2.91,1,5.75,2.53,8.65,4.12,2.89,1.59,5.92,3.2,9.27,4.16,3.31.97,6.84,1.14,9.86-.08,1.49-.6,2.82-1.54,3.76-2.75.95-1.21,1.43-2.71,1.25-4.16-.16-1.43-.87-2.81-2.01-3.55-1.11-.8-2.6-.73-3.73-.14-1.14.57-1.97,1.69-1.92,2.87.04,1.18.78,2.21,1.67,2.84.9.64,1.97.91,2.97,1,1.01.08,1.98.01,2.87-.12,1.78-.26,3.24-.95,4.13-1.84.91-.89,1.28-1.85,1.41-2.5.13-.66.07-1.02.1-1.02Z"/>
          <path class="cls-4" d="m185.07,220.72c.03-.13,1.41.52,3.73.5,1.15-.02,2.52-.27,3.92-.89,1.4-.6,2.83-1.54,4.18-2.67,2.69-2.32,3.98-5.43,4.43-7.68.46-2.28.23-3.75.35-3.76.04,0,.12.35.18,1.02.06.66.06,1.63-.12,2.82-.35,2.34-1.63,5.62-4.45,8.05-1.4,1.18-2.88,2.12-4.36,2.72-1.47.62-2.93.84-4.13.8-1.21-.04-2.16-.28-2.78-.5-.63-.22-.95-.39-.94-.43Z"/>
          <path class="cls-4" d="m186.62,229.22c0-.11,1.42.03,3.64-.36,2.2-.38,5.22-1.44,7.83-3.65,2.61-2.22,4.15-5.03,4.88-7.14.75-2.12.84-3.54.95-3.53.04,0,.05.36,0,1-.06.64-.21,1.56-.54,2.66-.64,2.19-2.18,5.15-4.89,7.45-2.72,2.3-5.88,3.33-8.15,3.61-1.14.15-2.08.15-2.72.1-.64-.05-.99-.12-.99-.15Z"/>
          <path class="cls-13" d="m219.27,243.1c-.15.05-.33-.05-.38-.22-.06-.17.03-.35.18-.4.15-.05.33.05.38.22.06.17-.02.35-.18.4Z"/>
          <path class="cls-13" d="m224.21,241.34c-.15.05-.33-.07-.4-.26-.06-.19.01-.39.17-.44.15-.05.33.07.4.26.06.19-.01.39-.17.44Z"/>
          <path class="cls-13" d="m227.62,240.84c-.16.04-.34-.14-.4-.4-.06-.26.01-.5.17-.54.16-.04.34.14.4.4.06.26-.01.5-.17.54Z"/>
          <path class="cls-13" d="m222.15,245.99c-.16.02-.3-.05-.32-.15-.01-.1.11-.2.27-.22.16-.02.3.05.32.15.01.1-.11.2-.27.22Z"/>
          <path class="cls-13" d="m226.68,244.35c-.16.03-.32-.09-.36-.27s.06-.36.22-.39c.16-.03.32.09.36.27.04.18-.06.36-.22.39Z"/>
          <path class="cls-13" d="m250.59,238.54c-.15.05-.33-.05-.38-.22-.06-.18.02-.36.18-.41.16-.05.33.05.38.22.06.18-.02.36-.18.41Z"/>
          <path class="cls-13" d="m254.01,237.81c-.16.04-.32-.1-.37-.3-.04-.2.05-.39.21-.43.16-.04.32.1.37.3.04.2-.05.39-.21.43Z"/>
          <path class="cls-13" d="m247.54,238.99c-.15.05-.32-.02-.36-.15-.04-.14.04-.29.2-.34.15-.05.32.02.36.15.04.14-.04.29-.2.34Z"/>
          <path class="cls-13" d="m250.52,242.15c-.14.08-.33.02-.43-.14-.1-.16-.06-.36.08-.44.14-.08.33-.02.43.14.1.16.06.36-.08.44Z"/>
          <path class="cls-13" d="m253.41,241.2c-.16-.02-.28-.15-.26-.29.02-.14.17-.23.33-.2.16.02.28.15.26.29-.02.14-.17.23-.33.2Z"/>
        </g>
        <path class="cls-16" d="m188.53,249.45c.02.06-.65.06-1.18-.72-.25-.37-.43-.93-.31-1.54.12-.6.5-1.2,1.07-1.59.57-.4,1.27-.53,1.85-.46.59.06,1.08.29,1.44.55.72.54.84,1.12.79,1.13-.08.05-.31-.43-1-.82-.64-.38-1.84-.64-2.8.03-.47.32-.79.8-.9,1.27-.12.47-.02.92.16,1.25.36.69.9.83.86.9Z"/>
      </g>
      <g>
        <path class="cls-14" d="m278.04,378.63l.89,25.82s-74.86,14.83-84.49,19.79c-9.63,4.96-13.56,5.73-12.98,20.03l119.63-.21s14.74-5.52,14.45-21.57-4.3-54.61-4.3-54.61l-33.2,10.75Z"/>
        <g>
          <path class="cls-14" d="m193.84,444.67l9.94-.91,9.49-22.67c-1.54-.26-33.55-4.99-35.44-4.48l-7.68,27.28s23,.78,23.69.78Z"/>
          <g>
            <g>
              <path class="cls-14" d="m171.95,444.32s.21.09.53.12c2.64.29,14.85-.45,14.85-.45.56-1.58-.5-6.31-2.02-6.59-1.52-.28-14.52.6-14.52.6,0,0-2.05.27-2.56,3.71-.32,2.12,3.7,2.62,3.7,2.62Z"/>
              <path class="cls-14" d="m167.82,437.38s.21.09.53.12c2.64.29,14.19.16,14.69-1.24.56-1.58-.33-5.52-1.85-5.8-1.52-.28-14.52.6-14.52.6,0,0-2.05.27-2.56,3.71-.31,2.12,3.7,2.62,3.7,2.62Z"/>
              <path class="cls-14" d="m165.78,430.6s.21.09.53.12c2.64.29,14.19.16,14.69-1.24.56-1.58-.33-5.52-1.85-5.8-1.52-.28-14.52.6-14.52.6,0,0-2.05.27-2.56,3.71-.31,2.12,3.7,2.62,3.7,2.62Z"/>
              <path class="cls-14" d="m163.86,423.85s.21.09.53.12c2.64.29,14.19.16,14.69-1.24.56-1.58-.33-5.52-1.85-5.8-1.52-.28-14.52.6-14.52.6,0,0-2.05.27-2.56,3.71-.32,2.13,3.7,2.62,3.7,2.62Z"/>
              <path class="cls-13" d="m181.94,437.33c-.02.2-2.53.43-5.62.52-3.09.09-5.58,0-5.56-.2.02-.2,2.53-.43,5.62-.52,3.09-.09,5.57,0,5.56.2Z"/>
              <path class="cls-13" d="m182.01,430.52c0,.2-3.57.48-7.99.62-4.42.14-8.01.09-8.01-.11,0-.2,3.57-.48,7.99-.62,4.42-.14,8.01-.09,8.01.11Z"/>
              <g class="cls-7">
                <path class="cls-13" d="m181.46,423.61c0,.2-3.57.48-7.99.62-4.42.14-8.01.09-8.01-.11,0-.2,3.57-.48,7.99-.62,4.42-.14,8.01-.09,8.01.11Z"/>
              </g>
            </g>
            <path class="cls-14" d="m199.99,419.33s-21.79-9.69-23.15-8.29c-1.36,1.4-3.46,5.9-3.46,5.9l26.61,2.39Z"/>
          </g>
        </g>
        <path class="cls-13" d="m295.66,426.98c-.09.03-.54-1.56-1.57-3.99-.51-1.22-1.21-2.63-2.07-4.15-.88-1.51-1.93-3.12-3.16-4.71-1.25-1.58-2.55-2.99-3.8-4.21-1.27-1.2-2.46-2.22-3.52-3.02-2.11-1.6-3.54-2.42-3.49-2.5.02-.03.39.15,1.04.51.66.35,1.58.92,2.67,1.69,1.1.76,2.33,1.77,3.63,2.97,1.28,1.22,2.62,2.64,3.88,4.24,1.25,1.62,2.3,3.26,3.17,4.8.84,1.55,1.52,3,1.99,4.25.48,1.25.81,2.27.99,3,.19.72.27,1.12.24,1.13Z"/>
      </g>
      <g>
        <g>
          <g>
            <path class="cls-14" d="m208.02,305.4l-22.54,64.16-25.34,7.3s9.19,38.89,18.57,45.87c3.19,2.37,8.4,4.94,13.74,4.57,10.13-.71,21.49-7.85,25.82-17.82,3.85-8.86,14.13-100.49,14.13-100.49l-24.38-3.58Z"/>
            <g>
              <g>
                <path class="cls-14" d="m232.09,311.72l1.31-15.63-3.63-12.55-1.4-4.8,2.74,2.8,5-5.33s-1.62-9.47-2.98-9.47c-.85,0-3.33.85-5.06,1.49-1.03.38-1.79.68-1.79.68l-4.23,2.16,4.23-6.49s4.36,3.63,6.59.48c1.71-2.41-4.65-7.81-7.04-9.72-.55-.44-1.26-.6-1.95-.47l-2.47.5c.08-1.39-1.43-3.26-3.61-3.29-3.23-.05-4.73,2.84-4.73,2.84l-2.6.47c-1.82,0-3.44,1.13-4.07,2.84l-5.72,15.56,7.34,31.63"/>
                <path class="cls-13" d="m208.02,305.4s-.06-.19-.16-.56c-.1-.4-.24-.95-.41-1.66-.36-1.48-.87-3.62-1.53-6.34-1.3-5.52-3.17-13.41-5.44-23.02v-.06s0-.06,0-.06c1.13-3.09,2.32-6.35,3.57-9.78.63-1.71,1.27-3.47,1.92-5.26.28-.9.79-1.87,1.61-2.5.8-.65,1.83-1.02,2.88-1.02h-.04c.81-.14,1.7-.3,2.6-.47l-.17.13c.47-.82,1.12-1.51,1.91-2.06.79-.53,1.74-.87,2.72-.9.98-.08,2.02.25,2.8.88.78.63,1.41,1.55,1.39,2.66l-.31-.26c.62-.12,1.24-.25,1.87-.38.32-.05.61-.14.98-.17.35-.02.71.03,1.05.16.33.11.66.34.89.54l.76.62c.5.42,1,.84,1.49,1.28.98.88,1.93,1.8,2.81,2.82.86,1.02,1.75,2.09,2.13,3.5.09.4.12.85-.03,1.27-.15.44-.46.72-.73,1.02-.6.58-1.46.86-2.26.82-1.63-.1-3-.91-4.21-1.82l.38-.06c-1.44,2.2-2.85,4.36-4.24,6.49l-.33-.37c1.43-.73,2.84-1.45,4.24-2.16h.01s.01-.01.01-.01c1.43-.54,2.84-1.08,4.26-1.53.71-.22,1.42-.45,2.17-.59.2-.03.35-.08.64-.04.3.09.44.28.56.44.23.33.38.67.52,1.02,1.02,2.76,1.5,5.53,2.01,8.2l.02.11-.08.09c-1.74,1.85-3.41,3.61-5.01,5.32l-.16.17-.16-.16c-.95-.97-1.85-1.9-2.74-2.81l.35-.2c1.92,6.72,3.6,12.56,4.97,17.36v.03s0,.03,0,.03c-.44,4.92-.8,8.82-1.04,11.52-.13,1.31-.23,2.33-.3,3.05-.04.33-.06.59-.09.78-.02.18-.04.26-.04.26,0,0,0-.09,0-.27.01-.2.03-.46.05-.79.05-.72.12-1.74.22-3.06.21-2.7.51-6.6.9-11.53v.05c-1.4-4.8-3.11-10.62-5.08-17.33l-.23-.8.58.59c.89.9,1.8,1.83,2.75,2.8h-.31c1.6-1.71,3.26-3.48,4.99-5.33l-.06.2c-.5-2.64-1.01-5.43-2-8.1-.13-.32-.28-.65-.47-.91-.09-.14-.21-.23-.26-.24-.07-.02-.3.01-.45.04-.69.13-1.4.35-2.1.58-1.41.45-2.81.99-4.23,1.53h.02c-1.39.7-2.8,1.43-4.23,2.16l-.85.44.52-.8c1.39-2.13,2.8-4.3,4.23-6.49l.15-.23.23.18c1.12.86,2.48,1.63,3.89,1.7.7.03,1.39-.2,1.89-.68.23-.26.5-.52.59-.81.1-.3.09-.64.01-.98-.32-1.21-1.17-2.29-2.01-3.27-.86-.99-1.8-1.9-2.77-2.77-.48-.44-.97-.86-1.47-1.27-.51-.39-.97-.89-1.5-1.07-.56-.22-1.1-.11-1.75.03-.63.13-1.25.25-1.87.37l-.32.06v-.33c.03-.85-.5-1.69-1.19-2.24-.69-.55-1.58-.85-2.46-.78-1.8.04-3.38,1.24-4.22,2.69l-.06.11-.11.02c-.9.16-1.8.32-2.61.47h-.02s-.02,0-.02,0c-.94,0-1.86.33-2.57.91-.74.59-1.17,1.38-1.46,2.29-.66,1.79-1.31,3.54-1.94,5.25-1.27,3.42-2.47,6.69-3.61,9.77v-.12c2.2,9.63,4.01,17.54,5.27,23.06.61,2.73,1.09,4.88,1.42,6.37.15.71.27,1.27.36,1.67.08.38.1.58.1.58Z"/>
              </g>
              <path class="cls-13" d="m226.08,276.71c-.05-.11,1.81-1.11,4.38-2.36l1.63-.79-1.35,1.21c-.35.31-.66.7-.9,1.15-.4.75-.56,1.58-.5,2.31.06.74.31,1.38.59,1.87.59.99,1.24,1.37,1.19,1.44-.01.05-.77-.22-1.5-1.24-.35-.5-.67-1.19-.76-2.02-.09-.82.07-1.76.52-2.6.27-.51.63-.95,1.03-1.29l.27.42c-2.59,1.2-4.55,2.01-4.6,1.9Z"/>
              <path class="cls-13" d="m214.1,268.26c-.06-.04.41-.94,1.22-2.36.81-1.42,1.97-3.37,3.27-5.5.66-1.07,1.27-2.08,1.87-3,.6-.91,1.31-1.68,2.07-2.1.75-.42,1.48-.49,1.95-.43.48.06.7.22.69.24-.01.04-.26-.05-.7-.04-.44,0-1.08.13-1.75.55-1.38.81-2.34,2.95-3.68,5.05-1.3,2.13-2.51,4.05-3.4,5.42-.89,1.37-1.48,2.2-1.54,2.17Z"/>
              <path class="cls-13" d="m206.35,268.2c-.06-.03.21-.84.74-2.13.53-1.28,1.31-3.04,2.25-4.93.94-1.9,1.86-3.58,2.56-4.78.7-1.2,1.18-1.91,1.24-1.88.06.04-.3.81-.92,2.05-.71,1.42-1.52,3.04-2.42,4.83-.88,1.8-1.68,3.43-2.38,4.85-.61,1.24-1.01,2-1.08,1.97Z"/>
            </g>
          </g>
          <path class="cls-13" d="m188.24,363.29s-.1.43-.37,1.16c-.31.83-.7,1.87-1.16,3.1-.99,2.62-2.34,6.23-3.77,10.25-1.43,4.02-2.66,7.68-3.54,10.33-.42,1.24-.77,2.29-1.06,3.14-.26.74-.41,1.14-.45,1.13-.03-.01.06-.43.26-1.19.2-.76.5-1.85.9-3.19.8-2.68,1.97-6.37,3.4-10.39,1.43-4.02,2.84-7.63,3.91-10.21.54-1.29.99-2.33,1.31-3.04.32-.71.52-1.1.55-1.09Z"/>
        </g>
        <path class="cls-13" d="m221.66,392.87s0,.1-.02.3c-.03.22-.07.51-.12.86-.11.79-.27,1.9-.48,3.3-.22,1.43-.48,3.19-.89,5.21-.41,2.02-.96,4.32-1.88,6.76-.93,2.43-2.31,5.01-4.41,7.27-2.07,2.27-4.63,4.37-7.6,6.13-2.97,1.77-6.35,3.14-9.96,4.14-1.82.48-3.73.8-5.68.8-1.96.01-3.94-.36-5.83-1.02-3.79-1.38-6.94-3.93-9.28-6.86-2.38-2.92-4.07-6.18-5.38-9.35-1.31-3.2-2.08-6.38-2.98-9.28-.9-2.91-1.74-5.62-2.5-8.1-1.55-4.95-2.73-8.98-3.46-11.79-.37-1.4-.64-2.5-.81-3.24-.08-.35-.14-.63-.19-.85-.04-.19-.06-.29-.05-.29,0,0,.04.09.1.28.06.22.14.49.24.84.22.77.52,1.85.9,3.21.8,2.79,2.03,6.8,3.62,11.73.79,2.47,1.64,5.18,2.57,8.08.93,2.91,1.71,6.08,3.02,9.23,1.31,3.14,2.98,6.35,5.33,9.21,2.31,2.87,5.38,5.35,9.06,6.69,1.84.65,3.75,1.01,5.65.99,1.9,0,3.77-.3,5.55-.77,3.57-.98,6.92-2.33,9.85-4.06,2.93-1.73,5.48-3.78,7.53-6.01,2.07-2.21,3.44-4.72,4.38-7.11.94-2.4,1.51-4.68,1.94-6.68.43-2.01.72-3.76.97-5.19.24-1.4.44-2.5.57-3.29.07-.35.12-.63.17-.85.04-.19.07-.29.07-.29Z"/>
      </g>
    </g>
  </g>
  <g id="Plant">
    <g>
      <path class="cls-5" d="m33.84,378.17c-.9-3.12-2.83-6.15-5.82-7.43-3.11-1.34-6.71-.58-9.88.58-3.18,1.16-6.3,2.7-9.68,2.91-3.38.21-7.19-1.39-8.2-4.62-.95-3.03.88-6.27,3.17-8.48,4.81-4.63,12.05-6.6,18.55-5.04,6.5,1.56,12.05,6.6,14.24,12.91"/>
      <g>
        <g class="cls-8">
          <path d="m33.84,378.17c-.9-3.12-2.83-6.15-5.82-7.43-3.11-1.34-6.71-.58-9.88.58-3.18,1.16-6.3,2.7-9.68,2.91-3.38.21-7.19-1.39-8.2-4.62-.95-3.03.88-6.27,3.17-8.48,4.81-4.63,12.05-6.6,18.55-5.04,6.5,1.56,12.05,6.6,14.24,12.91"/>
        </g>
        <path class="cls-5" d="m60.59,391.73c4.95-4.71,4.71-12.9,2.24-19.27-2.47-6.37-7.86-11.26-13.89-14.49-11.68-6.25-26.28-6.72-38.33-1.24,5.93.2,11.65,3.56,14.71,8.64,2.71,4.51,3.32,9.98,5.56,14.74,2.5,5.3,7.08,9.59,12.54,11.72,5.46,2.13,11.74,2.1,17.17-.11"/>
        <path class="cls-5" d="m62.97,363.46c5.48-6.47,6.21-16.87,5.41-25.31-.81-8.45-2.77-16.95-1.43-25.33.79-4.96,2.72-9.7,3.37-14.69.65-4.98-.27-10.62-4.13-13.84-4.44-3.7-11.43-2.83-16.05.65-4.62,3.47-7.29,8.93-9.25,14.36-4.3,11.94-5.87,25.19-2.34,37.38,3.53,12.19,11.81,23.09,23.96,26.77"/>
        <path class="cls-16" d="m65.6,416.58s.02-.26.02-.75c0-.49,0-1.21-.04-2.14-.07-1.86-.25-4.54-.66-7.84-.42-3.3-1.07-7.21-2.11-11.48-1.02-4.28-2.77-8.85-5.24-13.29-2.48-4.45-5.5-8.28-8.56-11.45-3.07-3.16-6.2-5.63-8.98-7.46-1.37-.95-2.7-1.67-3.84-2.33-1.17-.61-2.19-1.12-3.03-1.52-.83-.35-1.48-.62-1.97-.83-.45-.18-.69-.27-.7-.26,0,.01.22.13.66.34.48.22,1.12.53,1.93.91.82.43,1.83.95,2.98,1.58,1.12.68,2.43,1.42,3.78,2.38,2.73,1.86,5.83,4.33,8.85,7.49,3.02,3.16,6.01,6.97,8.47,11.38,5.04,8.82,6.42,18.1,7.42,24.6.46,3.28.68,5.96.81,7.81.05.89.09,1.6.13,2.13.03.49.05.74.07.74Z"/>
        <g>
          <path class="cls-5" d="m112.91,337.92c10.15,6.12,10.12,11.7,8.42,16.96-1.69,5.26-7.92,8.91-13.09,6.94-2.92-1.11-5.03-3.65-6.84-6.2-1.81-2.55-3.5-5.28-6.03-7.11-2.53-1.83-6.2-2.53-8.74-.72"/>
          <g class="cls-8">
            <path d="m112.91,337.92c10.15,6.12,10.12,11.7,8.42,16.96-1.69,5.26-7.92,8.91-13.09,6.94-2.92-1.11-5.03-3.65-6.84-6.2-1.81-2.55-3.5-5.28-6.03-7.11-2.53-1.83-6.2-2.53-8.74-.72"/>
          </g>
          <path class="cls-5" d="m120.51,344.63c-2.65-3.67-9.21-4.73-13.35-2.9-4.14,1.83-7.17,5.46-9.88,9.08-2.71,3.62-5.36,7.45-9.11,9.97-3.76,2.52-9.01,3.43-12.76.89-2.46-1.67-3.89-4.57-4.33-7.5-.45-2.94-.02-5.94.6-8.85.9-4.26,2.36-8.7,5.76-11.4,3.8-3.01,9.06-3.16,13.91-3,5.56.18,11.2.6,16.42,2.53,5.22,1.93,10.54,6.09,12.75,11.19"/>
          <path class="cls-16" d="m74.04,408.45s.02-.08.03-.22c0-.17.02-.39.03-.65.02-.61.05-1.45.09-2.52.06-2.23.15-5.38.27-9.26.12-3.91.28-8.56.56-13.73.29-5.16.67-10.84,1.46-16.74.4-2.95.86-5.83,1.68-8.5.82-2.67,1.92-5.16,3.11-7.44,1.2-2.28,2.52-4.35,3.92-6.16,1.41-1.81,2.86-3.38,4.28-4.7,2.88-2.63,5.63-4.24,7.6-5.18.5-.23.93-.45,1.32-.61.38-.15.71-.28.99-.38.25-.1.45-.18.61-.25.14-.06.2-.09.2-.1,0,0-.08.01-.22.05-.17.05-.37.12-.62.2-.28.1-.62.21-1.01.35-.4.15-.84.36-1.34.57-2,.89-4.8,2.47-7.74,5.1-1.45,1.32-2.93,2.9-4.37,4.71-1.43,1.82-2.77,3.9-4,6.19-1.21,2.3-2.32,4.8-3.16,7.5-.84,2.72-1.31,5.61-1.71,8.57-.79,5.93-1.16,11.61-1.42,16.78-.26,5.17-.39,9.83-.47,13.74-.08,3.91-.11,7.08-.12,9.27,0,1.07,0,1.91,0,2.52,0,.27,0,.48.01.66,0,.15.01.22.02.22Z"/>
        </g>
        <path class="cls-16" d="m70.38,413.03s.57-1.51,1.11-4.36c.53-2.85.93-7.07.46-12.24-.43-5.17-1.76-11.25-3.87-17.76-2.08-6.53-4.91-13.51-7.32-21.01-1.2-3.76-2.22-7.47-2.91-11.12-.71-3.65-1.15-7.21-1.44-10.61-.57-6.81-.49-12.98-.32-18.14.18-5.17.45-9.35.62-12.23.08-1.42.15-2.54.2-3.33.02-.36.03-.65.04-.87,0-.2,0-.3,0-.3,0,0-.02.1-.04.29-.02.22-.05.5-.09.86-.07.79-.16,1.9-.28,3.32-.23,2.88-.55,7.06-.77,12.23-.21,5.17-.32,11.35.23,18.19.27,3.42.71,6.99,1.42,10.66.7,3.67,1.72,7.4,2.92,11.17,2.42,7.53,5.26,14.5,7.36,21.01,2.12,6.49,3.47,12.52,3.95,17.66.5,5.14.15,9.34-.32,12.18-.25,1.42-.48,2.52-.68,3.25-.09.35-.15.63-.2.84-.04.19-.06.29-.05.29Z"/>
        <polygon class="cls-4" points="45.23 417.62 92.87 417.62 93.96 408.45 45.23 408.45 45.23 417.62"/>
        <polygon class="cls-4" points="87.76 416.58 81.8 444.09 55.91 444.09 50.34 416.58 87.76 416.58"/>
        <path class="cls-4" d="m45.23,417.62c0,.13,10.48.2,23.39.16,12.92-.04,23.4-.17,23.4-.29,0-.13-10.47-.2-23.4-.16-12.92.04-23.39.17-23.39.29Z"/>
        <path class="cls-16" d="m53.4,431.2c.06.09,1.41-1.29,4.2-2.41,1.38-.55,3.14-.98,5.1-1.02,1.97-.06,4.11.41,6.27,1.15,2.17.73,4.2,1.59,6.18,2.06,1.98.43,3.83.4,5.34.16,1.51-.24,2.68-.68,3.43-1.09.37-.21.65-.38.83-.53.18-.13.27-.21.26-.22-.03-.04-.41.24-1.16.59-.76.35-1.92.74-3.4.93-1.48.19-3.28.19-5.2-.25-1.91-.48-3.93-1.34-6.12-2.08-2.18-.75-4.4-1.23-6.43-1.14-2.03.07-3.81.54-5.21,1.15-1.41.59-2.44,1.29-3.11,1.81-.34.26-.58.48-.74.64-.16.15-.24.24-.23.25Z"/>
        <path class="cls-1" d="m53.77,433.04c.06.09,1.36-1.25,4.03-2.37,1.33-.55,3.02-.98,4.92-1.01,1.9-.05,3.98.38,6.07,1.09,2.1.7,4.07,1.52,5.95,2.02,1.88.51,3.65.69,5.13.58,1.48-.1,2.63-.52,3.36-.9.36-.2.63-.37.8-.51.17-.13.26-.2.25-.22-.03-.04-.39.23-1.13.57-.74.32-1.87.68-3.31.74-1.44.07-3.16-.13-5-.66-1.84-.52-3.8-1.34-5.92-2.05-2.11-.72-4.26-1.16-6.22-1.08-1.96.06-3.69.53-5.04,1.14-1.36.59-2.33,1.29-2.97,1.8-.32.26-.56.47-.71.62-.15.15-.23.23-.22.25Z"/>
        <path class="cls-1" d="m52.93,429.38c.06.09,1.46-1.32,4.31-2.54,1.42-.6,3.2-1.14,5.23-1.26,2.03-.14,4.24.38,6.47,1.14,2.25.75,4.33,1.67,6.39,2.09,2.06.37,3.96.26,5.51,0,1.55-.27,2.76-.71,3.54-1.12.38-.21.68-.39.86-.53.19-.14.28-.22.27-.23-.03-.04-.42.25-1.2.6-.79.35-1.99.74-3.51.96-1.52.21-3.39.28-5.38-.1-1.98-.42-4.07-1.35-6.33-2.11-2.25-.77-4.54-1.3-6.64-1.13-2.09.15-3.91.73-5.33,1.38-1.44.64-2.49,1.38-3.18,1.91-.35.27-.6.5-.76.66-.17.16-.25.25-.24.26Z"/>
      </g>
      <path class="cls-16" d="m44.81,417.66c0,.13,10.72.23,23.94.23s23.94-.1,23.94-.23-10.72-.23-23.94-.23-23.94.1-23.94.23Z"/>
    </g>
  </g>
  <g id="Desk">
    <path class="cls-16" d="m436.07,444.09c0,.14-97.47.26-217.67.26s-217.69-.12-217.69-.26,97.45-.26,217.69-.26,217.67.12,217.67.26Z"/>
  </g>
</svg>