<svg xmlns="http://www.w3.org/2000/svg" viewBox="0 0 148 30"><title>SpringerLink</title><path d="M23.651 23.02h-19.381v-1.191h1.643c.287-3.86 3.982-5.3 6.036-8.417h-2.381c-1.15.411-2.875 2.956-2.875 4.434h-3l.041-1.232-.986.821-2.625-3.035a.632.632 0 0 1-.123-.29.506.506 0 0 1 .041-.21l4.147-5.621.739-2.217 1.109-.41 1.15-1.6-.411-2.795a2.621 2.621 0 0 1 2.71.492 14.32 14.32 0 0 0-.041-1.724 2.485 2.485 0 0 1 3 2.053 13.982 13.982 0 0 1 1.478.206.669.669 0 0 1 .616-.452.6.6 0 0 1 .616.616v.164a11.891 11.891 0 0 1 2.423 1.15.585.585 0 0 1 .492-.247.6.6 0 0 1 .616.616.505.505 0 0 1-.123.37 10.569 10.569 0 0 1 1.807 2.012.76.76 0 0 1 .287-.082.641.641 0 0 1 .657.616.55.55 0 0 1-.328.534 11.474 11.474 0 0 1 .982 2.419.246.246 0 0 1 .164-.041.6.6 0 0 1 .616.616.593.593 0 0 1-.451.616c.164.862.287 1.725.369 2.628a.641.641 0 0 1 .657.616.67.67 0 0 1-.616.657c0 .862-.041 1.807-.123 2.71a.664.664 0 0 1 .575.657.64.64 0 0 1-.657.616h-.041c-.164.9-.328 1.806-.534 2.751h1.725v1.194zm-2.957-1.15c2.382-9.814-.411-17.615-8.007-18.519a10.043 10.043 0 0 1 .041 1.068c0 .493-.041.9-.041.9l-1.187-.203c.041-.411.123-3.2-.863-3.818a15.523 15.523 0 0 1-.328 2.956l-1.109-.204a1.66 1.66 0 0 0-1.069-1.725l.287 2.012-.7 1.027.33.944-2.176.739-.616 1.766-3.819 5.256 1.438 1.724 1.6-1.355.369.246v2.016h.863a8.069 8.069 0 0 1 2.669-3.942l-.616-.743.9-.78.865 1.065s3.08 0 3.08-.041a8.5 8.5 0 0 0 .739-3.572h1.191c0 4.681-2.34 6.529-5.256 9.4a6.09 6.09 0 0 0-2.135 3.783h13.55zm-17.121-9.07a3.172 3.172 0 0 1-.329 1.766l-.862-.329a2.722 2.722 0 0 0 .452-1.478zm4.721-4.562l-1.847.985-.124-1.523 1.93-.2z" fill="#00285A"/><path d="M23.651 29.1h-19.381v-2.385h19.381v2.385z" fill="#EE7D11"/><path d="M36.179 23.348a9.34 9.34 0 0 1-3.983-.9 25.941 25.941 0 0 1-.411-3.983l.945-.165c.534 2.012 1.273 3.983 3.736 3.983a2.524 2.524 0 0 0 2.751-2.669c0-4.229-7.021-3.284-7.021-8.171 0-2.217 1.807-4.229 5.01-4.229a10.275 10.275 0 0 1 3.367.7c.082.862.164 1.848.2 3.573l-.862.041c-.411-1.438-1.067-3.2-3.162-3.2a2.2 2.2 0 0 0-2.341 2.341c0 3.9 7.145 3.08 7.145 8.171.005 2.414-2.172 4.508-5.374 4.508zm11.7-.164a5.527 5.527 0 0 1-1.519-.287v3.859c0 1.4.164 1.52 2.053 1.684v.78h-5.787v-.78c1.478-.164 1.6-.287 1.6-1.684v-10.963c0-1.437-.041-1.478-1.437-1.6v-.7a27.136 27.136 0 0 0 3.572-1.027v1.56l2.217-1.15a1.668 1.668 0 0 1 .862-.205 4.116 4.116 0 0 1 3.983 4.352 6.076 6.076 0 0 1-5.542 6.161zm.534-8.993a4.655 4.655 0 0 0-2.053.78v6.077a2.827 2.827 0 0 0 2.094.862c1.191 0 2.751-.9 2.751-3.982.002-2.587-1.23-3.737-2.79-3.737zm12.81 1.027a1.1 1.1 0 0 0-.985-.411c-.534 0-1.191.616-1.643 1.889v3.819c0 1.4.164 1.52 1.93 1.643v.821h-5.582v-.821c1.4-.123 1.561-.247 1.561-1.643v-4.64c0-1.4-.123-1.4-1.4-1.643v-.7a21.774 21.774 0 0 0 3.49-.9v2.468h.041c.739-1.355 1.766-2.422 2.71-2.422a1.336 1.336 0 0 1 1.4 1.273c0 .938-.985 1.76-1.52 1.267zm7.844 7.761h-5.254v-.821c1.4-.123 1.6-.247 1.6-1.724v-4.434c0-1.6-.123-1.6-1.478-1.766v-.7a25.325 25.325 0 0 0 3.572-.9v7.8c0 1.478.123 1.6 1.561 1.724v.821zm-2.709-12.524a1.417 1.417 0 0 1 0-2.833 1.417 1.417 0 1 1 0 2.833zm15.275 12.524h-4.845v-.821c1.15-.123 1.314-.247 1.314-1.561v-4.024c0-1.478-.657-2.382-1.889-2.382a3.857 3.857 0 0 0-2.3 1.15v5.259c0 1.314.124 1.438 1.273 1.561v.821h-5.01v-.824c1.4-.123 1.6-.247 1.6-1.561v-4.722c0-1.4-.082-1.478-1.314-1.643v-.7a21.263 21.263 0 0 0 3.449-.9v1.643a6.5 6.5 0 0 1 3.285-1.6 2.891 2.891 0 0 1 3 3.162v4.763c0 1.314.206 1.438 1.438 1.561v.82zm11.7-9.773a3.339 3.339 0 0 1-.985 1.273l-1.191-.123a4.016 4.016 0 0 1 .575 2.053 4.055 4.055 0 0 1-4.311 3.86c-.123 0-.452-.041-.739-.041a1.42 1.42 0 0 0-.9 1.108c0 .37.37.822 1.355.822h2.463c1.437 0 3.367.7 3.367 3 0 2.628-2.751 4.845-5.954 4.845-2.792 0-4.271-1.724-4.271-3.121 0-.9.452-1.6 2.382-3.08a2.444 2.444 0 0 1-1.848-2.258 6.473 6.473 0 0 0 2.176-1.6 3.433 3.433 0 0 1-2.135-3.161 4.235 4.235 0 0 1 4.352-4.106 5.1 5.1 0 0 1 2.382.575c1.068-.041 2.135-.164 3.121-.287zm-3.241 11.005a8.327 8.327 0 0 0-2.628-.247 2.379 2.379 0 0 0-2.546 2.3c0 1.4 1.232 2.464 3.08 2.464a2.9 2.9 0 0 0 3.2-2.71 1.922 1.922 0 0 0-1.106-1.807zm-2.628-10.553c-.862 0-1.848.9-1.848 2.628s.9 2.957 2.135 2.957c.9 0 1.766-.78 1.766-2.669 0-1.602-.781-2.916-2.053-2.916zm14.494 3.613c-.369.041-3.2.246-5.789.329.082 2.71 1.683 3.859 3.285 3.859a3.031 3.031 0 0 0 2.381-1.067l.534.739a5.125 5.125 0 0 1-3.7 2.094 4.527 4.527 0 0 1-4.6-4.845c0-3.2 2.423-5.708 4.845-5.708a3.681 3.681 0 0 1 3.613 3.655c.006.615-.118.862-.569.944zm-3.49-3.571c-.944 0-1.93 1.027-2.176 2.792l3.531-.082c.452 0 .534-.123.534-.534a2.062 2.062 0 0 0-1.889-2.176zm11.825 1.519a1.4 1.4 0 0 0-.985-.411c-.534 0-1.232.616-1.683 1.889v3.819c0 1.4.164 1.52 1.929 1.643v.821h-5.625v-.822c1.437-.123 1.56-.247 1.56-1.643v-4.64c0-1.4-.082-1.4-1.4-1.643v-.7a20.213 20.213 0 0 0 3.531-.9v2.468h.041c.7-1.355 1.724-2.422 2.71-2.422a1.364 1.364 0 0 1 1.4 1.273c0 .938-1.026 1.76-1.478 1.267zM116.5 22.979v-14.618h1.15v13.755h6.282v.862h-7.432zM126.442 11.03a.871.871 0 0 1-.822-.9.885.885 0 0 1 .9-.9.905.905 0 0 1-.04 1.806h-.041zm-.534 11.949v-10.1h1.108v10.1h-1.108zM136.666 22.979v-6.119c0-1.724-.616-3.244-2.587-3.244a2.9 2.9 0 0 0-2.793 2.176 3.044 3.044 0 0 0-.123.9v6.282h-1.15v-7.674c0-.986-.041-1.561-.082-2.423h1.069l.041 1.6a3.749 3.749 0 0 1 3.285-1.806c1.15 0 3.449.575 3.449 3.983v6.323h-1.107zM146.685 22.979l-3.941-5.215-.9 1.027v4.188h-1.15v-14.823h1.15v9.526a11.5 11.5 0 0 1 .862-1.027l3.449-3.778h1.4l-4.024 4.229 4.469 5.873h-1.315z" fill="#00285A"/></svg>